<?xml version="1.0" encoding="UTF-8" standalone="no"?>
<!-- Created with Inkscape (http://www.inkscape.org/) -->

<svg
   xmlns:dc="http://purl.org/dc/elements/1.1/"
   xmlns:cc="http://creativecommons.org/ns#"
   xmlns:rdf="http://www.w3.org/1999/02/22-rdf-syntax-ns#"
   xmlns:svg="http://www.w3.org/2000/svg"
   xmlns="http://www.w3.org/2000/svg"
   xmlns:sodipodi="http://sodipodi.sourceforge.net/DTD/sodipodi-0.dtd"
   xmlns:inkscape="http://www.inkscape.org/namespaces/inkscape"
   width="40000"
   height="1000"
   id="svg2"
   sodipodi:version="0.32"
   inkscape:version="0.46+devel"
   version="1.0"
   sodipodi:docname="OpenDinSchriftenEngshrift.svg"
   inkscape:output_extension="org.inkscape.output.svg.inkscape">
  <defs
     id="defs4">
    <inkscape:perspective
       sodipodi:type="inkscape:persp3d"
       inkscape:vp_x="0 : 372.04724 : 1"
       inkscape:vp_y="0 : 1000 : 0"
       inkscape:vp_z="1052.3622 : 372.04724 : 1"
       inkscape:persp3d-origin="526.18109 : 248.03149 : 1"
       id="perspective7" />
  </defs>
  <sodipodi:namedview
     id="base"
     pagecolor="#ffffff"
     bordercolor="#666666"
     borderopacity="1.0"
     inkscape:pageopacity="0.0"
     inkscape:pageshadow="2"
     inkscape:zoom="0.41178101"
     inkscape:cx="39382.176"
     inkscape:cy="243.12117"
     inkscape:document-units="px"
     inkscape:current-layer="svg2"
     inkscape:window-width="1280"
     inkscape:window-height="899"
     inkscape:window-x="-4"
     inkscape:window-y="-4"
     showgrid="true"
     showguides="true"
     inkscape:guide-bbox="true"
     inkscape:snap-grids="true"
     inkscape:snap-to-guides="false"
     guidecolor="#ff0000"
     guideopacity="0.5"
     guidehicolor="#73ff00"
     guidehiopacity="0.5">
    <inkscape:grid
       type="xygrid"
       id="grid2813"
       empspacing="2"
       visible="true"
       enabled="true"
       snapvisiblegridlinesonly="true"
       spacingx="50px"
       spacingy="50px" />
    <sodipodi:guide
       orientation="0,1"
       position="0,200"
       id="guide2817" />
    <sodipodi:guide
       orientation="0,1"
       position="0,900"
       id="guide4460" />
  </sodipodi:namedview>
  <metadata
     id="metadata7">
    <rdf:RDF>
      <cc:Work
         rdf:about="">
        <dc:format>image/svg+xml</dc:format>
        <dc:type
           rdf:resource="http://purl.org/dc/dcmitype/StillImage" />
      </cc:Work>
    </rdf:RDF>
  </metadata>
  <path
     id="4"
     style="fill:#4080c0;fill-opacity:0.7;stroke:none"
     d="m 3100,100 -100,500 0,100 150,0 0,100 100,0 0,-100 50,0 0,-100 -50,0 0,-150 -100,0 0,150 -50,0 100,-500 -100,0 z" />
  <path
     id="7"
     style="fill:#4080c0;fill-opacity:0.7;stroke:none"
     d="m 4050,100 0,150 100,0 0,-50 100,0 -200,600 100,0 200,-600 0,-100 -300,0 z" />
  <path
     id="m"
     style="fill:#4080c0;fill-opacity:0.7;stroke:none"
     d="m 19000,300 0,500 100,0 0,-350 c 0,-27.6142 22.386,-50 50,-50 27.614,0 50,22.38576 50,50 l 0,350 100,0 0,-350 c 0,-27.6142 22.386,-50 50,-50 27.614,0 50,22.38576 50,50 l 0,350 100,0 0,-400 c 0,-55.22847 -44.772,-100 -100,-100 -55.229,0 -100,44.77153 -100,100 0,-55.22847 -44.772,-100 -100,-100 -55.229,0 -100,44.77153 -100,100 l 0,-100 -100,0 z" />
  <path
     id="n"
     style="fill:#4080c0;fill-opacity:0.7;stroke:none"
     d="m 19550,300 0,500 100,0 0,-350 c 0,-27.6142 22.386,-50 50,-50 27.614,0 50,22.38576 50,50 l 0,350 100,0 0,-400 c 0,-55.22847 -44.772,-100 -100,-100 -55.229,0 -100,44.77153 -100,100 l 0,-100 -100,0 z" />
  <path
     id="1"
     style="fill:#4080c0;fill-opacity:0.7;stroke:none"
     d="m 2150,100 -100,100 0,100 100,-100 0,600 100,0 0,-700 -100,0 z" />
  <path
     id="5"
     style="fill:#4080c0;fill-opacity:0.7;stroke:none"
     d="m 3350,100 0,400 100,0 c 0,-27.614 22.386,-50 50,-50 27.614,0 50,22.38576 50,50 l 0,150 c 0,27.61424 -22.386,50 -50,50 -27.614,0 -50,-22.386 -50,-50 l -100,0 c 0,82.843 67.157,150 150,150 82.843,0 150,-67.15729 150,-150 l 0,-150 c 0,-82.84271 -67.157,-150 -150,-150 -17.533,0 -34.361,3.00328 -50,8.53125 L 3450,200 l 150,0 0,-100 -250,0 z" />
  <path
     style="fill:#4080c0;fill-opacity:0.7;stroke:none"
     d="m 25450,100 c -82.843,0 -150,67.15729 -150,150 l 0,50 94.75,157.90625 L 25300,600 l 0,50 c 0,82.84271 67.157,150 150,150 l 50,0 c 31.514,0 61.329,-7.29785 87.844,-20.28125 L 25600,800 l 100,0 -44.531,-74.1875 C 25683.316,691.44707 25700,647.67771 25700,600 l 0,-100 -100,0 0,100 c 0,9.40185 -1.293,18.49853 -3.719,27.125 L 25494.75,457.90625 25600,300 l 0,-50 c 0,-82.84271 -67.157,-150 -150,-150 z m 0,100 c 27.614,0 50,22.38576 50,50 l 0,50 -52.625,78.9375 L 25400,300 l 0,-50 c 0,-27.61424 22.386,-50 50,-50 z m -7.906,336.84375 93.906,156.46875 c -11.174,4.31518 -23.304,6.6875 -36,6.6875 l -50,0 c -27.614,0 -50,-22.38576 -50,-50 l 0,-50 42.094,-63.15625 z"
     id="ampersand" />
  <path
     style="fill:#4080c0;fill-opacity:0.7;stroke:none"
     d="m 15100,300 c -82.843,0 -150,67.15729 -150,150 l 100,0 c 0,-27.61424 22.386,-50 50,-50 27.614,0 50,22.38576 50,50 l 0,50 -50,0 c -82.843,0 -150,67.15729 -150,150 l 0,50 c 0,55.22847 44.772,100 100,100 55.228,0 100,-44.77153 100,-100 l 0,100 100,0 0,-350 c 0,-82.84271 -67.157,-150 -150,-150 z m 0,300 50,0 0,50 c 0,27.6142 -22.386,50 -50,50 -27.614,0 -50,-22.38576 -50,-50 0,-27.61424 22.386,-50 50,-50 z"
     id="a" />
  <path
     style="fill:#4080c0;fill-opacity:0.7;stroke:none"
     d="m 15300,100 0,550 c 0,82.8427 67.157,150 150,150 82.843,0 150,-67.1573 150,-150 l 0,-250 c 0,-55.22847 -44.772,-100 -100,-100 -55.228,0 -100,44.77153 -100,100 l 0,-300 -100,0 z m 150,300 c 27.614,0 50,22.38576 50,50 l 0,200 c 0,27.6142 -22.386,50 -50,50 -27.614,0 -50,-22.3858 -50,-50 l 0,-200 c 0,-27.6142 22.386,-50 50,-50 z"
     id="b" />
  <path
     style="fill:#4080c0;fill-opacity:0.7;stroke:none"
     d="m 16150,300 c -82.843,0 -150,67.15729 -150,150 l 0,200 c 0,82.84271 67.157,150 150,150 82.843,0 150,-67.15729 150,-150 l -100,0 c 0,27.61424 -22.386,50 -50,50 -27.614,0 -50,-22.38576 -50,-50 l 0,-200 c 0,-27.61424 22.386,-50 50,-50 27.614,0 50,22.38576 50,50 l 100,0 c 0,-82.84271 -67.157,-150 -150,-150 z"
     id="c" />
  <path
     style="fill:#4080c0;fill-opacity:0.7;stroke:none"
     d="m 16550,100 0,300 c 0,-55.22847 -44.772,-100 -100,-100 -55.228,0 -100,44.77153 -100,100 l 0,300 c 0,55.22847 44.772,100 100,100 55.228,0 100,-44.77153 100,-100 l 0,100 100,0 0,-700 -100,0 z m -50,300 c 27.614,0 50,22.3858 50,50 l 0,200 c 0,27.6142 -22.386,50 -50,50 -27.614,0 -50,-22.38576 -50,-50 l 0,-200 c 0,-27.61424 22.386,-50 50,-50 z"
     id="d" />
  <path
     style="fill:#4080c0;fill-opacity:0.7;stroke:none"
     d="m 16850,300 c -82.843,0 -150,67.15729 -150,150 l 0,200 c 0,82.84271 67.157,150 150,150 82.843,0 150,-67.15729 150,-150 l -100,0 c 0,27.61424 -22.386,50 -50,50 -27.614,0 -50,-22.38576 -50,-50 l 0,-50 200,0 0,-150 c 0,-82.84271 -67.157,-150 -150,-150 z m 0,100 c 27.614,0 50,22.38576 50,50 l 0,50 -100,0 0,-50 c 0,-27.61424 22.386,-50 50,-50 z"
     id="e" />
  <path
     style="fill:#4080c0;fill-opacity:0.7;stroke:none"
     d="m 17250,100 c -82.843,0 -150,67.15729 -150,150 l 0,50 -50,0 0,100 50,0 0,400 100,0 0,-400 50,0 0,-100 -50,0 0,-50 c 0,-27.61424 22.386,-50 50,-50 l 0,-100 z"
     id="f" />
  <path
     style="fill:#4080c0;fill-opacity:0.7;stroke:none"
     d="m 17400,300 c -55.229,0 -100,44.77153 -100,100 l 0,300 c 0,55.22847 44.771,100 100,100 55.228,0 100,-44.77153 100,-100 l 0,150 c 0,27.61424 -22.386,50 -50,50 -27.614,0 -50,-22.38576 -50,-50 l -100,0 c 0,82.84271 67.157,150 150,150 82.843,0 150,-67.15729 150,-150 l 0,-550 -100,0 0,100 c 0,-55.22847 -44.772,-100 -100,-100 z m 50,100 c 27.614,0 50,22.3858 50,50 l 0,200 c 0,27.6142 -22.386,50 -50,50 -27.614,0 -50,-22.38576 -50,-50 l 0,-200 c 0,-27.61424 22.386,-50 50,-50 z"
     id="g" />
  <path
     style="fill:#4080c0;fill-opacity:0.7;stroke:none"
     d="m 17650,100 0,700 100,0 0,-350 c 0,-27.6142 22.386,-50 50,-50 27.614,0 50,22.38576 50,50 l 0,350 100,0 0,-400 c 0,-55.22847 -44.772,-100 -100,-100 -55.229,0 -100,44.77153 -100,100 l 0,-300 -100,0 z"
     id="h" />
  <path
     style="fill:#4080c0;fill-opacity:0.7;stroke:none"
     d="m 18150,100 0,100 100,0 0,-100 -100,0 z m 0,200 0,550 c 0,27.61424 -22.386,50 -50,50 l 0,100 c 82.843,0 150,-67.15729 150,-150 l 0,-550 -100,0 z"
     id="j" />
  <path
     style="fill:#4080c0;fill-opacity:0.7;stroke:none"
     d="m 18000,100 0,100 100,0 0,-100 -100,0 z m 0,200 0,500 100,0 0,-500 -100,0 z"
     id="i" />
  <path
     style="fill:#4080c0;fill-opacity:0.7;stroke:none"
     d="m 18800,100 0,550 c 0,82.84271 67.157,150 150,150 l 0,-100 c -27.614,0 -50,-22.38576 -50,-50 l 0,-550 -100,0 z"
     id="l_alt" />
  <path
     style="fill:#4080c0;fill-opacity:0.7;stroke:none"
     d="m 20050,300 c -82.843,0 -150,67.15729 -150,150 l 0,200 c 0,82.84271 67.157,150 150,150 82.843,0 150,-67.15729 150,-150 l 0,-200 c 0,-82.84271 -67.157,-150 -150,-150 z m 0,100 c 27.614,0 50,22.38576 50,50 l 0,200 c 0,27.61424 -22.386,50 -50,50 -27.614,0 -50,-22.38576 -50,-50 l 0,-200 c 0,-27.61424 22.386,-50 50,-50 z"
     id="o" />
  <path
     style="fill:#4080c0;fill-opacity:0.7;stroke:none"
     d="m 20250,300 0,700 100,0 0,-300 c 0,55.22847 44.771,100 100,100 55.228,0 100,-44.77153 100,-100 l 0,-300 c 0,-55.22847 -44.772,-100 -100,-100 -55.229,0 -100,44.77153 -100,100 l 0,-100 -100,0 z m 150,100 c 27.614,0 50,22.38576 50,50 l 0,200 c 0,27.61424 -22.386,50 -50,50 -27.614,0 -50,-22.3858 -50,-50 l 0,-200 c 0,-27.6142 22.386,-50 50,-50 z"
     id="p" />
  <path
     style="fill:#4080c0;fill-opacity:0.7;stroke:none"
     d="m 20700,300 c -55.229,0 -100,44.77153 -100,100 l 0,300 c 0,55.22847 44.771,100 100,100 55.228,0 100,-44.77153 100,-100 l 0,300 100,0 0,-700 -100,0 0,100 c 0,-55.22847 -44.772,-100 -100,-100 z m 50,100 c 27.614,0 50,22.3858 50,50 l 0,200 c 0,27.6142 -22.386,50 -50,50 -27.614,0 -50,-22.38576 -50,-50 l 0,-200 c 0,-27.61424 22.386,-50 50,-50 z"
     id="q" />
  <path
     style="fill:#4080c0;fill-opacity:0.7;stroke:none"
     d="m 20950,300 0,500 100,0 0,-350 c 0,-27.6142 22.386,-50 50,-50 27.614,0 50,22.38576 50,50 l 100,0 0,-50 c 0,-55.22847 -44.772,-100 -100,-100 -55.229,0 -100,44.77153 -100,100 l 0,-100 -100,0 z"
     id="r" />
  <path
     style="fill:#4080c0;fill-opacity:0.7;stroke:none"
     d="m 21450,300 c -82.843,0 -150,67.15729 -150,150 0,82.84271 67.157,150 150,150 27.614,0 50,22.3858 50,50 0,27.61424 -22.386,50 -50,50 -27.614,0 -50,-22.38576 -50,-50 l -100,0 c 0,82.84271 67.157,150 150,150 82.843,0 150,-67.15729 150,-150 0,-82.8427 -67.157,-150 -150,-150 -27.614,0 -50,-22.38576 -50,-50 0,-27.61424 22.386,-50 50,-50 27.614,0 50,22.38576 50,50 l 100,0 c 0,-82.84271 -67.157,-150 -150,-150 z"
     id="s" />
  <path
     style="fill:#4080c0;fill-opacity:0.7;stroke:none"
     d="m 21800,100 -100,100 0,100 -50,0 0,100 50,0 0,400 100,0 0,-400 50,0 0,-100 -50,0 0,-200 z"
     id="t" />
  <path
     style="fill:#4080c0;fill-opacity:0.7;stroke:none"
     d="m 22150,300 0,400 c 0,55.22847 44.771,100 100,100 55.228,0 100,-44.77153 100,-100 l 0,100 100,0 0,-500 -100,0 0,350 c 0,27.6142 -22.386,50 -50,50 -27.614,0 -50,-22.38576 -50,-50 l 0,-350 -100,0 z"
     id="u" />
  <path
     style="fill:#4080c0;fill-opacity:0.7;stroke:none"
     d="m 18650,100 0,700 100,0 0,-700 -100,0 z"
     id="l" />
  <path
     style="fill:#4080c0;fill-opacity:0.7;stroke:none"
     d="m 22500,300 100,500 100,0 100,-500 -100,0 -50,250 -50,-250 -100,0 z"
     id="v" />
  <path
     style="fill:#4080c0;fill-opacity:0.7;stroke:none"
     d="m 22850,300 100,500 100,0 50,-250 50,250 100,0 100,-500 -100,0 -50,250 -50,-250 -100,0 -50,250 -50,-250 -100,0 z"
     id="w" />
  <path
     style="fill:#4080c0;fill-opacity:0.7;stroke:none"
     d="m 23400,300 100,250 -100,250 100,0 50,-125 50,125 100,0 -100,-250 100,-250 -100,0 -50,125 -50,-125 -100,0 z"
     id="x" />
  <path
     style="fill:#4080c0;fill-opacity:0.7;stroke:none"
     d="m 23750,300 100,550 c 0,27.61424 -22.386,50 -50,50 l 0,100 c 82.843,0 150,-67.15729 150,-150 l 100,-550 -100,0 -50,275 -50,-275 -100,0 z"
     id="y" />
  <path
     style="fill:#4080c0;fill-opacity:0.7;stroke:none"
     d="m 24100,300 0,100 200,0 -200,300 0,100 300,0 0,-100 -200,0 200,-300 0,-100 -300,0 z"
     id="z" />
  <path
     style="fill:#4080c0;fill-opacity:0.7;stroke:none"
     d="m 22150,100 0,100 100,0 0,-100 -100,0 z m 200,0 0,100 100,0 0,-100 -100,0 z"
     id="dieresis" />
  <path
     style="fill:#4080c0;fill-opacity:0.7;stroke:none"
     d="m 24650,100 c -82.843,0 -150,67.15729 -150,150 l 0,550 100,0 0,-550 c 0,-27.61424 22.386,-50 50,-50 27.614,0 50,22.38576 50,50 0,27.61424 -22.386,50 -50,50 l 0,100 c 27.614,0 50,22.386 50,50 l 0,200 c 0,27.61424 -22.386,50 -50,50 l 0,100 c 82.843,0 150,-67.15729 150,-150 l 0,-200 c 0,-38.42757 -14.456,-73.4598 -38.219,-100 23.763,-26.54023 38.219,-61.57256 38.219,-100 0,-82.84271 -67.157,-150 -150,-150 z"
     id="double_s" />
  <path
     style="fill:#4080c0;fill-opacity:0.7;stroke:none"
     d="m 11800,100 0,100 100,0 0,600 100,0 0,-600 100,0 0,-100 -300,0 z"
     id="T" />
  <path
     style="fill:#4080c0;fill-opacity:0.7;stroke:none"
     d="m 11600,100 c -82.843,0 -150,67.15729 -150,150 l 0,100 c 0,82.84271 67.157,150 150,150 27.614,0 50,22.3858 50,50 l 0,100 c 0,27.61424 -22.386,50 -50,50 -27.614,0 -50,-22.38576 -50,-50 l 0,-50 -100,0 0,50 c 0,82.84271 67.157,150 150,150 82.843,0 150,-67.15729 150,-150 l 0,-100 c 0,-82.8427 -67.157,-150 -150,-150 -27.614,0 -50,-22.38576 -50,-50 l 0,-100 c 0,-27.61424 22.386,-50 50,-50 27.614,0 50,22.38576 50,50 l 0,50 100,0 0,-50 c 0,-82.84271 -67.157,-150 -150,-150 z"
     id="S" />
  <path
     style="fill:#4080c0;fill-opacity:0.7;stroke:none"
     d="m 12150,100 0,550 c 0,82.84271 67.157,150 150,150 82.843,0 150,-67.15729 150,-150 l 0,-550 -100,0 0,550 c 0,27.61424 -22.386,50 -50,50 -27.614,0 -50,-22.38576 -50,-50 l 0,-550 -100,0 z"
     id="U" />
  <path
     style="fill:#4080c0;fill-opacity:0.7;stroke:none"
     d="m 12500,100 150,700 100,0 150,-700 -100,0 -100,466.65625 L 12600,100 l -100,0 z"
     id="V" />
  <path
     style="fill:#4080c0;fill-opacity:0.7;stroke:none"
     d="m 12950,100 150,700 100,0 100,-466.65625 100,466.65625 100,0 150,-700 -100,0 -100,466.65625 L 13350,100 13250,100 13150,566.65625 13050,100 l -100,0 z"
     id="W" />
  <path
     style="fill:#4080c0;fill-opacity:0.7;stroke:none"
     d="m 13700,100 150,350 -150,350 100,0 100,-233.34375 100,233.34375 100,0 -150,-350 150,-350 -100,0 -100,233.34375 L 13800,100 l -100,0 z"
     id="X" />
  <path
     style="fill:#4080c0;fill-opacity:0.7;stroke:none"
     d="m 14150,100 150,500 0,200 100,0 0,-200 150,-500 -100,0 -100,333.34375 L 14250,100 l -100,0 z"
     id="Y" />
  <path
     style="fill:#4080c0;fill-opacity:0.7;stroke:none"
     d="m 11100,100 0,700 100,0 0,-300 25,0 75,300 100,0 -79.406,-317.625 C 11367.843,457.1228 11400,407.31796 11400,350 l 0,-100 c 0,-82.8427 -67.157,-150 -150,-150 l -150,0 z m 100,100 50,0 c 27.614,0 50,22.3858 50,50 l 0,100 c 0,27.614 -22.386,50 -50,50 l -50,0 0,-200 z"
     id="path3029" />
  <path
     style="fill:#4080c0;fill-opacity:0.7;stroke:none"
     d="m 10350,100 0,700 100,0 0,-300 50,0 c 82.843,0 150,-67.157 150,-150 l 0,-100 c 0,-82.8427 -67.157,-150 -150,-150 l -150,0 z m 100,100 50,0 c 27.614,0 50,22.3858 50,50 l 0,100 c 0,27.614 -22.386,50 -50,50 l -50,0 0,-200 z"
     id="P" />
  <path
     style="fill:#4080c0;fill-opacity:0.7;stroke:none"
     d="m 10850,100 c -82.843,0 -150,67.15729 -150,150 l 0,400 c 0,82.84271 67.157,150 150,150 38.428,0 73.46,-14.45604 100,-38.21875 26.54,23.76268 61.572,38.21875 100,38.21875 l 0,-100 c -27.614,0 -50,-22.386 -50,-50 l 0,-400 c 0,-82.84271 -67.157,-150 -150,-150 z m 0,100 c 27.614,0 50,22.38576 50,50 l 0,400 c 0,27.61424 -22.386,50 -50,50 -27.614,0 -50,-22.38576 -50,-50 l 0,-400 c 0,-27.61424 22.386,-50 50,-50 z"
     id="Q" />
  <path
     style="fill:#4080c0;fill-opacity:0.7;stroke:none"
     d="m 10150,100 c -82.843,0 -150,67.15729 -150,150 l 0,400 c 0,82.84271 67.157,150 150,150 82.843,0 150,-67.15729 150,-150 l 0,-400 c 0,-82.84271 -67.157,-150 -150,-150 z m 0,100 c 27.614,0 50,22.38576 50,50 l 0,400 c 0,27.61424 -22.386,50 -50,50 -27.614,0 -50,-22.38576 -50,-50 l 0,-400 c 0,-27.61424 22.386,-50 50,-50 z"
     id="O" />
  <path
     style="fill:#4080c0;fill-opacity:0.7;stroke:none"
     d="m 9650,100 0,700 100,0 0,-350 100,350 100,0 0,-700 -100,0 0,350 -100,-350 -100,0 z"
     id="N" />
  <path
     style="fill:#4080c0;fill-opacity:0.7;stroke:none"
     d="m 9100,100 0,700 100,0 0,-450 100,250 100,0 100,-250 0,450 100,0 0,-700 -100,0 -150,375 -150,-375 -100,0 z"
     id="M" />
  <path
     style="fill:#4080c0;fill-opacity:0.7;stroke:none"
     d="m 8750,100 0,700 300,0 0,-100 -200,0 0,-600 -100,0 z"
     id="L" />
  <path
     style="fill:#4080c0;fill-opacity:0.7;stroke:none"
     d="m 7650,100 0,700 100,0 0,-300 100,0 0,300 100,0 0,-700 -100,0 0,300 -100,0 0,-300 -100,0 z"
     id="H" />
  <path
     style="fill:#4080c0;fill-opacity:0.7;stroke:none"
     d="m 8000,100 0,700 100,0 0,-700 -100,0 z"
     id="I" />
  <path
     style="fill:#4080c0;fill-opacity:0.7;stroke:none"
     d="m 8250,100 0,550 c 0,27.61424 -22.386,50 -50,50 l -50,0 0,100 50,0 c 82.843,0 150,-67.15729 150,-150 l 0,-550 -100,0 z"
     id="J" />
  <path
     style="fill:#4080c0;fill-opacity:0.7;stroke:none"
     d="m 7450,100 c -82.843,0 -150,67.15729 -150,150 l 0,400 c 0,82.84271 67.157,150 150,150 82.843,0 150,-67.15729 150,-150 l 0,-250 -150,0 0,100 50,0 0,150 c 0,27.61424 -22.386,50 -50,50 -27.614,0 -50,-22.38576 -50,-50 l 0,-400 c 0,-27.61424 22.386,-50 50,-50 27.614,0 50,22.38576 50,50 l 100,0 c 0,-82.84271 -67.157,-150 -150,-150 z"
     id="G" />
  <path
     style="fill:#4080c0;fill-opacity:0.7;stroke:none"
     d="m 6950,100 0,700 100,0 0,-300 100,0 0,-100 -100,0 0,-200 200,0 0,-100 -300,0 z"
     id="F"
     sodipodi:nodetypes="ccccccccccc" />
  <path
     style="fill:#4080c0;fill-opacity:0.7;stroke:none"
     d="m 6600,100 0,700 300,0 0,-100 -200,0 0,-200 100,0 0,-100 -100,0 0,-200 200,0 0,-100 -300,0 z"
     id="E"
     sodipodi:nodetypes="ccccccccccccc" />
  <path
     style="fill:#4080c0;fill-opacity:0.7;stroke:none"
     d="m 6250,100 0,700 150,0 c 82.843,0 150,-67.15729 150,-150 l 0,-400 c 0,-82.843 -67.157,-150 -150,-150 l -150,0 z m 100,100 50,0 c 27.614,0 50,22.386 50,50 l 0,400 c 0,27.61424 -22.386,50 -50,50 l -50,0 0,-500 z"
     id="D" />
  <path
     style="fill:#4080c0;fill-opacity:0.7;stroke:none"
     d="m 6050,100 c -82.843,0 -150,67.15729 -150,150 l 0,400 c 0,82.84271 67.157,150 150,150 82.843,0 150,-67.15729 150,-150 l -100,0 c 0,27.61424 -22.386,50 -50,50 -27.614,0 -50,-22.38576 -50,-50 l 0,-400 c 0,-27.61424 22.386,-50 50,-50 27.614,0 50,22.38576 50,50 l 100,0 c 0,-82.84271 -67.157,-150 -150,-150 z"
     id="C" />
  <path
     style="fill:#4080c0;fill-opacity:0.7;stroke:none"
     d="m 5550,100 0,700 150,0 c 82.843,0 150,-67.15729 150,-150 l 0,-100 c 0,-38.42757 -14.4558,-73.4598 -38.2188,-100 C 5835.5442,423.45977 5850,388.42744 5850,350 l 0,-100 c 0,-82.843 -67.157,-150 -150,-150 l -150,0 z m 100,100 50,0 c 27.614,0 50,22.386 50,50 l 0,100 c 0,27.61424 -22.386,50 -50,50 l -50,0 0,-200 z m 0,300 50,0 c 27.614,0 50,22.386 50,50 l 0,100 c 0,27.61424 -22.386,50 -50,50 l -50,0 0,-200 z"
     id="B" />
  <path
     style="fill:#4080c0;fill-opacity:0.7;stroke:none"
     d="m 12150,-50 0,100 100,0 0,-100 -100,0 z m 200,0 0,100 100,0 0,-100 -100,0 z"
     id="dieresis_2" />
  <path
     style="fill:#4080c0;fill-opacity:0.7;stroke:none"
     d="m 14600,100 0,100 200,0 -200,500 0,100 300,0 0,-100 -200,0 200,-500 0,-100 -300,0 z"
     id="Z" />
  <path
     style="fill:#4080c0;fill-opacity:0.7;stroke:none"
     d="m 1850,100 c -82.843,0 -150,67.15729 -150,150 l 0,400 c 0,82.84271 67.157,150 150,150 82.843,0 150,-67.15729 150,-150 l 0,-400 c 0,-82.84271 -67.157,-150 -150,-150 z m 0,100 c 27.614,0 50,22.38576 50,50 l 0,400 c 0,27.61424 -22.386,50 -50,50 -27.614,0 -50,-22.38576 -50,-50 l 0,-400 c 0,-27.61424 22.386,-50 50,-50 z"
     id="0" />
  <path
     style="fill:#4080c0;fill-opacity:0.7;stroke:none"
     d="m 2800,100 c -82.843,0 -150,67.157 -150,150 l 100,0 c 0,-27.614 22.386,-50 50,-50 27.614,0 50,22.386 50,50 l 0,100 c 0,27.61424 -22.386,50 -50,50 l 0,100 c 27.614,0 50,22.386 50,50 l 0,100 c 0,27.61424 -22.386,50 -50,50 -27.614,0 -50,-22.386 -50,-50 l -100,0 c 0,82.843 67.157,150 150,150 82.843,0 150,-67.15729 150,-150 l 0,-100 c 0,-38.42757 -14.456,-73.4598 -38.219,-100 C 2935.544,423.45977 2950,388.42744 2950,350 l 0,-100 c 0,-82.843 -67.157,-150 -150,-150 z"
     id="3" />
  <path
     style="fill:#4080c0;fill-opacity:0.7;stroke:none"
     d="m 2450,100 c -82.843,0 -150,67.157 -150,150 l 100,0 c 0,-27.614 22.386,-50 50,-50 27.614,0 50,22.386 50,50 l 0,50 -200,400 0,100 300,0 0,-100 -200,0 200,-400 0,-50 c 0,-82.843 -67.157,-150 -150,-150 z"
     id="2" />
  <path
     style="fill:#4080c0;fill-opacity:0.7;stroke:none"
     d="m 3850,100 c -82.843,0 -150,67.157 -150,150 l 0,400 c 0,82.843 67.157,150 150,150 82.843,0 150,-67.15729 150,-150 l 0,-150 c 0,-82.84271 -67.157,-150 -150,-150 -17.533,0 -34.361,3.00328 -50,8.53125 L 3800,250 c 0,-27.614 22.386,-50 50,-50 27.614,0 50,22.38576 50,50 l 100,0 c 0,-82.84271 -67.157,-150 -150,-150 z m 0,350 c 27.614,0 50,22.38576 50,50 l 0,150 c 0,27.61424 -22.386,50 -50,50 -27.614,0 -50,-22.386 -50,-50 l 0,-150 c 0,-27.614 22.386,-50 50,-50 z"
     id="6" />
  <path
     style="fill:#4080c0;fill-opacity:0.7;stroke:none"
     d="m 4550,100 c -82.843,0 -150,67.157 -150,150 l 0,100 c 0,38.42744 14.4558,73.45977 38.2188,100 C 4414.4558,476.5402 4400,511.57243 4400,550 l 0,100 c 0,82.843 67.157,150 150,150 82.843,0 150,-67.15729 150,-150 l 0,-100 c 0,-38.42757 -14.4558,-73.4598 -38.2188,-100 C 4685.5442,423.45977 4700,388.42744 4700,350 l 0,-100 c 0,-82.843 -67.157,-150 -150,-150 z m 0,100 c 27.614,0 50,22.386 50,50 l 0,100 c 0,27.61424 -22.386,50 -50,50 -27.614,0 -50,-22.38576 -50,-50 l 0,-100 c 0,-27.614 22.386,-50 50,-50 z m 0,300 c 27.614,0 50,22.386 50,50 l 0,100 c 0,27.61424 -22.386,50 -50,50 -27.614,0 -50,-22.386 -50,-50 l 0,-100 c 0,-27.614 22.386,-50 50,-50 z"
     id="8" />
  <path
     style="fill:#4080c0;fill-opacity:0.7;stroke:none"
     d="m 4900,100 c -82.843,0 -150,67.15729 -150,150 l 0,150 c 0,82.84271 67.157,150 150,150 17.533,0 34.361,-3.00328 50,-8.53125 L 4950,650 c 0,27.614 -22.386,50 -50,50 -27.614,0 -50,-22.38576 -50,-50 l -100,0 c 0,82.84271 67.157,150 150,150 82.843,0 150,-67.157 150,-150 l 0,-400 c 0,-82.843 -67.157,-150 -150,-150 z m 0,100 c 27.614,0 50,22.386 50,50 l 0,150 c 0,27.614 -22.386,50 -50,50 -27.614,0 -50,-22.38576 -50,-50 l 0,-150 c 0,-27.61424 22.386,-50 50,-50 z"
     id="9" />
  <path
     style="fill:#4080c0;fill-opacity:0.7;stroke:none"
     d="m 50,500 300,0 0,100 -300,0 0,-100 z"
     id="hyphen" />
  <path
     id="colon"
     style="fill:#4080c0;fill-opacity:0.7;stroke:none"
     d="m 400,700 0,100 100,0 0,-100 -100,0 z m 0,-400 0,100 100,0 0,-100 -100,0 z" />
  <path
     style="fill:#4080c0;fill-opacity:0.7;stroke:none"
     d="m 700,700 100,0 0,100 -100,0 0,-100 z"
     id="period" />
  <path
     style="fill:#4080c0;fill-opacity:0.7;stroke:none"
     d="m 850,700 100,0 0,100 -100,100 0,-200 z"
     id="comma" />
  <path
     id="quote"
     style="fill:#4080c0;fill-opacity:0.7;stroke:none"
     d="m 1100,100 0,150 50,-50 0,-100 -50,0 z m -100,0 0,150 50,-50 0,-100 -50,0 z" />
  <path
     id="exclamation"
     style="fill:#4080c0;fill-opacity:0.7;stroke:none"
     d="m 1200,700 0,100 100,0 0,-100 -100,0 z m 0,-600 0,550 100,0 0,-550 -100,0 z" />
  <path
     id="question"
     style="fill:#4080c0;fill-opacity:0.7;stroke:none"
     d="m 1450,700 0,100 100,0 0,-100 -100,0 z m 50,-600 c -82.843,0 -150,67.15729 -150,150 l 0,50 100,0 0,-50 c 0,-27.61424 22.386,-50 50,-50 27.614,0 50,22.386 50,50 l 0,50 -100,200 0,150 100,0 0,-150 100,-200 0,-50 c 0,-82.843 -67.157,-150 -150,-150 z" />
  <path
     style="fill:#4080c0;fill-opacity:0.7;stroke:none"
     d="m 22100,800 c -82.843,0 -150,-67.15729 -150,-150 l 0,-250 -50,0 0,-100 50,0 0,-200 100,0 0,200 50,0 0,100 -50,0 0,250 c 0,27.61424 22.386,50 50,50 l 0,100 z"
     id="t_alt" />
  <path
     id="semicolon"
     style="fill:#4080c0;fill-opacity:0.7;stroke:none"
     d="m 550,700 0,200 100,-100 0,-100 -100,0 z m 0,-400 0,100 100,0 0,-100 -100,0 z" />
  <path
     id="path2980"
     d="m -1200,700 c 0,55.22847 -44.7715,100 -100,100 -55.2285,0 -100,-44.77153 -100,-100 0,-55.22847 44.7715,-100 100,-100 55.2285,0 100,44.77153 100,100 z"
     style="fill:#4080c0;fill-opacity:0.7;stroke:none" />
  <path
     style="fill:#4080c0;fill-opacity:0.7;stroke:none"
     d="m -700,50 c 0,110.45695 -89.5431,200 -200,200 -110.4569,0 -200,-89.54305 -200,-200 0,-110.45695 89.5431,-200 200,-200 110.4569,0 200,89.54305 200,200 z"
     id="path2982" />
  <path
     id="path2985"
     d="m -1450,-200 c -110.4569,0 -200,89.54305 -200,200 0,110.45695 89.5431,200 200,200 110.4569,0 200,-89.54305 200,-200 0,-110.45695 -89.5431,-200 -200,-200 z m 0,100 c 55.2285,0 100,44.77153 100,100 0,55.22847 -44.7715,100 -100,100 -55.2285,0 -100,-44.77153 -100,-100 0,-55.22847 44.7715,-100 100,-100 z"
     style="fill:#4080c0;fill-opacity:0.7;stroke:none" />
  <path
     id="path2990"
     d="m -1800,300 0,100 c 55.2285,0 100,44.77153 100,100 0,55.22847 -44.7715,100 -100,100 l 0,100 c 110.4569,0 200,-89.54305 200,-200 0,-110.45695 -89.5431,-200 -200,-200 z"
     style="fill:#4080c0;fill-opacity:0.7;stroke:none" />
  <path
     style="fill:#4080c0;fill-opacity:0.7;stroke:none"
     d="m -1550,450 100,0 0,350 -100,0 0,-350 z"
     id="rect2821" />
  <path
     style="fill:#4080c0;fill-opacity:0.7;stroke:none"
     d="m -650,200 c -82.84271,0 -150,67.15729 -150,150 0,82.84271 67.15729,150 150,150 82.84271,0 150,-67.15729 150,-150 0,-82.84271 -67.15729,-150 -150,-150 z"
     id="path2913" />
  <path
     style="fill:#4080c0;fill-opacity:0.7;stroke:none"
     d="m -650,300 c 27.61424,0 50,22.38576 50,50 0,27.61424 -22.38576,50 -50,50 -27.61424,0 -50,-22.38576 -50,-50 0,-27.61424 22.38576,-50 50,-50 z"
     id="path2823" />
  <path
     style="fill:#4080c0;fill-opacity:0.7;stroke:none"
     d="m -850,650 c 0,82.84271 -67.15729,150 -150,150 -82.8427,0 -150,-67.15729 -150,-150 0,-82.84271 67.1573,-150 150,-150 82.84271,0 150,67.15729 150,150 z"
     id="path3599" />
  <path
     style="fill:#4080c0;fill-opacity:0.7;stroke:none"
     d="m -1300,500 c 0,27.61423 -22.3858,50 -50,50 -27.6142,0 -50,-22.38577 -50,-50 0,-27.61424 22.3858,-50 50,-50 27.6142,0 50,22.38576 50,50 z"
     id="path3601" />
  <path
     style="fill:#4080c0;fill-opacity:0.7;stroke:none"
     d="m -1450,250 c 0,82.84271 67.1573,150 150,150 l 0,-100 c -27.6142,0 -50,-22.38576 -50,-50 l -100,0 z"
     id="path3609" />
  <path
     style="fill:#4080c0;fill-opacity:0.7;stroke:none"
     d="m -1100,200 c -82.8427,0 -150,67.15729 -150,150 l 100,0 c 0,-27.61424 22.3858,-50 50,-50 l 0,-100 z"
     id="path3616" />
  <path
     style="fill:#4080c0;fill-opacity:0.7;stroke:none"
     d="m -1250,400 50,0 0,100 -50,0 0,-100 z"
     id="rect3618" />
  <path
     style="fill:#4080c0;fill-opacity:0.7;stroke:none"
     d="m -850,450 c 0,-82.84271 -67.15729,-150 -150,-150 -82.8427,0 -150,67.15729 -150,150 l 100,0 c 0,-27.61424 22.3858,-50 50,-50 27.61424,0 50,22.38576 50,50 l 100,0 z"
     id="path3622" />
  <path
     style="fill:#4080c0;fill-opacity:0.7;stroke:none"
     d="m -800,700 c 0,55.2285 44.7715,100 100,100 55.2285,0 100,-44.7715 100,-100 l -200,0 z"
     id="path3651" />
  <path
     style="fill:#4080c0;fill-opacity:0.7;stroke:none"
     d="m -1200,550 50,0 0,-50 c 0,27.6142 -22.3858,50 -50,50 z"
     id="path3653" />
  <path
     style="opacity:0.98999999;fill:#4080c0;fill-opacity:0.69803922;stroke:none"
     d="m 5250,100 -150,700 100,0 42.8438,-200 114.3124,0 42.8438,200 100,0 -150,-700 -100,0 z M 5300,333.3125 5335.7188,500 5264.2812,500 5300,333.3125 z"
     id="rect2906" />
  <path
     style="opacity:0.98999999;fill:#4080c0;fill-opacity:0.69803922;stroke:none"
     d="m 18300,100 0,700 100,0 0,-200 100,200 100,0 -125,-250 125,-250 -100,0 -100,200 0,-400 -100,0 z"
     id="rect3710" />
  <path
     style="opacity:0.98000004;fill:#4080c0;fill-opacity:0.7;stroke:none"
     d="m 8400,100 0,700 100,0 0,-266.65625 L 8600,800 8700,800 8568.75,450 8700,100 8600,100 8500,366.65625 8500,100 l -100,0 z"
     id="path3738" />
  <rect
     style="opacity:0.98000004;fill:#4080c0;fill-opacity:0.69803922;stroke:none"
     id="rect2907"
     width="300"
     height="1000"
     x="25750"
     y="0" />
  <path
     id="path2924"
     d="m 15750,100 0,300 c 0,-55.22847 44.772,-100 100,-100 55.228,0 100,44.77153 100,100 l 0,300 c 0,55.22847 -44.772,100 -100,100 -55.228,0 -100,-44.77153 -100,-100 l 0,100 -100,0 0,-700 100,0 z m 50,300 c -27.614,0 -50,22.3858 -50,50 l 0,200 c 0,27.6142 22.386,50 50,50 27.614,0 50,-22.38576 50,-50 l 0,-200 c 0,-27.61424 -22.386,-50 -50,-50 z"
     style="fill:#4080c0;fill-opacity:0.7;stroke:none" />
  <path
     style="fill:#4080c0;fill-opacity:0.7;stroke:none"
     d="M 25050 100 C 24967.157 100 24900 167.15729 24900 250 L 24900 800 L 25000 800 L 25000 250 C 25000 222.38576 25022.386 200 25050 200 L 25100 200 C 25127.614 200 25150 222.38576 25150 250 C 25150 277.61424 25127.614 300 25100 300 L 25100 400 C 25127.614 400 25150 422.386 25150 450 L 25150 650 C 25150 677.61424 25127.614 700 25100 700 L 25100 800 C 25182.843 800 25250 732.84271 25250 650 L 25250 450 C 25250 411.57243 25235.544 376.5402 25211.781 350 C 25235.544 323.45977 25250 288.42744 25250 250 C 25250 167.15729 25182.843 100 25100 100 L 25050 100 z "
     id="path2926" />
  <path
     style="fill:#4080c0;fill-opacity:0.7;stroke:none"
     d="m 26250,300 c -82.843,0 -150,67.15729 -150,150 l 100,0 c 0,-27.61424 22.386,-50 50,-50 27.614,0 50,22.38576 50,50 l 0,50 -50,0 c -82.843,0 -150,67.1573 -150,150 l 0,50 c 0,55.2285 44.772,100 100,100 55.228,0 100,-44.7715 100,-100 l 4.844,-12.09375 C 26321.634,752.39884 26380.25,800 26450,800 c 82.843,0 150,-67.1573 150,-150 l -100,0 c 0,27.6142 -22.386,50 -50,50 -27.614,0 -50,-22.3858 -50,-50 l 0,-50 200,0 0,-150 c 0,-82.84271 -67.157,-150 -150,-150 -38.428,0 -73.46,14.45604 -100,38.21875 C 26323.46,314.45604 26288.428,300 26250,300 z m 200,100 c 27.614,0 50,22.38576 50,50 l 0,50 -100,0 0,-50 c 0,-27.61424 22.386,-50 50,-50 z m -200,200 50,0 0,50 c 0,27.6142 -22.386,50 -50,50 -27.614,0 -50,-22.3858 -50,-50 0,-27.6142 22.386,-50 50,-50 z"
     id="path2940" />
  <path
     style="fill:#4080c0;fill-opacity:0.7;stroke:none"
     d="m 26800,300 c -82.843,0 -150,67.15729 -150,150 l 0,200 c 0,82.8427 67.157,150 150,150 38.428,0 73.46,-14.45603 100,-38.21875 26.54,23.76272 61.572,38.21875 100,38.21875 82.843,0 150,-67.1573 150,-150 l -100,0 c 0,27.6142 -22.386,50 -50,50 -27.614,0 -50,-22.3858 -50,-50 l 0,-50 200,0 0,-150 c 0,-82.84271 -67.157,-150 -150,-150 -38.428,0 -73.46,14.45604 -100,38.21875 C 26873.46,314.45604 26838.428,300 26800,300 z m 0,100 c 27.614,0 50,22.38576 50,50 l 0,200 c 0,27.6142 -22.386,50 -50,50 -27.614,0 -50,-22.3858 -50,-50 l 0,-200 c 0,-27.61424 22.386,-50 50,-50 z m 200,0 c 27.614,0 50,22.38576 50,50 l 0,50 -100,0 0,-50 c 0,-27.61424 22.386,-50 50,-50 z"
     id="path2944" />
  <path
     style="fill:#4080c0;fill-opacity:0.7;stroke:none"
     d="m 27200,300 0,700 100,0 0,-200 c 55.228,0 100,-44.77153 100,-100 l 0,100 100,0 0,-500 -100,0 0,350 c 0,27.6142 -22.386,50 -50,50 -27.614,0 -50,-22.38576 -50,-50 l 0,-350 -100,0 z"
     id="path2950"
     sodipodi:nodetypes="ccccccccccsccc" />
  <path
     style="opacity:0.98000004;fill:#4080c0;fill-opacity:0.69803922;stroke:none"
     d="m 20100,100 100,0 -100,100 -100,0 100,-100 z"
     id="rect2955"
     sodipodi:nodetypes="ccccc" />
  <path
     sodipodi:nodetypes="ccccc"
     id="path2958"
     d="m 20350,100 -100,0 100,100 100,0 -100,-100 z"
     style="opacity:0.98000004;fill:#4080c0;fill-opacity:0.69803922;stroke:none" />
  <path
     style="opacity:0.98000004;fill:#4080c0;fill-opacity:0.69803922;stroke:none"
     d="M 19650 100 L 19550 200 L 19650 200 L 19700 150 L 19750 200 L 19850 200 L 19750 100 L 19650 100 z "
     id="path2960" />
  <path
     id="path2965"
     d="m 20700,200 -100,-100 100,0 50,50 50,-50 100,0 -100,100 -100,0 z"
     style="opacity:0.98000004;fill:#4080c0;fill-opacity:0.69803922;stroke:none" />
  <path
     style="opacity:0.98000004;fill:#4080c0;fill-opacity:0.69803922;stroke:none"
     d="M 21050 100 L 20950 200 L 21050 200 L 21150 100 L 21050 100 z M 21250 100 L 21150 200 L 21250 200 L 21350 100 L 21250 100 z "
     id="path2967" />
  <path
     style="fill:#4080c0;fill-opacity:0.7;stroke:none"
     d="m 16800,100 c -55.228,0 -100,44.77153 -100,100 l 0,50 100,0 0,-50 13.375,0 c 17.29,29.89243 49.609,50 86.625,50 55.228,0 100,-44.772 100,-100 l 0,-50 -100,0 0,50 -13.375,0 c -17.29,-29.89243 -49.609,-50 -86.625,-50 z"
     id="path2976" />
  <path
     style="fill:#4080c0;fill-opacity:0.7;stroke:none"
     d="m 27850,800 c 27.614,0 50,22.386 50,50 0,27.614 -22.386,50 -50,50 l -50,0 c 0,55.228 44.772,100 100,100 55.228,0 100,-44.772 100,-100 0,-55.228 -44.772,-100 -100,-100 l -50,0 z"
     id="path2984" />
  <path
     style="fill:#4080c0;fill-opacity:0.7;stroke:none"
     d="m 27650,850 c 0,27.614 -22.386,50 -50,50 l -50,0 0,100 100,0 c 55.228,0 100,-44.772 100,-100 0,-55.228 -44.772,-100 -100,-100 0,0 0,50 0,50 z"
     id="path2999"
     sodipodi:nodetypes="cccccscc" />
  <path
     style="fill:#4080c0;fill-opacity:0.7;stroke:none"
     d="m 15200,150 c 0,55.22847 -44.772,100 -100,100 -55.228,0 -100,-44.77153 -100,-100 0,-55.22847 44.772,-100 100,-100 55.228,0 100,44.77153 100,100 z"
     id="path3004" />
  <path
     style="fill:#4080c0;fill-opacity:0.7;stroke:none"
     d="M -450 -300 C -532.84271 -300 -600 -232.84271 -600 -150 C -600 -67.15729 -532.84271 0 -450 0 C -367.15729 0 -300 -67.15729 -300 -150 C -300 -232.84271 -367.15729 -300 -450 -300 z M -450 -200 C -422.38576 -200 -400 -177.61424 -400 -150 C -400 -122.38576 -422.38576 -100 -450 -100 C -477.61424 -100 -500 -122.38576 -500 -150 C -500 -177.61424 -477.61424 -200 -450 -200 z "
     id="path3006" />
  <path
     style="fill:#4080c0;fill-opacity:0.7;stroke:none"
     d="m 16000,100 c 0,82.84271 67.157,150 150,150 82.843,0 150,-67.15729 150,-150 l -100,0 c 0,27.61424 -22.386,50 -50,50 -27.614,0 -50,-22.38576 -50,-50 l -100,0 z"
     id="path3011" />
  <path
     style="fill:#4080c0;fill-opacity:0.7;stroke:none"
     d="m 28200,100 c -82.843,0 -150,67.15729 -150,150 l 0,50 c 0,38.42744 14.456,73.45977 38.219,100 -23.763,26.5402 -38.219,61.57243 -38.219,100 l 0,100 c 0,82.84271 67.157,150 150,150 27.614,0 50,22.3858 50,50 l 0,50 c 0,27.614 -22.386,50 -50,50 -27.614,0 -50,-22.386 -50,-50 l 0,-50 -100,0 0,50 c 0,82.843 67.157,150 150,150 82.843,0 150,-67.157 150,-150 l 0,-50 c 0,-38.42743 -14.456,-73.45977 -38.219,-100 23.763,-26.5402 38.219,-61.57243 38.219,-100 l 0,-100 c 0,-82.8427 -67.157,-150 -150,-150 -27.614,0 -50,-22.38576 -50,-50 l 0,-50 c 0,-27.61424 22.386,-50 50,-50 27.614,0 50,22.38576 50,50 l 0,50 100,0 0,-50 c 0,-82.84271 -67.157,-150 -150,-150 z m 0,350 c 27.614,0 50,22.3858 50,50 l 0,100 c 0,27.614 -22.386,50 -50,50 -27.614,0 -50,-22.38576 -50,-50 l 0,-100 c 0,-27.614 22.386,-50 50,-50 z"
     id="path3016" />
  <path
     style="opacity:0.98000004;fill:#4080c0;fill-opacity:0.69803922;stroke:none"
     d="m 28500,100 c -55.228,0 -100,44.772 -100,100 l 0,200 c 0,55.228 44.772,100 100,100 l 0,500 100,0 0,-800 100,0 0,800 100,0 0,-900 -300,0 z"
     id="rect3062"
     sodipodi:nodetypes="cccccccccccc" />
  <rect
     style="opacity:0.98000004;fill:#4080c0;fill-opacity:0.69803922;stroke:none"
     id="rect3079"
     width="500"
     height="100"
     x="28850"
     y="850" />
  <path
     style="opacity:0.98000004;fill:#4080c0;fill-opacity:0.69803922;stroke:none"
     d="m 29500,400 0,100 -100,0 0,100 100,0 0,100 100,0 0,-100 100,0 0,-100 -100,0 0,-100 -100,0 z"
     id="rect3081" />
  <path
     style="opacity:0.98000004;fill:#4080c0;fill-opacity:0.69803922;stroke:none"
     d="m 29750,400 0,100 300,0 0,-100 -300,0 z m 0,200 0,100 300,0 0,-100 -300,0 z"
     id="rect3085" />
  <rect
     style="opacity:0.98000004;fill:#4080c0;fill-opacity:0.69803922;stroke:none"
     id="rect3091"
     width="300"
     height="100"
     x="30100"
     y="500" />
  <rect
     style="opacity:0.98000004;fill:#4080c0;fill-opacity:0.69803922;stroke:none"
     id="rect3093"
     width="100"
     height="100"
     x="30200"
     y="350" />
  <rect
     style="opacity:0.98000004;fill:#4080c0;fill-opacity:0.69803922;stroke:none"
     id="rect3095"
     width="100"
     height="100"
     x="30200"
     y="650" />
  <path
     style="fill:#4080c0;fill-opacity:0.7;stroke:none"
     d="m 31200,100 c -82.843,0 -150,67.15729 -150,150 l 0,400 c 0,82.8427 67.157,150 150,150 17.533,0 34.361,-3.00326 50,-8.53125 l 0,8.53125 300,0 0,-100 -200,0 0,-200 100,0 0,-100 -100,0 0,-200 200,0 0,-100 -300,0 0,8.53125 C 31234.361,103.00326 31217.533,100 31200,100 z m 0,100 c 27.614,0 50,22.3858 50,50 l 0,400 c 0,27.6142 -22.386,50 -50,50 -27.614,0 -50,-22.3858 -50,-50 l 0,-400 c 0,-27.6142 22.386,-50 50,-50 z"
     id="path3097"
     sodipodi:nodetypes="cccsccccccccccccccccccsccc" />
  <path
     style="fill:#4080c0;fill-opacity:0.7;stroke:none"
     d="m 30600,100 -150,700 100,0 42.844,-200 107.156,0 0,200 300,0 0,-100 -200,0 0,-200 100,0 0,-100 -100,0 0,-200 200,0 0,-100 -400,0 z m 78.562,100 21.438,0 0,300 -85.719,0 64.281,-300 z"
     id="path3099"
     sodipodi:nodetypes="cccccccccccccccccccccc" />
  <path
     style="fill:#4080c0;fill-opacity:0.7;stroke:none"
     d="m 31800,100 c -82.843,0 -150,67.15729 -150,150 l 0,150 -50,0 0,100 50,0 0,200 -50,0 0,100 400,0 0,-100 -250,0 0,-200 150,0 0,-100 -150,0 0,-150 c 0,-27.61424 22.386,-50 50,-50 27.614,0 50,22.38576 50,50 l 0,50 100,0 0,-50 c 0,-82.84271 -67.157,-150 -150,-150 z"
     id="path3132" />
  <path
     style="fill:#4080c0;fill-opacity:0.7;stroke:none"
     d="m 32200,100 c -82.843,0 -150,67.15729 -150,150 l 0,600 c 0,82.84271 67.157,150 150,150 l 50,0 0,-100 -50,0 c -27.614,0 -50,-22.38576 -50,-50 l 0,-600 c 0,-27.61424 22.386,-50 50,-50 l 150,0 c 27.614,0 50,22.38576 50,50 l 0,50 -50,0 c -82.843,0 -150,67.1573 -150,150 l 0,250 c 0,55.2285 44.772,100 100,100 55.228,0 100,-44.7715 100,-100 l 0,100 100,0 0,-550 c 0,-82.84271 -67.157,-150 -150,-150 l -150,0 z m 150,300 50,0 0,250 c 0,27.6142 -22.386,50 -50,50 -27.614,0 -50,-22.3858 -50,-50 l 0,-200 c 0,-27.6142 22.386,-50 50,-50 z"
     id="path3213" />
  <rect
     style="opacity:0.98000004;fill:#4080c0;fill-opacity:0.69803922;stroke:none"
     id="rect3263"
     width="500"
     height="100"
     x="32550"
     y="500" />
  <path
     style="opacity:0.98000004;fill:#4080c0;fill-opacity:0.69803922;stroke:none"
     d="m 33100,500 0,100 1000,0 0,-100 -1000,0 z"
     id="rect3280"
     sodipodi:nodetypes="ccccc" />
  <path
     style="fill:#4080c0;fill-opacity:0.7;stroke:none"
     d="m 34400,50 c -82.843,0 -150,67.15729 -150,150 l 0,200 c 0,27.61424 -22.386,50 -50,50 l 0,100 c 27.614,0 50,22.386 50,50 l 0,200 c 0,82.84271 67.157,150 150,150 l 0,-100 c -27.614,0 -50,-22.38576 -50,-50 l 0,-200 c 0,-38.42757 -14.456,-73.4598 -38.219,-100 23.763,-26.54023 38.219,-61.57256 38.219,-100 l 0,-200 c 0,-27.61424 22.386,-50 50,-50 l 0,-100 z"
     id="path3308"
     sodipodi:nodetypes="cccccccccccccccc" />
  <rect
     style="opacity:0.98000004;fill:#4080c0;fill-opacity:0.69803922;stroke:none"
     id="rect3297"
     width="50"
     height="0"
     x="34500"
     y="200" />
  <path
     style="opacity:0.98000004;fill:#4080c0;fill-opacity:0.69803922;stroke:none"
     d="m 34450,50 0,900 50,0 50,0 50,0 0,-100 -50,0 0,-700 50,0 0,-100 -50,0 -50,0 -50,0 z"
     id="rect3315" />
  <path
     sodipodi:nodetypes="cccccccccccccccc"
     id="path3323"
     d="m 34850,50 c 82.843,0 150,67.15729 150,150 l 0,200 c 0,27.61424 22.386,50 50,50 l 0,100 c -27.614,0 -50,22.386 -50,50 l 0,200 c 0,82.84271 -67.157,150 -150,150 l 0,-100 c 27.614,0 50,-22.38576 50,-50 l 0,-200 c 0,-38.42757 14.456,-73.4598 38.219,-100 C 34914.456,473.45977 34900,438.42744 34900,400 l 0,-200 c 0,-27.61424 -22.386,-50 -50,-50 l 0,-100 z"
     style="fill:#4080c0;fill-opacity:0.7;stroke:none" />
  <path
     id="path3325"
     d="m 34800,50 0,900 -50,0 -50,0 -50,0 0,-100 50,0 0,-700 -50,0 0,-100 50,0 50,0 50,0 z"
     style="opacity:0.98000004;fill:#4080c0;fill-opacity:0.69803922;stroke:none" />
  <path
     style="fill:#4080c0;fill-opacity:0.7;stroke:none"
     d="M 35300 300 C 35217.157 300 35150 367.15729 35150 450 L 35150 650 C 35150 681.39511 35159.668 710.53689 35176.156 734.625 L 35150 800 L 35250 800 L 35253 792.5 C 35267.782 797.37206 35283.587 800 35300 800 C 35382.843 800 35450 732.84271 35450 650 L 35450 450 C 35450 418.60489 35440.332 389.46311 35423.844 365.375 L 35450 300 L 35350 300 L 35347 307.5 C 35332.218 302.62794 35316.413 300 35300 300 z M 35300 400 C 35303.296 400 35306.507 400.32874 35309.625 400.9375 L 35250 550 L 35250 450 C 35250 422.38576 35272.386 400 35300 400 z M 35350 550 L 35350 650 C 35350 677.61424 35327.614 700 35300 700 C 35296.704 700 35293.493 699.67126 35290.375 699.0625 L 35350 550 z "
     id="path2941" />
  <path
     style="fill:#4080c0;fill-opacity:0.7;stroke:none"
     d="M 35650 100 C 35567.157 100 35500 167.15729 35500 250 L 35500 650 C 35500 677.96281 35507.677 704.12211 35521 726.53125 L 35500 800 L 35600 800 L 35602.219 792.25 C 35617.222 797.28639 35633.3 800 35650 800 C 35732.843 800 35800 732.84271 35800 650 L 35800 250 C 35800 222.03719 35792.323 195.87789 35779 173.46875 L 35800 100 L 35700 100 L 35697.781 107.75 C 35682.778 102.71361 35666.7 100 35650 100 z M 35650 200 C 35657.196 200 35664.036 201.54449 35670.219 204.28125 L 35600 450 L 35600 250 C 35600 222.38576 35622.386 200 35650 200 z M 35700 450 L 35700 650 C 35700 677.61424 35677.614 700 35650 700 C 35642.804 700 35635.964 698.45551 35629.781 695.71875 L 35700 450 z "
     id="path2943" />
  <path
     sodipodi:nodetypes="ccccc"
     id="path2963"
     d="m 36050,100 100,0 -200,700 -100,0 200,-700 z"
     style="opacity:0.98000004;fill:#4080c0;fill-opacity:0.69803922;stroke:none" />
  <path
     style="opacity:0.98000004;fill:#4080c0;fill-opacity:0.69803922;stroke:none"
     d="M 36200 400 L 36200 500 L 36350 550 L 36200 600 L 36200 700 L 36500 600 L 36500 500 L 36200 400 z "
     id="path2968" />
  <path
     id="path2971"
     d="m 36850,400 0,100 -150,50 150,50 0,100 -300,-100 0,-100 300,-100 z"
     style="opacity:0.98000004;fill:#4080c0;fill-opacity:0.69803922;stroke:none" />
  <path
     style="opacity:0.98000004;fill:#4080c0;fill-opacity:0.69803922;stroke:none"
     d="m 37000,100 -100,0 200,700 100,0 -200,-700 z"
     id="path2973"
     sodipodi:nodetypes="ccccc" />
  <path
     style="opacity:0.98000004;fill:#4080c0;fill-opacity:0.69803922;stroke:none"
     d="m 38150,50 0,900 -100,0 0,-900 100,0 z"
     id="path2975"
     sodipodi:nodetypes="ccccc" />
  <path
     style="fill:#4080c0;fill-opacity:0.7;stroke:none"
     d="M 37500 100 L 37500 400 L 37450 400 L 37450 500 L 37500 500 L 37500 800 L 37650 800 C 37732.843 800 37800 732.84271 37800 650 L 37800 250 C 37800 167.157 37732.843 100 37650 100 L 37500 100 z M 37600 200 L 37650 200 C 37677.614 200 37700 222.386 37700 250 L 37700 650 C 37700 677.61424 37677.614 700 37650 700 L 37600 700 L 37600 500 L 37650 500 L 37650 400 L 37600 400 L 37600 200 z "
     id="path2977" />
  <path
     style="opacity:0.98000004;fill:#4080c0;fill-opacity:0.69803922;stroke:none"
     d="M 37900 50 L 37900 400 L 38000 400 L 38000 50 L 37900 50 z M 37900 600 L 37900 950 L 38000 950 L 38000 600 L 37900 600 z "
     id="path2979" />
  <path
     id="path2987"
     d="m 38600,200 c 0,55.22847 -44.772,100 -100,100 -55.228,0 -100,-44.77153 -100,-100 0,-55.22847 44.772,-100 100,-100 55.228,0 100,44.77153 100,100 z"
     style="fill:#4080c0;fill-opacity:0.7;stroke:none" />
  <path
     sodipodi:nodetypes="ccccc"
     id="path2989"
     d="m 38700,100 100,0 -300,700 -100,0 300,-700 z"
     style="opacity:0.98000004;fill:#4080c0;fill-opacity:0.69803922;stroke:none" />
  <path
     style="fill:#4080c0;fill-opacity:0.7;stroke:none"
     d="m 38800,700 c 0,55.22847 -44.772,100 -100,100 -55.228,0 -100,-44.77153 -100,-100 0,-55.22847 44.772,-100 100,-100 55.228,0 100,44.77153 100,100 z"
     id="path2991" />
  <path
     style="fill:#4080c0;fill-opacity:0.7;stroke:none"
     d="m 39300,200 c 0,55.22847 -44.772,100 -100,100 -55.228,0 -100,-44.77153 -100,-100 0,-55.22847 44.772,-100 100,-100 55.228,0 100,44.77153 100,100 z"
     id="path2993" />
  <path
     style="opacity:0.98000004;fill:#4080c0;fill-opacity:0.69803922;stroke:none"
     d="m 39400,100 100,0 -300,700 -100,0 300,-700 z"
     id="path2995"
     sodipodi:nodetypes="ccccc" />
  <path
     id="path2997"
     d="m 39500,700 c 0,55.22847 -44.772,100 -100,100 -55.228,0 -100,-44.77153 -100,-100 0,-55.22847 44.772,-100 100,-100 55.228,0 100,44.77153 100,100 z"
     style="fill:#4080c0;fill-opacity:0.7;stroke:none" />
  <path
     style="fill:#4080c0;fill-opacity:0.7;stroke:none"
     d="m 39750,700 c 0,55.22847 -44.772,100 -100,100 -55.228,0 -100,-44.77153 -100,-100 0,-55.22847 44.772,-100 100,-100 55.228,0 100,44.77153 100,100 z"
     id="path3000" />
  <path
     style="fill:#4080c0;fill-opacity:0.7;stroke:none"
     d="M 39900 50 L 39900 108.53125 C 39841.741 129.12359 39800 184.68975 39800 250 L 39800 350 C 39800 432.84271 39867.157 500 39950 500 C 39977.614 500 40000 522.3858 40000 550 L 40000 650 C 40000 677.61424 39977.614 700 39950 700 C 39922.386 700 39900 677.61424 39900 650 L 39900 600 L 39800 600 L 39800 650 C 39800 715.31025 39841.741 770.87641 39900 791.46875 L 39900 850 L 40000 850 L 40000 791.46875 C 40058.259 770.87641 40100 715.31025 40100 650 L 40100 550 C 40100 467.1573 40032.843 400 39950 400 C 39922.386 400 39900 377.61424 39900 350 L 39900 250 C 39900 222.38576 39922.386 200 39950 200 C 39977.614 200 40000 222.38576 40000 250 L 40000 300 L 40100 300 L 40100 250 C 40100 184.68975 40058.259 129.12359 40000 108.53125 L 40000 50 L 39900 50 z "
     id="path3002" />
  <path
     style="fill:#4080c0;fill-opacity:0.7;stroke:none"
     d="M 40250 250 L 40250 308.53125 C 40191.741 329.12359 40150 384.68975 40150 450 L 40150 650 C 40150 715.31025 40191.741 770.87641 40250 791.46875 L 40250 850 L 40350 850 L 40350 791.46875 C 40408.259 770.87641 40450 715.31025 40450 650 L 40350 650 C 40350 677.61424 40327.614 700 40300 700 C 40272.386 700 40250 677.61424 40250 650 L 40250 450 C 40250 422.38576 40272.386 400 40300 400 C 40327.614 400 40350 422.38576 40350 450 L 40450 450 C 40450 384.68975 40408.259 329.12359 40350 308.53125 L 40350 250 L 40250 250 z "
     id="path3012" />
</svg>
