  0
SECTION
  2
HEADER
  9
$ACADVER
  1
AC1018
  9
$ACADMAINTVER
 70
     0
  9
$DWGCODEPAGE
  3
ANSI_1252
  9
$INSBASE
 10
0.0
 20
0.0
 30
0.0
  9
$EXTMIN
 10
1.000000000000000E+20
 20
1.000000000000000E+20
 30
1.000000000000000E+20
  9
$EXTMAX
 10
-1.000000000000000E+20
 20
-1.000000000000000E+20
 30
-1.000000000000000E+20
  9
$LIMMIN
 10
0.0
 20
0.0
  9
$LIMMAX
 10
12.0
 20
9.0
  9
$ORTHOMODE
 70
     0
  9
$REGENMODE
 70
     1
  9
$FILLMODE
 70
     1
  9
$QTEXTMODE
 70
     0
  9
$MIRRTEXT
 70
     1
  9
$LTSCALE
 40
1.0
  9
$ATTMODE
 70
     1
  9
$TEXTSIZE
 40
0.2
  9
$TRACEWID
 40
0.05
  9
$TEXTSTYLE
  7
Standard
  9
$CLAYER
  8
0
  9
$CELTYPE
  6
ByLayer
  9
$CECOLOR
 62
   256
  9
$CELTSCALE
 40
1.0
  9
$DISPSILH
 70
     0
  9
$DIMSCALE
 40
1.0
  9
$DIMASZ
 40
0.18
  9
$DIMEXO
 40
0.0625
  9
$DIMDLI
 40
0.38
  9
$DIMRND
 40
0.0
  9
$DIMDLE
 40
0.0
  9
$DIMEXE
 40
0.18
  9
$DIMTP
 40
0.0
  9
$DIMTM
 40
0.0
  9
$DIMTXT
 40
0.18
  9
$DIMCEN
 40
0.09
  9
$DIMTSZ
 40
0.0
  9
$DIMTOL
 70
     0
  9
$DIMLIM
 70
     0
  9
$DIMTIH
 70
     1
  9
$DIMTOH
 70
     1
  9
$DIMSE1
 70
     0
  9
$DIMSE2
 70
     0
  9
$DIMTAD
 70
     0
  9
$DIMZIN
 70
     0
  9
$DIMBLK
  1

  9
$DIMASO
 70
     1
  9
$DIMSHO
 70
     1
  9
$DIMPOST
  1

  9
$DIMAPOST
  1

  9
$DIMALT
 70
     0
  9
$DIMALTD
 70
     2
  9
$DIMALTF
 40
25.4
  9
$DIMLFAC
 40
1.0
  9
$DIMTOFL
 70
     0
  9
$DIMTVP
 40
0.0
  9
$DIMTIX
 70
     0
  9
$DIMSOXD
 70
     0
  9
$DIMSAH
 70
     0
  9
$DIMBLK1
  1

  9
$DIMBLK2
  1

  9
$DIMSTYLE
  2
Standard
  9
$DIMCLRD
 70
     0
  9
$DIMCLRE
 70
     0
  9
$DIMCLRT
 70
     0
  9
$DIMTFAC
 40
1.0
  9
$DIMGAP
 40
0.09
  9
$DIMJUST
 70
     0
  9
$DIMSD1
 70
     0
  9
$DIMSD2
 70
     0
  9
$DIMTOLJ
 70
     1
  9
$DIMTZIN
 70
     0
  9
$DIMALTZ
 70
     0
  9
$DIMALTTZ
 70
     0
  9
$DIMUPT
 70
     0
  9
$DIMDEC
 70
     4
  9
$DIMTDEC
 70
     4
  9
$DIMALTU
 70
     2
  9
$DIMALTTD
 70
     2
  9
$DIMTXSTY
  7
Standard
  9
$DIMAUNIT
 70
     0
  9
$DIMADEC
 70
     0
  9
$DIMALTRND
 40
0.0
  9
$DIMAZIN
 70
     0
  9
$DIMDSEP
 70
    46
  9
$DIMATFIT
 70
     3
  9
$DIMFRAC
 70
     0
  9
$DIMLDRBLK
  1

  9
$DIMLUNIT
 70
     2
  9
$DIMLWD
 70
    -2
  9
$DIMLWE
 70
    -2
  9
$DIMTMOVE
 70
     0
  9
$LUNITS
 70
     2
  9
$LUPREC
 70
     4
  9
$SKETCHINC
 40
0.1
  9
$FILLETRAD
 40
0.5
  9
$AUNITS
 70
     0
  9
$AUPREC
 70
     0
  9
$MENU
  1
.
  9
$ELEVATION
 40
0.0
  9
$PELEVATION
 40
0.0
  9
$THICKNESS
 40
0.0
  9
$LIMCHECK
 70
     0
  9
$CHAMFERA
 40
0.5
  9
$CHAMFERB
 40
0.5
  9
$CHAMFERC
 40
1.0
  9
$CHAMFERD
 40
0.0
  9
$SKPOLY
 70
     0
  9
$TDCREATE
 40
2456500.789769248
  9
$TDUCREATE
 40
2456500.706435914
  9
$TDUPDATE
 40
2456500.789769259
  9
$TDUUPDATE
 40
2456500.706435926
  9
$TDINDWG
 40
0.0000000116
  9
$TDUSRTIMER
 40
0.0000000116
  9
$USRTIMER
 70
     1
  9
$ANGBASE
 50
0.0
  9
$ANGDIR
 70
     0
  9
$PDMODE
 70
     0
  9
$PDSIZE
 40
0.0
  9
$PLINEWID
 40
0.0
  9
$SPLFRAME
 70
     0
  9
$SPLINETYPE
 70
     6
  9
$SPLINESEGS
 70
     8
  9
$HANDSEED
  5
7A
  9
$SURFTAB1
 70
     6
  9
$SURFTAB2
 70
     6
  9
$SURFTYPE
 70
     6
  9
$SURFU
 70
     6
  9
$SURFV
 70
     6
  9
$UCSBASE
  2

  9
$UCSNAME
  2

  9
$UCSORG
 10
0.0
 20
0.0
 30
0.0
  9
$UCSXDIR
 10
1.0
 20
0.0
 30
0.0
  9
$UCSYDIR
 10
0.0
 20
1.0
 30
0.0
  9
$UCSORTHOREF
  2

  9
$UCSORTHOVIEW
 70
     0
  9
$UCSORGTOP
 10
0.0
 20
0.0
 30
0.0
  9
$UCSORGBOTTOM
 10
0.0
 20
0.0
 30
0.0
  9
$UCSORGLEFT
 10
0.0
 20
0.0
 30
0.0
  9
$UCSORGRIGHT
 10
0.0
 20
0.0
 30
0.0
  9
$UCSORGFRONT
 10
0.0
 20
0.0
 30
0.0
  9
$UCSORGBACK
 10
0.0
 20
0.0
 30
0.0
  9
$PUCSBASE
  2

  9
$PUCSNAME
  2

  9
$PUCSORG
 10
0.0
 20
0.0
 30
0.0
  9
$PUCSXDIR
 10
1.0
 20
0.0
 30
0.0
  9
$PUCSYDIR
 10
0.0
 20
1.0
 30
0.0
  9
$PUCSORTHOREF
  2

  9
$PUCSORTHOVIEW
 70
     0
  9
$PUCSORGTOP
 10
0.0
 20
0.0
 30
0.0
  9
$PUCSORGBOTTOM
 10
0.0
 20
0.0
 30
0.0
  9
$PUCSORGLEFT
 10
0.0
 20
0.0
 30
0.0
  9
$PUCSORGRIGHT
 10
0.0
 20
0.0
 30
0.0
  9
$PUCSORGFRONT
 10
0.0
 20
0.0
 30
0.0
  9
$PUCSORGBACK
 10
0.0
 20
0.0
 30
0.0
  9
$USERI1
 70
     0
  9
$USERI2
 70
     0
  9
$USERI3
 70
     0
  9
$USERI4
 70
     0
  9
$USERI5
 70
     0
  9
$USERR1
 40
0.0
  9
$USERR2
 40
0.0
  9
$USERR3
 40
0.0
  9
$USERR4
 40
0.0
  9
$USERR5
 40
0.0
  9
$WORLDVIEW
 70
     1
  9
$SHADEDGE
 70
     3
  9
$SHADEDIF
 70
    70
  9
$TILEMODE
 70
     1
  9
$MAXACTVP
 70
    64
  9
$PINSBASE
 10
0.0
 20
0.0
 30
0.0
  9
$PLIMCHECK
 70
     0
  9
$PEXTMIN
 10
1.000000000000000E+20
 20
1.000000000000000E+20
 30
1.000000000000000E+20
  9
$PEXTMAX
 10
-1.000000000000000E+20
 20
-1.000000000000000E+20
 30
-1.000000000000000E+20
  9
$PLIMMIN
 10
0.0
 20
0.0
  9
$PLIMMAX
 10
12.0
 20
9.0
  9
$UNITMODE
 70
     0
  9
$VISRETAIN
 70
     1
  9
$PLINEGEN
 70
     0
  9
$PSLTSCALE
 70
     1
  9
$TREEDEPTH
 70
  3020
  9
$CMLSTYLE
  2
Standard
  9
$CMLJUST
 70
     0
  9
$CMLSCALE
 40
1.0
  9
$PROXYGRAPHICS
 70
     1
  9
$MEASUREMENT
 70
     0
  9
$CELWEIGHT
370
    -1
  9
$ENDCAPS
280
     0
  9
$JOINSTYLE
280
     0
  9
$LWDISPLAY
290
     1
  9
$INSUNITS
 70
     1
  9
$HYPERLINKBASE
  1

  9
$STYLESHEET
  1

  9
$XEDIT
290
     1
  9
$CEPSNTYPE
380
     0
  9
$PSTYLEMODE
290
     1
  9
$FINGERPRINTGUID
  2
{A1819839-C6DF-434E-B7E2-D99CACD19EC7}
  9
$VERSIONGUID
  2
{FAEB1C32-E019-11D5-929B-00C0DF256EC4}
  9
$EXTNAMES
290
     1
  9
$PSVPSCALE
 40
0.0
  9
$OLESTARTUP
290
     0
  9
$SORTENTS
280
   127
  9
$INDEXCTL
280
     0
  9
$HIDETEXT
280
     1
  9
$XCLIPFRAME
290
     0
  9
$HALOGAP
280
     0
  9
$OBSCOLOR
 70
   257
  9
$OBSLTYPE
280
     0
  9
$INTERSECTIONDISPLAY
280
     0
  9
$INTERSECTIONCOLOR
 70
   257
  9
$DIMASSOC
280
     2
  9
$PROJECTNAME
  1

  0
ENDSEC
  0
SECTION
  2
CLASSES
  0
CLASS
  1
ACDBDICTIONARYWDFLT
  2
AcDbDictionaryWithDefault
  3
ObjectDBX Classes
 90
        0
 91
        3
280
     0
281
     0
  0
CLASS
  1
VISUALSTYLE
  2
AcDbVisualStyle
  3
ObjectDBX Classes
 90
     4095
 91
        3
280
     0
281
     0
  0
ENDSEC
  0
SECTION
  2
TABLES
  0
TABLE
  2
VPORT
  5
8
330
0
100
AcDbSymbolTable
 70
     1
  0
VPORT
  5
29
330
8
100
AcDbSymbolTableRecord
100
AcDbViewportTableRecord
  2
*Active
 70
     0
 10
0.0
 20
0.0
 11
1.0
 21
1.0
 12
0.0
 22
0.0
 13
0.0
 23
0.0
 14
0.5
 24
0.5
 15
0.5
 25
0.5
 16
0.0
 26
0.0
 36
1.0
 17
3.06
 27
3.96
 37
0.0
 40
7.92
 41
0.7727272727272727
 42
50.0
 43
0.0
 44
0.0
 50
0.0
 51
0.0
 71
     0
 72
   100
 73
     1
 74
     3
 75
     0
 76
     0
 77
     0
 78
     0
281
     0
 65
     1
110
0.0
120
0.0
130
0.0
111
1.0
121
0.0
131
0.0
112
0.0
122
1.0
132
0.0
 79
     0
146
0.0
  0
ENDTAB
  0
TABLE
  2
LTYPE
  5
5
330
0
100
AcDbSymbolTable
 70
     1
  0
LTYPE
  5
14
330
5
100
AcDbSymbolTableRecord
100
AcDbLinetypeTableRecord
  2
ByBlock
 70
     0
  3

 72
    65
 73
     0
 40
0.0
  0
LTYPE
  5
15
330
5
100
AcDbSymbolTableRecord
100
AcDbLinetypeTableRecord
  2
ByLayer
 70
     0
  3

 72
    65
 73
     0
 40
0.0
  0
LTYPE
  5
16
330
5
100
AcDbSymbolTableRecord
100
AcDbLinetypeTableRecord
  2
Continuous
 70
     0
  3
Solid line
 72
    65
 73
     0
 40
0.0
  0
ENDTAB
  0
TABLE
  2
LAYER
  5
2
330
0
100
AcDbSymbolTable
 70
     2
  0
LAYER
  5
10
330
2
100
AcDbSymbolTableRecord
100
AcDbLayerTableRecord
  2
0
 70
     0
 62
     7
  6
Continuous
370
    -3
390
F
  0
LAYER
  5
3B
330
2
100
AcDbSymbolTableRecord
100
AcDbLayerTableRecord
  2
Layer 1
 70
     0
 62
     7
  6
Continuous
370
    -3
390
F
  0
ENDTAB
  0
TABLE
  2
STYLE
  5
3
330
0
100
AcDbSymbolTable
 70
     1
  0
STYLE
  5
11
330
3
100
AcDbSymbolTableRecord
100
AcDbTextStyleTableRecord
  2
Standard
 70
     0
 40
0.0
 41
1.0
 50
0.0
 71
     0
 42
0.2
  3
txt
  4

  0
ENDTAB
  0
TABLE
  2
VIEW
  5
6
330
0
100
AcDbSymbolTable
 70
     0
  0
ENDTAB
  0
TABLE
  2
UCS
  5
7
330
0
100
AcDbSymbolTable
 70
     0
  0
ENDTAB
  0
TABLE
  2
APPID
  5
9
330
0
100
AcDbSymbolTable
 70
     1
  0
APPID
  5
12
330
9
100
AcDbSymbolTableRecord
100
AcDbRegAppTableRecord
  2
ACAD
 70
     0
  0
ENDTAB
  0
TABLE
  2
DIMSTYLE
  5
A
330
0
100
AcDbSymbolTable
 70
     1
100
AcDbDimStyleTable
  0
DIMSTYLE
105
27
330
A
100
AcDbSymbolTableRecord
100
AcDbDimStyleTableRecord
  2
Standard
 70
     0
340
11
  0
ENDTAB
  0
TABLE
  2
BLOCK_RECORD
  5
1
330
0
100
AcDbSymbolTable
 70
     2
  0
BLOCK_RECORD
  5
1F
330
1
100
AcDbSymbolTableRecord
100
AcDbBlockTableRecord
  2
*Model_Space
340
22
  0
BLOCK_RECORD
  5
1B
330
1
100
AcDbSymbolTableRecord
100
AcDbBlockTableRecord
  2
*Paper_Space
340
1E
  0
BLOCK_RECORD
  5
23
330
1
100
AcDbSymbolTableRecord
100
AcDbBlockTableRecord
  2
*Paper_Space0
340
26
  0
BLOCK_RECORD
  5
3C
330
1
100
AcDbSymbolTableRecord
100
AcDbBlockTableRecord
  2
block 2
340
0
102
{BLKREFS
331
3D
102
}
  0
ENDTAB
  0
ENDSEC
  0
SECTION
  2
BLOCKS
  0
BLOCK
  5
20
330
1F
100
AcDbEntity
  8
0
100
AcDbBlockBegin
  2
*Model_Space
 70
     0
 71
     0
 10
0.0
 20
0.0
 30
0.0
  3
*Model_Space
  1

  0
ENDBLK
  5
21
330
1F
100
AcDbEntity
  8
0
100
AcDbBlockEnd
  0
BLOCK
  5
1C
330
1B
100
AcDbEntity
 67
     1
  8
0
100
AcDbBlockBegin
  2
*Paper_Space
 70
     0
 71
     0
 10
0.0
 20
0.0
 30
0.0
  3
*Paper_Space
  1

  0
ENDBLK
  5
1D
330
1B
100
AcDbEntity
 67
     1
  8
0
100
AcDbBlockEnd
  0
BLOCK
  5
24
330
23
100
AcDbEntity
  8
0
100
AcDbBlockBegin
  2
*Paper_Space0
 70
     0
 71
     0
 10
0.0
 20
0.0
 30
0.0
  3
*Paper_Space0
  1

  0
ENDBLK
  5
25
330
23
100
AcDbEntity
  8
0
100
AcDbBlockEnd
  0
BLOCK
  5
3E
330
3C
100
AcDbEntity
  8
0
100
AcDbBlockBegin
  2
block 2
 70
     0
 71
     0
 10
0.0
 20
0.0
 30
0.0
  3
block 2
  1

  0
SPLINE
  5
40
330
3C
100
AcDbEntity
  8
Layer 1
370
     0
100
AcDbSpline
210
0.0
220
0.0
230
1.0
 70
    11
 71
     3
 72
    62
 73
    58
 74
     0
 42
0.0000000001
 43
0.0000000001
 40
0.0
 40
0.0
 40
0.0
 40
0.0
 40
1.0
 40
1.0
 40
1.0
 40
2.0
 40
2.0
 40
2.0
 40
3.0
 40
3.0
 40
3.0
 40
4.0
 40
4.0
 40
4.0
 40
5.0
 40
5.0
 40
5.0
 40
6.0
 40
6.0
 40
6.0
 40
7.0
 40
7.0
 40
7.0
 40
8.0
 40
8.0
 40
8.0
 40
9.0
 40
9.0
 40
9.0
 40
10.0
 40
10.0
 40
10.0
 40
11.0
 40
11.0
 40
11.0
 40
12.0
 40
12.0
 40
12.0
 40
13.0
 40
13.0
 40
13.0
 40
14.0
 40
14.0
 40
14.0
 40
15.0
 40
15.0
 40
15.0
 40
16.0
 40
16.0
 40
16.0
 40
17.0
 40
17.0
 40
17.0
 40
18.0
 40
18.0
 40
18.0
 40
19.0
 40
19.0
 40
19.0
 40
19.0
 10
2.5791015625
 20
3.458955078125
 30
0.0
 10
2.5966796875
 20
3.458955078125
 30
0.0
 10
2.6094091796875
 20
3.466884765625
 30
0.0
 10
2.6176611328125
 20
3.47765625
 30
0.0
 10
2.6255908203125
 20
3.4878125
 30
0.0
 10
2.6278515625
 20
3.4971875
 30
0.0
 10
2.6278515625
 20
3.532314453125
 30
0.0
 10
2.6278515625
 20
3.567744140625
 30
0.0
 10
2.6255908203125
 20
3.5770703125
 30
0.0
 10
2.6176611328125
 20
3.587275390625
 30
0.0
 10
2.6094091796875
 20
3.598046875
 30
0.0
 10
2.5966796875
 20
3.6059765625
 30
0.0
 10
2.5791015625
 20
3.6059765625
 30
0.0
 10
2.5643798828125
 20
3.6059765625
 30
0.0
 10
2.5510498046875
 20
3.5991796875
 30
0.0
 10
2.5419921875
 20
3.5892578125
 30
0.0
 10
2.5419921875
 20
3.5892578125
 30
0.0
 10
2.5419921875
 20
3.604296875
 30
0.0
 10
2.5419921875
 20
3.604296875
 30
0.0
 10
2.5419921875
 20
3.604296875
 30
0.0
 10
2.51296875
 20
3.604296875
 30
0.0
 10
2.51296875
 20
3.604296875
 30
0.0
 10
2.51296875
 20
3.604296875
 30
0.0
 10
2.51296875
 20
3.23375
 30
0.0
 10
2.51296875
 20
3.23375
 30
0.0
 10
2.51296875
 20
3.23375
 30
0.0
 10
2.5418798828125
 20
3.23375
 30
0.0
 10
2.5418798828125
 20
3.23375
 30
0.0
 10
2.5418798828125
 20
3.23375
 30
0.0
 10
2.5418798828125
 20
3.319296875
 30
0.0
 10
2.5418798828125
 20
3.319296875
 30
0.0
 10
2.5418798828125
 20
3.3388671875
 30
0.0
 10
2.5540576171875
 20
3.350205078125
 30
0.0
 10
2.5705078125
 20
3.350205078125
 30
0.0
 10
2.586640625
 20
3.350205078125
 30
0.0
 10
2.598828125
 20
3.3388671875
 30
0.0
 10
2.598828125
 20
3.319296875
 30
0.0
 10
2.598828125
 20
3.319296875
 30
0.0
 10
2.598828125
 20
3.23375
 30
0.0
 10
2.598828125
 20
3.23375
 30
0.0
 10
2.598828125
 20
3.23375
 30
0.0
 10
2.6277294921875
 20
3.23375
 30
0.0
 10
2.6277294921875
 20
3.23375
 30
0.0
 10
2.6277294921875
 20
3.23375
 30
0.0
 10
2.6277294921875
 20
3.3292578125
 30
0.0
 10
2.6277294921875
 20
3.3292578125
 30
0.0
 10
2.6277294921875
 20
3.361796875
 30
0.0
 10
2.6022314453125
 20
3.3791015625
 30
0.0
 10
2.5798388671875
 20
3.3791015625
 30
0.0
 10
2.5645703125
 20
3.3791015625
 30
0.0
 10
2.5515185546875
 20
3.3734375
 30
0.0
 10
2.5418798828125
 20
3.362109375
 30
0.0
 10
2.5418798828125
 20
3.362109375
 30
0.0
 10
2.5419921875
 20
3.4759375
 30
0.0
 10
2.5419921875
 20
3.4759375
 30
0.0
 10
2.5527685546875
 20
3.4657421875
 30
0.0
 10
2.5643798828125
 20
3.458955078125
 30
0.0
 10
2.5791015625
 20
3.458955078125
 30
0.0
  0
SPLINE
  5
41
330
3C
100
AcDbEntity
  8
Layer 1
370
     0
100
AcDbSpline
210
0.0
220
0.0
230
1.0
 70
    11
 71
     3
 72
    17
 73
    13
 74
     0
 42
0.0000000001
 43
0.0000000001
 40
0.0
 40
0.0
 40
0.0
 40
0.0
 40
1.0
 40
1.0
 40
1.0
 40
2.0
 40
2.0
 40
2.0
 40
3.0
 40
3.0
 40
3.0
 40
4.0
 40
4.0
 40
4.0
 40
4.0
 10
2.5703125
 20
3.5770703125
 30
0.0
 10
2.5975390625
 20
3.5770703125
 30
0.0
 10
2.5989501953125
 20
3.5547265625
 30
0.0
 10
2.5989501953125
 20
3.532314453125
 30
0.0
 10
2.5989501953125
 20
3.510244140625
 30
0.0
 10
2.5975390625
 20
3.4878125
 30
0.0
 10
2.5703125
 20
3.4878125
 30
0.0
 10
2.5433984375
 20
3.4878125
 30
0.0
 10
2.5419921875
 20
3.511640625
 30
0.0
 10
2.5419921875
 20
3.532314453125
 30
0.0
 10
2.5419921875
 20
3.55328125
 30
0.0
 10
2.5433984375
 20
3.5770703125
 30
0.0
 10
2.5703125
 20
3.5770703125
 30
0.0
  0
HATCH
  5
42
330
3C
100
AcDbEntity
  8
Layer 1
 62
   134
420
    39344
100
AcDbHatch
 10
0.0
 20
0.0
 30
0.0
210
0.0
220
0.0
230
1.0
  2
SOLID
 70
     1
 71
     0
 91
        2
 92
        1
 93
        1
 72
     4
 94
        3
 73
     0
 74
     1
 95
       62
 96
       58
 40
0.0
 40
0.0
 40
0.0
 40
0.0
 40
1.0
 40
1.0
 40
1.0
 40
2.0
 40
2.0
 40
2.0
 40
3.0
 40
3.0
 40
3.0
 40
4.0
 40
4.0
 40
4.0
 40
5.0
 40
5.0
 40
5.0
 40
6.0
 40
6.0
 40
6.0
 40
7.0
 40
7.0
 40
7.0
 40
8.0
 40
8.0
 40
8.0
 40
9.0
 40
9.0
 40
9.0
 40
10.0
 40
10.0
 40
10.0
 40
11.0
 40
11.0
 40
11.0
 40
12.0
 40
12.0
 40
12.0
 40
13.0
 40
13.0
 40
13.0
 40
14.0
 40
14.0
 40
14.0
 40
15.0
 40
15.0
 40
15.0
 40
16.0
 40
16.0
 40
16.0
 40
17.0
 40
17.0
 40
17.0
 40
18.0
 40
18.0
 40
18.0
 40
19.0
 40
19.0
 40
19.0
 40
19.0
 10
2.5791015625
 20
3.458955078125
 10
2.5966796875
 20
3.458955078125
 10
2.6094091796875
 20
3.466884765625
 10
2.6176611328125
 20
3.47765625
 10
2.6255908203125
 20
3.4878125
 10
2.6278515625
 20
3.4971875
 10
2.6278515625
 20
3.532314453125
 10
2.6278515625
 20
3.567744140625
 10
2.6255908203125
 20
3.5770703125
 10
2.6176611328125
 20
3.587275390625
 10
2.6094091796875
 20
3.598046875
 10
2.5966796875
 20
3.6059765625
 10
2.5791015625
 20
3.6059765625
 10
2.5643798828125
 20
3.6059765625
 10
2.5510498046875
 20
3.5991796875
 10
2.5419921875
 20
3.5892578125
 10
2.5419921875
 20
3.5892578125
 10
2.5419921875
 20
3.604296875
 10
2.5419921875
 20
3.604296875
 10
2.5419921875
 20
3.604296875
 10
2.51296875
 20
3.604296875
 10
2.51296875
 20
3.604296875
 10
2.51296875
 20
3.604296875
 10
2.51296875
 20
3.23375
 10
2.51296875
 20
3.23375
 10
2.51296875
 20
3.23375
 10
2.5418798828125
 20
3.23375
 10
2.5418798828125
 20
3.23375
 10
2.5418798828125
 20
3.23375
 10
2.5418798828125
 20
3.319296875
 10
2.5418798828125
 20
3.319296875
 10
2.5418798828125
 20
3.3388671875
 10
2.5540576171875
 20
3.350205078125
 10
2.5705078125
 20
3.350205078125
 10
2.586640625
 20
3.350205078125
 10
2.598828125
 20
3.3388671875
 10
2.598828125
 20
3.319296875
 10
2.598828125
 20
3.319296875
 10
2.598828125
 20
3.23375
 10
2.598828125
 20
3.23375
 10
2.598828125
 20
3.23375
 10
2.6277294921875
 20
3.23375
 10
2.6277294921875
 20
3.23375
 10
2.6277294921875
 20
3.23375
 10
2.6277294921875
 20
3.3292578125
 10
2.6277294921875
 20
3.3292578125
 10
2.6277294921875
 20
3.361796875
 10
2.6022314453125
 20
3.3791015625
 10
2.5798388671875
 20
3.3791015625
 10
2.5645703125
 20
3.3791015625
 10
2.5515185546875
 20
3.3734375
 10
2.5418798828125
 20
3.362109375
 10
2.5418798828125
 20
3.362109375
 10
2.5419921875
 20
3.4759375
 10
2.5419921875
 20
3.4759375
 10
2.5527685546875
 20
3.4657421875
 10
2.5643798828125
 20
3.458955078125
 10
2.5791015625
 20
3.458955078125
 97
        0
 92
        1
 93
        1
 72
     4
 94
        3
 73
     0
 74
     1
 95
       17
 96
       13
 40
0.0
 40
0.0
 40
0.0
 40
0.0
 40
1.0
 40
1.0
 40
1.0
 40
2.0
 40
2.0
 40
2.0
 40
3.0
 40
3.0
 40
3.0
 40
4.0
 40
4.0
 40
4.0
 40
4.0
 10
2.5703125
 20
3.5770703125
 10
2.5975390625
 20
3.5770703125
 10
2.5989501953125
 20
3.5547265625
 10
2.5989501953125
 20
3.532314453125
 10
2.5989501953125
 20
3.510244140625
 10
2.5975390625
 20
3.4878125
 10
2.5703125
 20
3.4878125
 10
2.5433984375
 20
3.4878125
 10
2.5419921875
 20
3.511640625
 10
2.5419921875
 20
3.532314453125
 10
2.5419921875
 20
3.55328125
 10
2.5433984375
 20
3.5770703125
 10
2.5703125
 20
3.5770703125
 97
        0
 75
     2
 76
     1
 98
        0
  0
SPLINE
  5
43
330
3C
100
AcDbEntity
  8
Layer 1
370
     0
100
AcDbSpline
210
0.0
220
0.0
230
1.0
 70
    11
 71
     3
 72
    17
 73
    13
 74
     0
 42
0.0000000001
 43
0.0000000001
 40
0.0
 40
0.0
 40
0.0
 40
0.0
 40
1.0
 40
1.0
 40
1.0
 40
2.0
 40
2.0
 40
2.0
 40
3.0
 40
3.0
 40
3.0
 40
4.0
 40
4.0
 40
4.0
 40
4.0
 10
2.5703125
 20
3.4878125
 30
0.0
 10
2.5975390625
 20
3.4878125
 30
0.0
 10
2.5989501953125
 20
3.510244140625
 30
0.0
 10
2.5989501953125
 20
3.532314453125
 30
0.0
 10
2.5989501953125
 20
3.5547265625
 30
0.0
 10
2.5975390625
 20
3.5770703125
 30
0.0
 10
2.5703125
 20
3.5770703125
 30
0.0
 10
2.5433984375
 20
3.5770703125
 30
0.0
 10
2.5419921875
 20
3.55328125
 30
0.0
 10
2.5419921875
 20
3.532314453125
 30
0.0
 10
2.5419921875
 20
3.511640625
 30
0.0
 10
2.5433984375
 20
3.4878125
 30
0.0
 10
2.5703125
 20
3.4878125
 30
0.0
  0
HATCH
  5
44
330
3C
100
AcDbEntity
  8
Layer 1
 62
   134
420
    39344
100
AcDbHatch
 10
0.0
 20
0.0
 30
0.0
210
0.0
220
0.0
230
1.0
  2
SOLID
 70
     1
 71
     0
 91
        1
 92
        1
 93
        1
 72
     4
 94
        3
 73
     0
 74
     1
 95
       17
 96
       13
 40
0.0
 40
0.0
 40
0.0
 40
0.0
 40
1.0
 40
1.0
 40
1.0
 40
2.0
 40
2.0
 40
2.0
 40
3.0
 40
3.0
 40
3.0
 40
4.0
 40
4.0
 40
4.0
 40
4.0
 10
2.5703125
 20
3.4878125
 10
2.5975390625
 20
3.4878125
 10
2.5989501953125
 20
3.510244140625
 10
2.5989501953125
 20
3.532314453125
 10
2.5989501953125
 20
3.5547265625
 10
2.5975390625
 20
3.5770703125
 10
2.5703125
 20
3.5770703125
 10
2.5433984375
 20
3.5770703125
 10
2.5419921875
 20
3.55328125
 10
2.5419921875
 20
3.532314453125
 10
2.5419921875
 20
3.511640625
 10
2.5433984375
 20
3.4878125
 10
2.5703125
 20
3.4878125
 97
        0
 75
     2
 76
     1
 98
        0
  0
SPLINE
  5
45
330
3C
100
AcDbEntity
  8
Layer 1
370
     0
100
AcDbSpline
210
0.0
220
0.0
230
1.0
 70
    11
 71
     3
 72
    32
 73
    28
 74
     0
 42
0.0000000001
 43
0.0000000001
 40
0.0
 40
0.0
 40
0.0
 40
0.0
 40
1.0
 40
1.0
 40
1.0
 40
2.0
 40
2.0
 40
2.0
 40
3.0
 40
3.0
 40
3.0
 40
4.0
 40
4.0
 40
4.0
 40
5.0
 40
5.0
 40
5.0
 40
6.0
 40
6.0
 40
6.0
 40
7.0
 40
7.0
 40
7.0
 40
8.0
 40
8.0
 40
8.0
 40
9.0
 40
9.0
 40
9.0
 40
9.0
 10
3.747890625
 20
3.5453515625
 30
0.0
 10
3.747890625
 20
3.5824609375
 30
0.0
 10
3.720390625
 20
3.6059765625
 30
0.0
 10
3.688671875
 20
3.6059765625
 30
0.0
 10
3.6608984375
 20
3.6059765625
 30
0.0
 10
3.629453125
 20
3.5878515625
 30
0.0
 10
3.629453125
 20
3.53203125
 30
0.0
 10
3.629453125
 20
3.473134765625
 30
0.0
 10
3.66375
 20
3.458955078125
 30
0.0
 10
3.6932421875
 20
3.458955078125
 30
0.0
 10
3.7125
 20
3.458955078125
 30
0.0
 10
3.7308984375
 20
3.4657421875
 30
0.0
 10
3.745078125
 20
3.4821875
 30
0.0
 10
3.745078125
 20
3.4821875
 30
0.0
 10
3.7241015625
 20
3.5
 30
0.0
 10
3.7241015625
 20
3.5
 30
0.0
 10
3.7155859375
 20
3.49125
 30
0.0
 10
3.7037109375
 20
3.4861328125
 30
0.0
 10
3.69265625
 20
3.4861328125
 30
0.0
 10
3.6728125
 20
3.4861328125
 30
0.0
 10
3.658359375
 20
3.498046875
 30
0.0
 10
3.658359375
 20
3.5215625
 30
0.0
 10
3.658359375
 20
3.5215625
 30
0.0
 10
3.747890625
 20
3.5215625
 30
0.0
 10
3.747890625
 20
3.5215625
 30
0.0
 10
3.747890625
 20
3.5215625
 30
0.0
 10
3.747890625
 20
3.5453515625
 30
0.0
 10
3.747890625
 20
3.5453515625
 30
0.0
  0
HATCH
  5
46
330
3C
100
AcDbEntity
  8
Layer 1
 62
   134
420
    39344
100
AcDbHatch
 10
0.0
 20
0.0
 30
0.0
210
0.0
220
0.0
230
1.0
  2
SOLID
 70
     1
 71
     0
 91
        1
 92
        1
 93
        1
 72
     4
 94
        3
 73
     0
 74
     1
 95
       32
 96
       28
 40
0.0
 40
0.0
 40
0.0
 40
0.0
 40
1.0
 40
1.0
 40
1.0
 40
2.0
 40
2.0
 40
2.0
 40
3.0
 40
3.0
 40
3.0
 40
4.0
 40
4.0
 40
4.0
 40
5.0
 40
5.0
 40
5.0
 40
6.0
 40
6.0
 40
6.0
 40
7.0
 40
7.0
 40
7.0
 40
8.0
 40
8.0
 40
8.0
 40
9.0
 40
9.0
 40
9.0
 40
9.0
 10
3.747890625
 20
3.5453515625
 10
3.747890625
 20
3.5824609375
 10
3.720390625
 20
3.6059765625
 10
3.688671875
 20
3.6059765625
 10
3.6608984375
 20
3.6059765625
 10
3.629453125
 20
3.5878515625
 10
3.629453125
 20
3.53203125
 10
3.629453125
 20
3.473134765625
 10
3.66375
 20
3.458955078125
 10
3.6932421875
 20
3.458955078125
 10
3.7125
 20
3.458955078125
 10
3.7308984375
 20
3.4657421875
 10
3.745078125
 20
3.4821875
 10
3.745078125
 20
3.4821875
 10
3.7241015625
 20
3.5
 10
3.7241015625
 20
3.5
 10
3.7155859375
 20
3.49125
 10
3.7037109375
 20
3.4861328125
 10
3.69265625
 20
3.4861328125
 10
3.6728125
 20
3.4861328125
 10
3.658359375
 20
3.498046875
 10
3.658359375
 20
3.5215625
 10
3.658359375
 20
3.5215625
 10
3.747890625
 20
3.5215625
 10
3.747890625
 20
3.5215625
 10
3.747890625
 20
3.5215625
 10
3.747890625
 20
3.5453515625
 10
3.747890625
 20
3.5453515625
 97
        0
 75
     2
 76
     1
 98
        0
  0
SPLINE
  5
47
330
3C
100
AcDbEntity
  8
Layer 1
370
     0
100
AcDbSpline
210
0.0
220
0.0
230
1.0
 70
    11
 71
     3
 72
    35
 73
    31
 74
     0
 42
0.0000000001
 43
0.0000000001
 40
0.0
 40
0.0
 40
0.0
 40
0.0
 40
1.0
 40
1.0
 40
1.0
 40
2.0
 40
2.0
 40
2.0
 40
3.0
 40
3.0
 40
3.0
 40
4.0
 40
4.0
 40
4.0
 40
5.0
 40
5.0
 40
5.0
 40
6.0
 40
6.0
 40
6.0
 40
7.0
 40
7.0
 40
7.0
 40
8.0
 40
8.0
 40
8.0
 40
9.0
 40
9.0
 40
9.0
 40
10.0
 40
10.0
 40
10.0
 40
10.0
 10
3.57171875
 20
3.5770703125
 30
0.0
 10
3.58359375
 20
3.5770703125
 30
0.0
 10
3.5937890625
 20
3.570859375
 30
0.0
 10
3.600859375
 20
3.5620703125
 30
0.0
 10
3.600859375
 20
3.5620703125
 30
0.0
 10
3.622109375
 20
3.581064453125
 30
0.0
 10
3.622109375
 20
3.581064453125
 30
0.0
 10
3.6096484375
 20
3.5955078125
 30
0.0
 10
3.5923828125
 20
3.6059765625
 30
0.0
 10
3.570546875
 20
3.6059765625
 30
0.0
 10
3.537421875
 20
3.6059765625
 30
0.0
 10
3.505390625
 20
3.5850390625
 30
0.0
 10
3.505390625
 20
3.532353515625
 30
0.0
 10
3.505390625
 20
3.4798828125
 30
0.0
 10
3.537421875
 20
3.458955078125
 30
0.0
 10
3.570546875
 20
3.458955078125
 30
0.0
 10
3.5923828125
 20
3.458955078125
 30
0.0
 10
3.6096875
 20
3.469423828125
 30
0.0
 10
3.622109375
 20
3.4838671875
 30
0.0
 10
3.622109375
 20
3.4838671875
 30
0.0
 10
3.600859375
 20
3.5028515625
 30
0.0
 10
3.600859375
 20
3.5028515625
 30
0.0
 10
3.5937890625
 20
3.4940625
 30
0.0
 10
3.58359375
 20
3.4878125
 30
0.0
 10
3.57171875
 20
3.4878125
 30
0.0
 10
3.548203125
 20
3.4878125
 30
0.0
 10
3.534296875
 20
3.501171875
 30
0.0
 10
3.534296875
 20
3.532353515625
 30
0.0
 10
3.534296875
 20
3.5637890625
 30
0.0
 10
3.548203125
 20
3.5770703125
 30
0.0
 10
3.57171875
 20
3.5770703125
 30
0.0
  0
HATCH
  5
48
330
3C
100
AcDbEntity
  8
Layer 1
 62
   134
420
    39344
100
AcDbHatch
 10
0.0
 20
0.0
 30
0.0
210
0.0
220
0.0
230
1.0
  2
SOLID
 70
     1
 71
     0
 91
        1
 92
        1
 93
        1
 72
     4
 94
        3
 73
     0
 74
     1
 95
       35
 96
       31
 40
0.0
 40
0.0
 40
0.0
 40
0.0
 40
1.0
 40
1.0
 40
1.0
 40
2.0
 40
2.0
 40
2.0
 40
3.0
 40
3.0
 40
3.0
 40
4.0
 40
4.0
 40
4.0
 40
5.0
 40
5.0
 40
5.0
 40
6.0
 40
6.0
 40
6.0
 40
7.0
 40
7.0
 40
7.0
 40
8.0
 40
8.0
 40
8.0
 40
9.0
 40
9.0
 40
9.0
 40
10.0
 40
10.0
 40
10.0
 40
10.0
 10
3.57171875
 20
3.5770703125
 10
3.58359375
 20
3.5770703125
 10
3.5937890625
 20
3.570859375
 10
3.600859375
 20
3.5620703125
 10
3.600859375
 20
3.5620703125
 10
3.622109375
 20
3.581064453125
 10
3.622109375
 20
3.581064453125
 10
3.6096484375
 20
3.5955078125
 10
3.5923828125
 20
3.6059765625
 10
3.570546875
 20
3.6059765625
 10
3.537421875
 20
3.6059765625
 10
3.505390625
 20
3.5850390625
 10
3.505390625
 20
3.532353515625
 10
3.505390625
 20
3.4798828125
 10
3.537421875
 20
3.458955078125
 10
3.570546875
 20
3.458955078125
 10
3.5923828125
 20
3.458955078125
 10
3.6096875
 20
3.469423828125
 10
3.622109375
 20
3.4838671875
 10
3.622109375
 20
3.4838671875
 10
3.600859375
 20
3.5028515625
 10
3.600859375
 20
3.5028515625
 10
3.5937890625
 20
3.4940625
 10
3.58359375
 20
3.4878125
 10
3.57171875
 20
3.4878125
 10
3.548203125
 20
3.4878125
 10
3.534296875
 20
3.501171875
 10
3.534296875
 20
3.532353515625
 10
3.534296875
 20
3.5637890625
 10
3.548203125
 20
3.5770703125
 10
3.57171875
 20
3.5770703125
 97
        0
 75
     2
 76
     1
 98
        0
  0
SPLINE
  5
49
330
3C
100
AcDbEntity
  8
Layer 1
370
     0
100
AcDbSpline
210
0.0
220
0.0
230
1.0
 70
    11
 71
     3
 72
    38
 73
    34
 74
     0
 42
0.0000000001
 43
0.0000000001
 40
0.0
 40
0.0
 40
0.0
 40
0.0
 40
1.0
 40
1.0
 40
1.0
 40
2.0
 40
2.0
 40
2.0
 40
3.0
 40
3.0
 40
3.0
 40
4.0
 40
4.0
 40
4.0
 40
5.0
 40
5.0
 40
5.0
 40
6.0
 40
6.0
 40
6.0
 40
7.0
 40
7.0
 40
7.0
 40
8.0
 40
8.0
 40
8.0
 40
9.0
 40
9.0
 40
9.0
 40
10.0
 40
10.0
 40
10.0
 40
11.0
 40
11.0
 40
11.0
 40
11.0
 10
3.411953125
 20
3.604296875
 30
0.0
 10
3.411953125
 20
3.604296875
 30
0.0
 10
3.411953125
 20
3.460673828125
 30
0.0
 10
3.411953125
 20
3.460673828125
 30
0.0
 10
3.411953125
 20
3.460673828125
 30
0.0
 10
3.440859375
 20
3.460673828125
 30
0.0
 10
3.440859375
 20
3.460673828125
 30
0.0
 10
3.440859375
 20
3.460673828125
 30
0.0
 10
3.440859375
 20
3.5470703125
 30
0.0
 10
3.440859375
 20
3.5470703125
 30
0.0
 10
3.440859375
 20
3.5680078125
 30
0.0
 10
3.4547265625
 20
3.5770703125
 30
0.0
 10
3.46890625
 20
3.5770703125
 30
0.0
 10
3.47625
 20
3.5770703125
 30
0.0
 10
3.4810546875
 20
3.5751171875
 30
0.0
 10
3.487890625
 20
3.57
 30
0.0
 10
3.487890625
 20
3.57
 30
0.0
 10
3.508828125
 20
3.5949609375
 30
0.0
 10
3.508828125
 20
3.5949609375
 30
0.0
 10
3.5000390625
 20
3.6017578125
 30
0.0
 10
3.4904296875
 20
3.6059765625
 30
0.0
 10
3.4787890625
 20
3.6059765625
 30
0.0
 10
3.463515625
 20
3.6059765625
 30
0.0
 10
3.45046875
 20
3.6003125
 30
0.0
 10
3.44140625
 20
3.588994140625
 30
0.0
 10
3.44140625
 20
3.588994140625
 30
0.0
 10
3.440859375
 20
3.588994140625
 30
0.0
 10
3.440859375
 20
3.588994140625
 30
0.0
 10
3.440859375
 20
3.588994140625
 30
0.0
 10
3.440859375
 20
3.604296875
 30
0.0
 10
3.440859375
 20
3.604296875
 30
0.0
 10
3.440859375
 20
3.604296875
 30
0.0
 10
3.411953125
 20
3.604296875
 30
0.0
 10
3.411953125
 20
3.604296875
 30
0.0
  0
HATCH
  5
4A
330
3C
100
AcDbEntity
  8
Layer 1
 62
   134
420
    39344
100
AcDbHatch
 10
0.0
 20
0.0
 30
0.0
210
0.0
220
0.0
230
1.0
  2
SOLID
 70
     1
 71
     0
 91
        1
 92
        1
 93
        1
 72
     4
 94
        3
 73
     0
 74
     1
 95
       38
 96
       34
 40
0.0
 40
0.0
 40
0.0
 40
0.0
 40
1.0
 40
1.0
 40
1.0
 40
2.0
 40
2.0
 40
2.0
 40
3.0
 40
3.0
 40
3.0
 40
4.0
 40
4.0
 40
4.0
 40
5.0
 40
5.0
 40
5.0
 40
6.0
 40
6.0
 40
6.0
 40
7.0
 40
7.0
 40
7.0
 40
8.0
 40
8.0
 40
8.0
 40
9.0
 40
9.0
 40
9.0
 40
10.0
 40
10.0
 40
10.0
 40
11.0
 40
11.0
 40
11.0
 40
11.0
 10
3.411953125
 20
3.604296875
 10
3.411953125
 20
3.604296875
 10
3.411953125
 20
3.460673828125
 10
3.411953125
 20
3.460673828125
 10
3.411953125
 20
3.460673828125
 10
3.440859375
 20
3.460673828125
 10
3.440859375
 20
3.460673828125
 10
3.440859375
 20
3.460673828125
 10
3.440859375
 20
3.5470703125
 10
3.440859375
 20
3.5470703125
 10
3.440859375
 20
3.5680078125
 10
3.4547265625
 20
3.5770703125
 10
3.46890625
 20
3.5770703125
 10
3.47625
 20
3.5770703125
 10
3.4810546875
 20
3.5751171875
 10
3.487890625
 20
3.57
 10
3.487890625
 20
3.57
 10
3.508828125
 20
3.5949609375
 10
3.508828125
 20
3.5949609375
 10
3.5000390625
 20
3.6017578125
 10
3.4904296875
 20
3.6059765625
 10
3.4787890625
 20
3.6059765625
 10
3.463515625
 20
3.6059765625
 10
3.45046875
 20
3.6003125
 10
3.44140625
 20
3.588994140625
 10
3.44140625
 20
3.588994140625
 10
3.440859375
 20
3.588994140625
 10
3.440859375
 20
3.588994140625
 10
3.440859375
 20
3.588994140625
 10
3.440859375
 20
3.604296875
 10
3.440859375
 20
3.604296875
 10
3.440859375
 20
3.604296875
 10
3.411953125
 20
3.604296875
 10
3.411953125
 20
3.604296875
 97
        0
 75
     2
 76
     1
 98
        0
  0
SPLINE
  5
4B
330
3C
100
AcDbEntity
  8
Layer 1
370
     0
100
AcDbSpline
210
0.0
220
0.0
230
1.0
 70
    11
 71
     3
 72
    44
 73
    40
 74
     0
 42
0.0000000001
 43
0.0000000001
 40
0.0
 40
0.0
 40
0.0
 40
0.0
 40
1.0
 40
1.0
 40
1.0
 40
2.0
 40
2.0
 40
2.0
 40
3.0
 40
3.0
 40
3.0
 40
4.0
 40
4.0
 40
4.0
 40
5.0
 40
5.0
 40
5.0
 40
6.0
 40
6.0
 40
6.0
 40
7.0
 40
7.0
 40
7.0
 40
8.0
 40
8.0
 40
8.0
 40
9.0
 40
9.0
 40
9.0
 40
10.0
 40
10.0
 40
10.0
 40
11.0
 40
11.0
 40
11.0
 40
12.0
 40
12.0
 40
12.0
 40
13.0
 40
13.0
 40
13.0
 40
13.0
 10
3.380234375
 20
3.460634765625
 30
0.0
 10
3.380234375
 20
3.460634765625
 30
0.0
 10
3.380234375
 20
3.604296875
 30
0.0
 10
3.380234375
 20
3.604296875
 30
0.0
 10
3.380234375
 20
3.604296875
 30
0.0
 10
3.3513671875
 20
3.604296875
 30
0.0
 10
3.3513671875
 20
3.604296875
 30
0.0
 10
3.3513671875
 20
3.604296875
 30
0.0
 10
3.3513671875
 20
3.5187109375
 30
0.0
 10
3.3513671875
 20
3.5187109375
 30
0.0
 10
3.3513671875
 20
3.4991796875
 30
0.0
 10
3.3391796875
 20
3.4878515625
 30
0.0
 10
3.3230078125
 20
3.4878515625
 30
0.0
 10
3.3066015625
 20
3.4878515625
 30
0.0
 10
3.2944140625
 20
3.4991796875
 30
0.0
 10
3.2944140625
 20
3.5187109375
 30
0.0
 10
3.2944140625
 20
3.5187109375
 30
0.0
 10
3.2944140625
 20
3.604296875
 30
0.0
 10
3.2944140625
 20
3.604296875
 30
0.0
 10
3.2944140625
 20
3.604296875
 30
0.0
 10
3.2655078125
 20
3.604296875
 30
0.0
 10
3.2655078125
 20
3.604296875
 30
0.0
 10
3.2655078125
 20
3.604296875
 30
0.0
 10
3.2655078125
 20
3.5087890625
 30
0.0
 10
3.2655078125
 20
3.5087890625
 30
0.0
 10
3.2655078125
 20
3.4762109375
 30
0.0
 10
3.291015625
 20
3.458955078125
 30
0.0
 10
3.313671875
 20
3.458955078125
 30
0.0
 10
3.328671875
 20
3.458955078125
 30
0.0
 10
3.34171875
 20
3.464609375
 30
0.0
 10
3.35078125
 20
3.4759375
 30
0.0
 10
3.35078125
 20
3.4759375
 30
0.0
 10
3.3513671875
 20
3.4759375
 30
0.0
 10
3.3513671875
 20
3.4759375
 30
0.0
 10
3.3513671875
 20
3.4759375
 30
0.0
 10
3.3513671875
 20
3.460634765625
 30
0.0
 10
3.3513671875
 20
3.460634765625
 30
0.0
 10
3.3513671875
 20
3.460634765625
 30
0.0
 10
3.380234375
 20
3.460634765625
 30
0.0
 10
3.380234375
 20
3.460634765625
 30
0.0
  0
HATCH
  5
4C
330
3C
100
AcDbEntity
  8
Layer 1
 62
   134
420
    39344
100
AcDbHatch
 10
0.0
 20
0.0
 30
0.0
210
0.0
220
0.0
230
1.0
  2
SOLID
 70
     1
 71
     0
 91
        1
 92
        1
 93
        1
 72
     4
 94
        3
 73
     0
 74
     1
 95
       44
 96
       40
 40
0.0
 40
0.0
 40
0.0
 40
0.0
 40
1.0
 40
1.0
 40
1.0
 40
2.0
 40
2.0
 40
2.0
 40
3.0
 40
3.0
 40
3.0
 40
4.0
 40
4.0
 40
4.0
 40
5.0
 40
5.0
 40
5.0
 40
6.0
 40
6.0
 40
6.0
 40
7.0
 40
7.0
 40
7.0
 40
8.0
 40
8.0
 40
8.0
 40
9.0
 40
9.0
 40
9.0
 40
10.0
 40
10.0
 40
10.0
 40
11.0
 40
11.0
 40
11.0
 40
12.0
 40
12.0
 40
12.0
 40
13.0
 40
13.0
 40
13.0
 40
13.0
 10
3.380234375
 20
3.460634765625
 10
3.380234375
 20
3.460634765625
 10
3.380234375
 20
3.604296875
 10
3.380234375
 20
3.604296875
 10
3.380234375
 20
3.604296875
 10
3.3513671875
 20
3.604296875
 10
3.3513671875
 20
3.604296875
 10
3.3513671875
 20
3.604296875
 10
3.3513671875
 20
3.5187109375
 10
3.3513671875
 20
3.5187109375
 10
3.3513671875
 20
3.4991796875
 10
3.3391796875
 20
3.4878515625
 10
3.3230078125
 20
3.4878515625
 10
3.3066015625
 20
3.4878515625
 10
3.2944140625
 20
3.4991796875
 10
3.2944140625
 20
3.5187109375
 10
3.2944140625
 20
3.5187109375
 10
3.2944140625
 20
3.604296875
 10
3.2944140625
 20
3.604296875
 10
3.2944140625
 20
3.604296875
 10
3.2655078125
 20
3.604296875
 10
3.2655078125
 20
3.604296875
 10
3.2655078125
 20
3.604296875
 10
3.2655078125
 20
3.5087890625
 10
3.2655078125
 20
3.5087890625
 10
3.2655078125
 20
3.4762109375
 10
3.291015625
 20
3.458955078125
 10
3.313671875
 20
3.458955078125
 10
3.328671875
 20
3.458955078125
 10
3.34171875
 20
3.464609375
 10
3.35078125
 20
3.4759375
 10
3.35078125
 20
3.4759375
 10
3.3513671875
 20
3.4759375
 10
3.3513671875
 20
3.4759375
 10
3.3513671875
 20
3.4759375
 10
3.3513671875
 20
3.460634765625
 10
3.3513671875
 20
3.460634765625
 10
3.3513671875
 20
3.460634765625
 10
3.380234375
 20
3.460634765625
 10
3.380234375
 20
3.460634765625
 97
        0
 75
     2
 76
     1
 98
        0
  0
SPLINE
  5
4D
330
3C
100
AcDbEntity
  8
Layer 1
370
     0
100
AcDbSpline
210
0.0
220
0.0
230
1.0
 70
    11
 71
     3
 72
    29
 73
    25
 74
     0
 42
0.0000000001
 43
0.0000000001
 40
0.0
 40
0.0
 40
0.0
 40
0.0
 40
1.0
 40
1.0
 40
1.0
 40
2.0
 40
2.0
 40
2.0
 40
3.0
 40
3.0
 40
3.0
 40
4.0
 40
4.0
 40
4.0
 40
5.0
 40
5.0
 40
5.0
 40
6.0
 40
6.0
 40
6.0
 40
7.0
 40
7.0
 40
7.0
 40
8.0
 40
8.0
 40
8.0
 40
8.0
 10
3.181640625
 20
3.6059765625
 30
0.0
 10
3.1592578125
 20
3.6059765625
 30
0.0
 10
3.1459375
 20
3.5963671875
 30
0.0
 10
3.1380078125
 20
3.587578125
 30
0.0
 10
3.126953125
 20
3.575390625
 30
0.0
 10
3.122421875
 20
3.5634765625
 30
0.0
 10
3.122421875
 20
3.5326171875
 30
0.0
 10
3.122421875
 20
3.501455078125
 30
0.0
 10
3.126953125
 20
3.48953125
 30
0.0
 10
3.1380078125
 20
3.477353515625
 30
0.0
 10
3.1459375
 20
3.468564453125
 30
0.0
 10
3.1592578125
 20
3.458955078125
 30
0.0
 10
3.181640625
 20
3.458955078125
 30
0.0
 10
3.2040234375
 20
3.458955078125
 30
0.0
 10
3.21734375
 20
3.468564453125
 30
0.0
 10
3.2252734375
 20
3.477353515625
 30
0.0
 10
3.236328125
 20
3.48953125
 30
0.0
 10
3.240859375
 20
3.501455078125
 30
0.0
 10
3.240859375
 20
3.5326171875
 30
0.0
 10
3.240859375
 20
3.5634765625
 30
0.0
 10
3.236328125
 20
3.575390625
 30
0.0
 10
3.2252734375
 20
3.587578125
 30
0.0
 10
3.21734375
 20
3.5963671875
 30
0.0
 10
3.2040234375
 20
3.6059765625
 30
0.0
 10
3.181640625
 20
3.6059765625
 30
0.0
  0
HATCH
  5
4E
330
3C
100
AcDbEntity
  8
Layer 1
 62
   134
420
    39344
100
AcDbHatch
 10
0.0
 20
0.0
 30
0.0
210
0.0
220
0.0
230
1.0
  2
SOLID
 70
     1
 71
     0
 91
        1
 92
        1
 93
        1
 72
     4
 94
        3
 73
     0
 74
     1
 95
       29
 96
       25
 40
0.0
 40
0.0
 40
0.0
 40
0.0
 40
1.0
 40
1.0
 40
1.0
 40
2.0
 40
2.0
 40
2.0
 40
3.0
 40
3.0
 40
3.0
 40
4.0
 40
4.0
 40
4.0
 40
5.0
 40
5.0
 40
5.0
 40
6.0
 40
6.0
 40
6.0
 40
7.0
 40
7.0
 40
7.0
 40
8.0
 40
8.0
 40
8.0
 40
8.0
 10
3.181640625
 20
3.6059765625
 10
3.1592578125
 20
3.6059765625
 10
3.1459375
 20
3.5963671875
 10
3.1380078125
 20
3.587578125
 10
3.126953125
 20
3.575390625
 10
3.122421875
 20
3.5634765625
 10
3.122421875
 20
3.5326171875
 10
3.122421875
 20
3.501455078125
 10
3.126953125
 20
3.48953125
 10
3.1380078125
 20
3.477353515625
 10
3.1459375
 20
3.468564453125
 10
3.1592578125
 20
3.458955078125
 10
3.181640625
 20
3.458955078125
 10
3.2040234375
 20
3.458955078125
 10
3.21734375
 20
3.468564453125
 10
3.2252734375
 20
3.477353515625
 10
3.236328125
 20
3.48953125
 10
3.240859375
 20
3.501455078125
 10
3.240859375
 20
3.5326171875
 10
3.240859375
 20
3.5634765625
 10
3.236328125
 20
3.575390625
 10
3.2252734375
 20
3.587578125
 10
3.21734375
 20
3.5963671875
 10
3.2040234375
 20
3.6059765625
 10
3.181640625
 20
3.6059765625
 97
        0
 75
     2
 76
     1
 98
        0
  0
SPLINE
  5
4F
330
3C
100
AcDbEntity
  8
Layer 1
370
     0
100
AcDbSpline
210
0.0
220
0.0
230
1.0
 70
    11
 71
     3
 72
    53
 73
    49
 74
     0
 42
0.0000000001
 43
0.0000000001
 40
0.0
 40
0.0
 40
0.0
 40
0.0
 40
1.0
 40
1.0
 40
1.0
 40
2.0
 40
2.0
 40
2.0
 40
3.0
 40
3.0
 40
3.0
 40
4.0
 40
4.0
 40
4.0
 40
5.0
 40
5.0
 40
5.0
 40
6.0
 40
6.0
 40
6.0
 40
7.0
 40
7.0
 40
7.0
 40
8.0
 40
8.0
 40
8.0
 40
9.0
 40
9.0
 40
9.0
 40
10.0
 40
10.0
 40
10.0
 40
11.0
 40
11.0
 40
11.0
 40
12.0
 40
12.0
 40
12.0
 40
13.0
 40
13.0
 40
13.0
 40
14.0
 40
14.0
 40
14.0
 40
15.0
 40
15.0
 40
15.0
 40
16.0
 40
16.0
 40
16.0
 40
16.0
 10
3.04875
 20
3.4861328125
 30
0.0
 10
3.0294482421875
 20
3.4861328125
 30
0.0
 10
3.015859375
 20
3.492353515625
 30
0.0
 10
3.0033984375
 20
3.50453125
 30
0.0
 10
3.0033984375
 20
3.50453125
 30
0.0
 10
2.98328125
 20
3.4847265625
 30
0.0
 10
2.98328125
 20
3.4847265625
 30
0.0
 10
3.00171875
 20
3.467421875
 30
0.0
 10
3.0232421875
 20
3.458955078125
 30
0.0
 10
3.0464794921875
 20
3.458955078125
 30
0.0
 10
3.079921875
 20
3.458955078125
 30
0.0
 10
3.1059765625
 20
3.475078125
 30
0.0
 10
3.1059765625
 20
3.503134765625
 30
0.0
 10
3.1059765625
 20
3.526064453125
 30
0.0
 10
3.0941015625
 20
3.54421875
 30
0.0
 10
3.0643359375
 20
3.5462109375
 30
0.0
 10
3.0643359375
 20
3.5462109375
 30
0.0
 10
3.0405517578125
 20
3.547890625
 30
0.0
 10
3.0405517578125
 20
3.547890625
 30
0.0
 10
3.0260888671875
 20
3.549033203125
 30
0.0
 10
3.0215576171875
 20
3.555283203125
 30
0.0
 10
3.0215576171875
 20
3.561494140625
 30
0.0
 10
3.0215576171875
 20
3.57140625
 30
0.0
 10
3.0277685546875
 20
3.5787890625
 30
0.0
 10
3.0462109375
 20
3.5787890625
 30
0.0
 10
3.061796875
 20
3.5787890625
 30
0.0
 10
3.0733984375
 20
3.5733984375
 30
0.0
 10
3.0847265625
 20
3.56546875
 30
0.0
 10
3.0847265625
 20
3.56546875
 30
0.0
 10
3.102578125
 20
3.58640625
 30
0.0
 10
3.102578125
 20
3.58640625
 30
0.0
 10
3.0883984375
 20
3.5983203125
 30
0.0
 10
3.07140625
 20
3.6059765625
 30
0.0
 10
3.046171875
 20
3.6059765625
 30
0.0
 10
3.015859375
 20
3.6059765625
 30
0.0
 10
2.9926611328125
 20
3.5909765625
 30
0.0
 10
2.9926611328125
 20
3.5617578125
 30
0.0
 10
2.9926611328125
 20
3.5371484375
 30
0.0
 10
3.0102001953125
 20
3.52296875
 30
0.0
 10
3.0339794921875
 20
3.5209765625
 30
0.0
 10
3.0339794921875
 20
3.5209765625
 30
0.0
 10
3.0594921875
 20
3.5187109375
 30
0.0
 10
3.0594921875
 20
3.5187109375
 30
0.0
 10
3.0694140625
 20
3.517890625
 30
0.0
 10
3.0770703125
 20
3.5147265625
 30
0.0
 10
3.0770703125
 20
3.50453125
 30
0.0
 10
3.0770703125
 20
3.492353515625
 30
0.0
 10
3.06515625
 20
3.4861328125
 30
0.0
 10
3.04875
 20
3.4861328125
 30
0.0
  0
HATCH
  5
50
330
3C
100
AcDbEntity
  8
Layer 1
 62
   134
420
    39344
100
AcDbHatch
 10
0.0
 20
0.0
 30
0.0
210
0.0
220
0.0
230
1.0
  2
SOLID
 70
     1
 71
     0
 91
        1
 92
        1
 93
        1
 72
     4
 94
        3
 73
     0
 74
     1
 95
       53
 96
       49
 40
0.0
 40
0.0
 40
0.0
 40
0.0
 40
1.0
 40
1.0
 40
1.0
 40
2.0
 40
2.0
 40
2.0
 40
3.0
 40
3.0
 40
3.0
 40
4.0
 40
4.0
 40
4.0
 40
5.0
 40
5.0
 40
5.0
 40
6.0
 40
6.0
 40
6.0
 40
7.0
 40
7.0
 40
7.0
 40
8.0
 40
8.0
 40
8.0
 40
9.0
 40
9.0
 40
9.0
 40
10.0
 40
10.0
 40
10.0
 40
11.0
 40
11.0
 40
11.0
 40
12.0
 40
12.0
 40
12.0
 40
13.0
 40
13.0
 40
13.0
 40
14.0
 40
14.0
 40
14.0
 40
15.0
 40
15.0
 40
15.0
 40
16.0
 40
16.0
 40
16.0
 40
16.0
 10
3.04875
 20
3.4861328125
 10
3.0294482421875
 20
3.4861328125
 10
3.015859375
 20
3.492353515625
 10
3.0033984375
 20
3.50453125
 10
3.0033984375
 20
3.50453125
 10
2.98328125
 20
3.4847265625
 10
2.98328125
 20
3.4847265625
 10
3.00171875
 20
3.467421875
 10
3.0232421875
 20
3.458955078125
 10
3.0464794921875
 20
3.458955078125
 10
3.079921875
 20
3.458955078125
 10
3.1059765625
 20
3.475078125
 10
3.1059765625
 20
3.503134765625
 10
3.1059765625
 20
3.526064453125
 10
3.0941015625
 20
3.54421875
 10
3.0643359375
 20
3.5462109375
 10
3.0643359375
 20
3.5462109375
 10
3.0405517578125
 20
3.547890625
 10
3.0405517578125
 20
3.547890625
 10
3.0260888671875
 20
3.549033203125
 10
3.0215576171875
 20
3.555283203125
 10
3.0215576171875
 20
3.561494140625
 10
3.0215576171875
 20
3.57140625
 10
3.0277685546875
 20
3.5787890625
 10
3.0462109375
 20
3.5787890625
 10
3.061796875
 20
3.5787890625
 10
3.0733984375
 20
3.5733984375
 10
3.0847265625
 20
3.56546875
 10
3.0847265625
 20
3.56546875
 10
3.102578125
 20
3.58640625
 10
3.102578125
 20
3.58640625
 10
3.0883984375
 20
3.5983203125
 10
3.07140625
 20
3.6059765625
 10
3.046171875
 20
3.6059765625
 10
3.015859375
 20
3.6059765625
 10
2.9926611328125
 20
3.5909765625
 10
2.9926611328125
 20
3.5617578125
 10
2.9926611328125
 20
3.5371484375
 10
3.0102001953125
 20
3.52296875
 10
3.0339794921875
 20
3.5209765625
 10
3.0339794921875
 20
3.5209765625
 10
3.0594921875
 20
3.5187109375
 10
3.0594921875
 20
3.5187109375
 10
3.0694140625
 20
3.517890625
 10
3.0770703125
 20
3.5147265625
 10
3.0770703125
 20
3.50453125
 10
3.0770703125
 20
3.492353515625
 10
3.06515625
 20
3.4861328125
 10
3.04875
 20
3.4861328125
 97
        0
 75
     2
 76
     1
 98
        0
  0
SPLINE
  5
51
330
3C
100
AcDbEntity
  8
Layer 1
370
     0
100
AcDbSpline
210
0.0
220
0.0
230
1.0
 70
    11
 71
     3
 72
    44
 73
    40
 74
     0
 42
0.0000000001
 43
0.0000000001
 40
0.0
 40
0.0
 40
0.0
 40
0.0
 40
1.0
 40
1.0
 40
1.0
 40
2.0
 40
2.0
 40
2.0
 40
3.0
 40
3.0
 40
3.0
 40
4.0
 40
4.0
 40
4.0
 40
5.0
 40
5.0
 40
5.0
 40
6.0
 40
6.0
 40
6.0
 40
7.0
 40
7.0
 40
7.0
 40
8.0
 40
8.0
 40
8.0
 40
9.0
 40
9.0
 40
9.0
 40
10.0
 40
10.0
 40
10.0
 40
11.0
 40
11.0
 40
11.0
 40
12.0
 40
12.0
 40
12.0
 40
13.0
 40
13.0
 40
13.0
 40
13.0
 10
2.8193017578125
 20
3.5462109375
 30
0.0
 10
2.8193017578125
 20
3.5657421875
 30
0.0
 10
2.8314794921875
 20
3.5770703125
 30
0.0
 10
2.8479296875
 20
3.5770703125
 30
0.0
 10
2.8640576171875
 20
3.5770703125
 30
0.0
 10
2.87625
 20
3.5657421875
 30
0.0
 10
2.87625
 20
3.5462109375
 30
0.0
 10
2.87625
 20
3.5462109375
 30
0.0
 10
2.87625
 20
3.460673828125
 30
0.0
 10
2.87625
 20
3.460673828125
 30
0.0
 10
2.87625
 20
3.460673828125
 30
0.0
 10
2.9051611328125
 20
3.460673828125
 30
0.0
 10
2.9051611328125
 20
3.460673828125
 30
0.0
 10
2.9051611328125
 20
3.460673828125
 30
0.0
 10
2.9051611328125
 20
3.5561328125
 30
0.0
 10
2.9051611328125
 20
3.5561328125
 30
0.0
 10
2.9051611328125
 20
3.5887109375
 30
0.0
 10
2.8796484375
 20
3.6059765625
 30
0.0
 10
2.8572705078125
 20
3.6059765625
 30
0.0
 10
2.8419921875
 20
3.6059765625
 30
0.0
 10
2.8289501953125
 20
3.6003125
 30
0.0
 10
2.8198779296875
 20
3.588994140625
 30
0.0
 10
2.8198779296875
 20
3.588994140625
 30
0.0
 10
2.8193017578125
 20
3.588994140625
 30
0.0
 10
2.8193017578125
 20
3.588994140625
 30
0.0
 10
2.8193017578125
 20
3.588994140625
 30
0.0
 10
2.8193017578125
 20
3.604296875
 30
0.0
 10
2.8193017578125
 20
3.604296875
 30
0.0
 10
2.8193017578125
 20
3.604296875
 30
0.0
 10
2.7904296875
 20
3.604296875
 30
0.0
 10
2.7904296875
 20
3.604296875
 30
0.0
 10
2.7904296875
 20
3.604296875
 30
0.0
 10
2.7904296875
 20
3.460673828125
 30
0.0
 10
2.7904296875
 20
3.460673828125
 30
0.0
 10
2.7904296875
 20
3.460673828125
 30
0.0
 10
2.8193017578125
 20
3.460673828125
 30
0.0
 10
2.8193017578125
 20
3.460673828125
 30
0.0
 10
2.8193017578125
 20
3.460673828125
 30
0.0
 10
2.8193017578125
 20
3.5462109375
 30
0.0
 10
2.8193017578125
 20
3.5462109375
 30
0.0
  0
HATCH
  5
52
330
3C
100
AcDbEntity
  8
Layer 1
 62
   134
420
    39344
100
AcDbHatch
 10
0.0
 20
0.0
 30
0.0
210
0.0
220
0.0
230
1.0
  2
SOLID
 70
     1
 71
     0
 91
        1
 92
        1
 93
        1
 72
     4
 94
        3
 73
     0
 74
     1
 95
       44
 96
       40
 40
0.0
 40
0.0
 40
0.0
 40
0.0
 40
1.0
 40
1.0
 40
1.0
 40
2.0
 40
2.0
 40
2.0
 40
3.0
 40
3.0
 40
3.0
 40
4.0
 40
4.0
 40
4.0
 40
5.0
 40
5.0
 40
5.0
 40
6.0
 40
6.0
 40
6.0
 40
7.0
 40
7.0
 40
7.0
 40
8.0
 40
8.0
 40
8.0
 40
9.0
 40
9.0
 40
9.0
 40
10.0
 40
10.0
 40
10.0
 40
11.0
 40
11.0
 40
11.0
 40
12.0
 40
12.0
 40
12.0
 40
13.0
 40
13.0
 40
13.0
 40
13.0
 10
2.8193017578125
 20
3.5462109375
 10
2.8193017578125
 20
3.5657421875
 10
2.8314794921875
 20
3.5770703125
 10
2.8479296875
 20
3.5770703125
 10
2.8640576171875
 20
3.5770703125
 10
2.87625
 20
3.5657421875
 10
2.87625
 20
3.5462109375
 10
2.87625
 20
3.5462109375
 10
2.87625
 20
3.460673828125
 10
2.87625
 20
3.460673828125
 10
2.87625
 20
3.460673828125
 10
2.9051611328125
 20
3.460673828125
 10
2.9051611328125
 20
3.460673828125
 10
2.9051611328125
 20
3.460673828125
 10
2.9051611328125
 20
3.5561328125
 10
2.9051611328125
 20
3.5561328125
 10
2.9051611328125
 20
3.5887109375
 10
2.8796484375
 20
3.6059765625
 10
2.8572705078125
 20
3.6059765625
 10
2.8419921875
 20
3.6059765625
 10
2.8289501953125
 20
3.6003125
 10
2.8198779296875
 20
3.588994140625
 10
2.8198779296875
 20
3.588994140625
 10
2.8193017578125
 20
3.588994140625
 10
2.8193017578125
 20
3.588994140625
 10
2.8193017578125
 20
3.588994140625
 10
2.8193017578125
 20
3.604296875
 10
2.8193017578125
 20
3.604296875
 10
2.8193017578125
 20
3.604296875
 10
2.7904296875
 20
3.604296875
 10
2.7904296875
 20
3.604296875
 10
2.7904296875
 20
3.604296875
 10
2.7904296875
 20
3.460673828125
 10
2.7904296875
 20
3.460673828125
 10
2.7904296875
 20
3.460673828125
 10
2.8193017578125
 20
3.460673828125
 10
2.8193017578125
 20
3.460673828125
 10
2.8193017578125
 20
3.460673828125
 10
2.8193017578125
 20
3.5462109375
 10
2.8193017578125
 20
3.5462109375
 97
        0
 75
     2
 76
     1
 98
        0
  0
SPLINE
  5
53
330
3C
100
AcDbEntity
  8
Layer 1
370
     0
100
AcDbSpline
210
0.0
220
0.0
230
1.0
 70
    11
 71
     3
 72
    32
 73
    28
 74
     0
 42
0.0000000001
 43
0.0000000001
 40
0.0
 40
0.0
 40
0.0
 40
0.0
 40
1.0
 40
1.0
 40
1.0
 40
2.0
 40
2.0
 40
2.0
 40
3.0
 40
3.0
 40
3.0
 40
4.0
 40
4.0
 40
4.0
 40
5.0
 40
5.0
 40
5.0
 40
6.0
 40
6.0
 40
6.0
 40
7.0
 40
7.0
 40
7.0
 40
8.0
 40
8.0
 40
8.0
 40
9.0
 40
9.0
 40
9.0
 40
9.0
 10
2.7065576171875
 20
3.6059765625
 30
0.0
 10
2.67875
 20
3.6059765625
 30
0.0
 10
2.6473388671875
 20
3.5878515625
 30
0.0
 10
2.6473388671875
 20
3.53203125
 30
0.0
 10
2.6473388671875
 20
3.473134765625
 30
0.0
 10
2.6816015625
 20
3.458955078125
 30
0.0
 10
2.7110498046875
 20
3.458955078125
 30
0.0
 10
2.7303515625
 20
3.458955078125
 30
0.0
 10
2.74875
 20
3.4657421875
 30
0.0
 10
2.7629296875
 20
3.4821875
 30
0.0
 10
2.7629296875
 20
3.4821875
 30
0.0
 10
2.7419482421875
 20
3.5
 30
0.0
 10
2.7419482421875
 20
3.5
 30
0.0
 10
2.7334375
 20
3.49125
 30
0.0
 10
2.7215576171875
 20
3.4861328125
 30
0.0
 10
2.7105078125
 20
3.4861328125
 30
0.0
 10
2.6906591796875
 20
3.4861328125
 30
0.0
 10
2.6762109375
 20
3.498046875
 30
0.0
 10
2.6762109375
 20
3.5215625
 30
0.0
 10
2.6762109375
 20
3.5215625
 30
0.0
 10
2.7657421875
 20
3.5215625
 30
0.0
 10
2.7657421875
 20
3.5215625
 30
0.0
 10
2.7657421875
 20
3.5215625
 30
0.0
 10
2.7657421875
 20
3.5453515625
 30
0.0
 10
2.7657421875
 20
3.5453515625
 30
0.0
 10
2.7657421875
 20
3.5824609375
 30
0.0
 10
2.73828125
 20
3.6059765625
 30
0.0
 10
2.7065576171875
 20
3.6059765625
 30
0.0
  0
HATCH
  5
54
330
3C
100
AcDbEntity
  8
Layer 1
 62
   134
420
    39344
100
AcDbHatch
 10
0.0
 20
0.0
 30
0.0
210
0.0
220
0.0
230
1.0
  2
SOLID
 70
     1
 71
     0
 91
        1
 92
        1
 93
        1
 72
     4
 94
        3
 73
     0
 74
     1
 95
       32
 96
       28
 40
0.0
 40
0.0
 40
0.0
 40
0.0
 40
1.0
 40
1.0
 40
1.0
 40
2.0
 40
2.0
 40
2.0
 40
3.0
 40
3.0
 40
3.0
 40
4.0
 40
4.0
 40
4.0
 40
5.0
 40
5.0
 40
5.0
 40
6.0
 40
6.0
 40
6.0
 40
7.0
 40
7.0
 40
7.0
 40
8.0
 40
8.0
 40
8.0
 40
9.0
 40
9.0
 40
9.0
 40
9.0
 10
2.7065576171875
 20
3.6059765625
 10
2.67875
 20
3.6059765625
 10
2.6473388671875
 20
3.5878515625
 10
2.6473388671875
 20
3.53203125
 10
2.6473388671875
 20
3.473134765625
 10
2.6816015625
 20
3.458955078125
 10
2.7110498046875
 20
3.458955078125
 10
2.7303515625
 20
3.458955078125
 10
2.74875
 20
3.4657421875
 10
2.7629296875
 20
3.4821875
 10
2.7629296875
 20
3.4821875
 10
2.7419482421875
 20
3.5
 10
2.7419482421875
 20
3.5
 10
2.7334375
 20
3.49125
 10
2.7215576171875
 20
3.4861328125
 10
2.7105078125
 20
3.4861328125
 10
2.6906591796875
 20
3.4861328125
 10
2.6762109375
 20
3.498046875
 10
2.6762109375
 20
3.5215625
 10
2.6762109375
 20
3.5215625
 10
2.7657421875
 20
3.5215625
 10
2.7657421875
 20
3.5215625
 10
2.7657421875
 20
3.5215625
 10
2.7657421875
 20
3.5453515625
 10
2.7657421875
 20
3.5453515625
 10
2.7657421875
 20
3.5824609375
 10
2.73828125
 20
3.6059765625
 10
2.7065576171875
 20
3.6059765625
 97
        0
 75
     2
 76
     1
 98
        0
  0
SPLINE
  5
55
330
3C
100
AcDbEntity
  8
Layer 1
370
     0
100
AcDbSpline
210
0.0
220
0.0
230
1.0
 70
    11
 71
     3
 72
    29
 73
    25
 74
     0
 42
0.0000000001
 43
0.0000000001
 40
0.0
 40
0.0
 40
0.0
 40
0.0
 40
1.0
 40
1.0
 40
1.0
 40
2.0
 40
2.0
 40
2.0
 40
3.0
 40
3.0
 40
3.0
 40
4.0
 40
4.0
 40
4.0
 40
5.0
 40
5.0
 40
5.0
 40
6.0
 40
6.0
 40
6.0
 40
7.0
 40
7.0
 40
7.0
 40
8.0
 40
8.0
 40
8.0
 40
8.0
 10
2.42921875
 20
3.6059765625
 30
0.0
 10
2.4068408203125
 20
3.6059765625
 30
0.0
 10
2.3935205078125
 20
3.5963671875
 30
0.0
 10
2.3855908203125
 20
3.587578125
 30
0.0
 10
2.37453125
 20
3.575390625
 30
0.0
 10
2.37
 20
3.5634765625
 30
0.0
 10
2.37
 20
3.5326171875
 30
0.0
 10
2.37
 20
3.501455078125
 30
0.0
 10
2.37453125
 20
3.48953125
 30
0.0
 10
2.3855908203125
 20
3.477353515625
 30
0.0
 10
2.3935205078125
 20
3.468564453125
 30
0.0
 10
2.4068408203125
 20
3.458955078125
 30
0.0
 10
2.42921875
 20
3.458955078125
 30
0.0
 10
2.4516015625
 20
3.458955078125
 30
0.0
 10
2.464921875
 20
3.468564453125
 30
0.0
 10
2.4728515625
 20
3.477353515625
 30
0.0
 10
2.4839111328125
 20
3.48953125
 30
0.0
 10
2.4884375
 20
3.501455078125
 30
0.0
 10
2.4884375
 20
3.5326171875
 30
0.0
 10
2.4884375
 20
3.5634765625
 30
0.0
 10
2.4839111328125
 20
3.575390625
 30
0.0
 10
2.4728515625
 20
3.587578125
 30
0.0
 10
2.464921875
 20
3.5963671875
 30
0.0
 10
2.4516015625
 20
3.6059765625
 30
0.0
 10
2.42921875
 20
3.6059765625
 30
0.0
  0
HATCH
  5
56
330
3C
100
AcDbEntity
  8
Layer 1
 62
   134
420
    39344
100
AcDbHatch
 10
0.0
 20
0.0
 30
0.0
210
0.0
220
0.0
230
1.0
  2
SOLID
 70
     1
 71
     0
 91
        1
 92
        1
 93
        1
 72
     4
 94
        3
 73
     0
 74
     1
 95
       29
 96
       25
 40
0.0
 40
0.0
 40
0.0
 40
0.0
 40
1.0
 40
1.0
 40
1.0
 40
2.0
 40
2.0
 40
2.0
 40
3.0
 40
3.0
 40
3.0
 40
4.0
 40
4.0
 40
4.0
 40
5.0
 40
5.0
 40
5.0
 40
6.0
 40
6.0
 40
6.0
 40
7.0
 40
7.0
 40
7.0
 40
8.0
 40
8.0
 40
8.0
 40
8.0
 10
2.42921875
 20
3.6059765625
 10
2.4068408203125
 20
3.6059765625
 10
2.3935205078125
 20
3.5963671875
 10
2.3855908203125
 20
3.587578125
 10
2.37453125
 20
3.575390625
 10
2.37
 20
3.5634765625
 10
2.37
 20
3.5326171875
 10
2.37
 20
3.501455078125
 10
2.37453125
 20
3.48953125
 10
2.3855908203125
 20
3.477353515625
 10
2.3935205078125
 20
3.468564453125
 10
2.4068408203125
 20
3.458955078125
 10
2.42921875
 20
3.458955078125
 10
2.4516015625
 20
3.458955078125
 10
2.464921875
 20
3.468564453125
 10
2.4728515625
 20
3.477353515625
 10
2.4839111328125
 20
3.48953125
 10
2.4884375
 20
3.501455078125
 10
2.4884375
 20
3.5326171875
 10
2.4884375
 20
3.5634765625
 10
2.4839111328125
 20
3.575390625
 10
2.4728515625
 20
3.587578125
 10
2.464921875
 20
3.5963671875
 10
2.4516015625
 20
3.6059765625
 10
2.42921875
 20
3.6059765625
 97
        0
 75
     2
 76
     1
 98
        0
  0
SPLINE
  5
57
330
3C
100
AcDbEntity
  8
Layer 1
370
     0
100
AcDbSpline
210
0.0
220
0.0
230
1.0
 70
    11
 71
     3
 72
    32
 73
    28
 74
     0
 42
0.0000000001
 43
0.0000000001
 40
0.0
 40
0.0
 40
0.0
 40
0.0
 40
1.0
 40
1.0
 40
1.0
 40
2.0
 40
2.0
 40
2.0
 40
3.0
 40
3.0
 40
3.0
 40
4.0
 40
4.0
 40
4.0
 40
5.0
 40
5.0
 40
5.0
 40
6.0
 40
6.0
 40
6.0
 40
7.0
 40
7.0
 40
7.0
 40
8.0
 40
8.0
 40
8.0
 40
9.0
 40
9.0
 40
9.0
 40
9.0
 10
3.5327734375
 20
3.3791015625
 30
0.0
 10
3.505
 20
3.3791015625
 30
0.0
 10
3.4735546875
 20
3.3609765625
 30
0.0
 10
3.4735546875
 20
3.30515625
 30
0.0
 10
3.4735546875
 20
3.24625
 30
0.0
 10
3.5078515625
 20
3.2320703125
 30
0.0
 10
3.5373046875
 20
3.2320703125
 30
0.0
 10
3.5566015625
 20
3.2320703125
 30
0.0
 10
3.575
 20
3.2388671875
 30
0.0
 10
3.589140625
 20
3.255283203125
 30
0.0
 10
3.589140625
 20
3.255283203125
 30
0.0
 10
3.568203125
 20
3.273134765625
 30
0.0
 10
3.568203125
 20
3.273134765625
 30
0.0
 10
3.5596875
 20
3.264345703125
 30
0.0
 10
3.5477734375
 20
3.2592578125
 30
0.0
 10
3.5367578125
 20
3.2592578125
 30
0.0
 10
3.5169140625
 20
3.2592578125
 30
0.0
 10
3.5024609375
 20
3.271171875
 30
0.0
 10
3.5024609375
 20
3.2946484375
 30
0.0
 10
3.5024609375
 20
3.2946484375
 30
0.0
 10
3.5919921875
 20
3.2946484375
 30
0.0
 10
3.5919921875
 20
3.2946484375
 30
0.0
 10
3.5919921875
 20
3.2946484375
 30
0.0
 10
3.5919921875
 20
3.3184765625
 30
0.0
 10
3.5919921875
 20
3.3184765625
 30
0.0
 10
3.5919921875
 20
3.3555859375
 30
0.0
 10
3.56453125
 20
3.3791015625
 30
0.0
 10
3.5327734375
 20
3.3791015625
 30
0.0
  0
HATCH
  5
58
330
3C
100
AcDbEntity
  8
Layer 1
 62
   134
420
    39344
100
AcDbHatch
 10
0.0
 20
0.0
 30
0.0
210
0.0
220
0.0
230
1.0
  2
SOLID
 70
     1
 71
     0
 91
        1
 92
        1
 93
        1
 72
     4
 94
        3
 73
     0
 74
     1
 95
       32
 96
       28
 40
0.0
 40
0.0
 40
0.0
 40
0.0
 40
1.0
 40
1.0
 40
1.0
 40
2.0
 40
2.0
 40
2.0
 40
3.0
 40
3.0
 40
3.0
 40
4.0
 40
4.0
 40
4.0
 40
5.0
 40
5.0
 40
5.0
 40
6.0
 40
6.0
 40
6.0
 40
7.0
 40
7.0
 40
7.0
 40
8.0
 40
8.0
 40
8.0
 40
9.0
 40
9.0
 40
9.0
 40
9.0
 10
3.5327734375
 20
3.3791015625
 10
3.505
 20
3.3791015625
 10
3.4735546875
 20
3.3609765625
 10
3.4735546875
 20
3.30515625
 10
3.4735546875
 20
3.24625
 10
3.5078515625
 20
3.2320703125
 10
3.5373046875
 20
3.2320703125
 10
3.5566015625
 20
3.2320703125
 10
3.575
 20
3.2388671875
 10
3.589140625
 20
3.255283203125
 10
3.589140625
 20
3.255283203125
 10
3.568203125
 20
3.273134765625
 10
3.568203125
 20
3.273134765625
 10
3.5596875
 20
3.264345703125
 10
3.5477734375
 20
3.2592578125
 10
3.5367578125
 20
3.2592578125
 10
3.5169140625
 20
3.2592578125
 10
3.5024609375
 20
3.271171875
 10
3.5024609375
 20
3.2946484375
 10
3.5024609375
 20
3.2946484375
 10
3.5919921875
 20
3.2946484375
 10
3.5919921875
 20
3.2946484375
 10
3.5919921875
 20
3.2946484375
 10
3.5919921875
 20
3.3184765625
 10
3.5919921875
 20
3.3184765625
 10
3.5919921875
 20
3.3555859375
 10
3.56453125
 20
3.3791015625
 10
3.5327734375
 20
3.3791015625
 97
        0
 75
     2
 76
     1
 98
        0
  0
SPLINE
  5
59
330
3C
100
AcDbEntity
  8
Layer 1
370
     0
100
AcDbSpline
210
0.0
220
0.0
230
1.0
 70
    11
 71
     3
 72
    38
 73
    34
 74
     0
 42
0.0000000001
 43
0.0000000001
 40
0.0
 40
0.0
 40
0.0
 40
0.0
 40
1.0
 40
1.0
 40
1.0
 40
2.0
 40
2.0
 40
2.0
 40
3.0
 40
3.0
 40
3.0
 40
4.0
 40
4.0
 40
4.0
 40
5.0
 40
5.0
 40
5.0
 40
6.0
 40
6.0
 40
6.0
 40
7.0
 40
7.0
 40
7.0
 40
8.0
 40
8.0
 40
8.0
 40
9.0
 40
9.0
 40
9.0
 40
10.0
 40
10.0
 40
10.0
 40
11.0
 40
11.0
 40
11.0
 40
11.0
 10
3.405625
 20
3.362109375
 30
0.0
 10
3.405625
 20
3.362109375
 30
0.0
 10
3.4050390625
 20
3.362109375
 30
0.0
 10
3.4050390625
 20
3.362109375
 30
0.0
 10
3.4050390625
 20
3.362109375
 30
0.0
 10
3.4050390625
 20
3.3773828125
 30
0.0
 10
3.4050390625
 20
3.3773828125
 30
0.0
 10
3.4050390625
 20
3.3773828125
 30
0.0
 10
3.3761328125
 20
3.3773828125
 30
0.0
 10
3.3761328125
 20
3.3773828125
 30
0.0
 10
3.3761328125
 20
3.3773828125
 30
0.0
 10
3.3761328125
 20
3.23375
 30
0.0
 10
3.3761328125
 20
3.23375
 30
0.0
 10
3.3761328125
 20
3.23375
 30
0.0
 10
3.4050390625
 20
3.23375
 30
0.0
 10
3.4050390625
 20
3.23375
 30
0.0
 10
3.4050390625
 20
3.23375
 30
0.0
 10
3.4050390625
 20
3.320205078125
 30
0.0
 10
3.4050390625
 20
3.320205078125
 30
0.0
 10
3.4050390625
 20
3.3411328125
 30
0.0
 10
3.41890625
 20
3.350205078125
 30
0.0
 10
3.4330859375
 20
3.350205078125
 30
0.0
 10
3.44046875
 20
3.350205078125
 30
0.0
 10
3.4452734375
 20
3.3482421875
 30
0.0
 10
3.4520703125
 20
3.343134765625
 30
0.0
 10
3.4520703125
 20
3.343134765625
 30
0.0
 10
3.473046875
 20
3.368046875
 30
0.0
 10
3.473046875
 20
3.368046875
 30
0.0
 10
3.4642578125
 20
3.374853515625
 30
0.0
 10
3.454609375
 20
3.3791015625
 30
0.0
 10
3.4430078125
 20
3.3791015625
 30
0.0
 10
3.4276953125
 20
3.3791015625
 30
0.0
 10
3.4146875
 20
3.3734375
 30
0.0
 10
3.405625
 20
3.362109375
 30
0.0
  0
HATCH
  5
5A
330
3C
100
AcDbEntity
  8
Layer 1
 62
   134
420
    39344
100
AcDbHatch
 10
0.0
 20
0.0
 30
0.0
210
0.0
220
0.0
230
1.0
  2
SOLID
 70
     1
 71
     0
 91
        1
 92
        1
 93
        1
 72
     4
 94
        3
 73
     0
 74
     1
 95
       38
 96
       34
 40
0.0
 40
0.0
 40
0.0
 40
0.0
 40
1.0
 40
1.0
 40
1.0
 40
2.0
 40
2.0
 40
2.0
 40
3.0
 40
3.0
 40
3.0
 40
4.0
 40
4.0
 40
4.0
 40
5.0
 40
5.0
 40
5.0
 40
6.0
 40
6.0
 40
6.0
 40
7.0
 40
7.0
 40
7.0
 40
8.0
 40
8.0
 40
8.0
 40
9.0
 40
9.0
 40
9.0
 40
10.0
 40
10.0
 40
10.0
 40
11.0
 40
11.0
 40
11.0
 40
11.0
 10
3.405625
 20
3.362109375
 10
3.405625
 20
3.362109375
 10
3.4050390625
 20
3.362109375
 10
3.4050390625
 20
3.362109375
 10
3.4050390625
 20
3.362109375
 10
3.4050390625
 20
3.3773828125
 10
3.4050390625
 20
3.3773828125
 10
3.4050390625
 20
3.3773828125
 10
3.3761328125
 20
3.3773828125
 10
3.3761328125
 20
3.3773828125
 10
3.3761328125
 20
3.3773828125
 10
3.3761328125
 20
3.23375
 10
3.3761328125
 20
3.23375
 10
3.3761328125
 20
3.23375
 10
3.4050390625
 20
3.23375
 10
3.4050390625
 20
3.23375
 10
3.4050390625
 20
3.23375
 10
3.4050390625
 20
3.320205078125
 10
3.4050390625
 20
3.320205078125
 10
3.4050390625
 20
3.3411328125
 10
3.41890625
 20
3.350205078125
 10
3.4330859375
 20
3.350205078125
 10
3.44046875
 20
3.350205078125
 10
3.4452734375
 20
3.3482421875
 10
3.4520703125
 20
3.343134765625
 10
3.4520703125
 20
3.343134765625
 10
3.473046875
 20
3.368046875
 10
3.473046875
 20
3.368046875
 10
3.4642578125
 20
3.374853515625
 10
3.454609375
 20
3.3791015625
 10
3.4430078125
 20
3.3791015625
 10
3.4276953125
 20
3.3791015625
 10
3.4146875
 20
3.3734375
 10
3.405625
 20
3.362109375
 97
        0
 75
     2
 76
     1
 98
        0
  0
SPLINE
  5
5B
330
3C
100
AcDbEntity
  8
Layer 1
370
     0
100
AcDbSpline
210
0.0
220
0.0
230
1.0
 70
    11
 71
     3
 72
    47
 73
    43
 74
     0
 42
0.0000000001
 43
0.0000000001
 40
0.0
 40
0.0
 40
0.0
 40
0.0
 40
1.0
 40
1.0
 40
1.0
 40
2.0
 40
2.0
 40
2.0
 40
3.0
 40
3.0
 40
3.0
 40
4.0
 40
4.0
 40
4.0
 40
5.0
 40
5.0
 40
5.0
 40
6.0
 40
6.0
 40
6.0
 40
7.0
 40
7.0
 40
7.0
 40
8.0
 40
8.0
 40
8.0
 40
9.0
 40
9.0
 40
9.0
 40
10.0
 40
10.0
 40
10.0
 40
11.0
 40
11.0
 40
11.0
 40
12.0
 40
12.0
 40
12.0
 40
13.0
 40
13.0
 40
13.0
 40
14.0
 40
14.0
 40
14.0
 40
14.0
 10
3.284609375
 20
3.3791015625
 30
0.0
 10
3.2630859375
 20
3.3791015625
 30
0.0
 10
3.2471875
 20
3.3734375
 30
0.0
 10
3.2361328125
 20
3.358134765625
 30
0.0
 10
3.2361328125
 20
3.358134765625
 30
0.0
 10
3.258828125
 20
3.340859375
 30
0.0
 10
3.258828125
 20
3.340859375
 30
0.0
 10
3.26390625
 20
3.3490625
 30
0.0
 10
3.2709765625
 20
3.351923828125
 30
0.0
 10
3.286015625
 20
3.351923828125
 30
0.0
 10
3.3066796875
 20
3.351923828125
 30
0.0
 10
3.31546875
 20
3.3470703125
 30
0.0
 10
3.31546875
 20
3.3334765625
 30
0.0
 10
3.31546875
 20
3.3334765625
 30
0.0
 10
3.31546875
 20
3.3184765625
 30
0.0
 10
3.31546875
 20
3.3184765625
 30
0.0
 10
3.31546875
 20
3.3184765625
 30
0.0
 10
3.275546875
 20
3.3184765625
 30
0.0
 10
3.275546875
 20
3.3184765625
 30
0.0
 10
3.2446484375
 20
3.3184765625
 30
0.0
 10
3.2287890625
 20
3.29890625
 30
0.0
 10
3.2287890625
 20
3.2759765625
 30
0.0
 10
3.2287890625
 20
3.251025390625
 30
0.0
 10
3.2474609375
 20
3.23203125
 30
0.0
 10
3.2794921875
 20
3.23203125
 30
0.0
 10
3.2990234375
 20
3.23203125
 30
0.0
 10
3.308984375
 20
3.2365625
 30
0.0
 10
3.314921875
 20
3.246533203125
 30
0.0
 10
3.314921875
 20
3.246533203125
 30
0.0
 10
3.31546875
 20
3.246533203125
 30
0.0
 10
3.31546875
 20
3.246533203125
 30
0.0
 10
3.31546875
 20
3.246533203125
 30
0.0
 10
3.31546875
 20
3.23375
 30
0.0
 10
3.31546875
 20
3.23375
 30
0.0
 10
3.31546875
 20
3.23375
 30
0.0
 10
3.344375
 20
3.23375
 30
0.0
 10
3.344375
 20
3.23375
 30
0.0
 10
3.344375
 20
3.23375
 30
0.0
 10
3.344375
 20
3.331796875
 30
0.0
 10
3.344375
 20
3.331796875
 30
0.0
 10
3.344375
 20
3.3671875
 30
0.0
 10
3.32
 20
3.3791015625
 30
0.0
 10
3.284609375
 20
3.3791015625
 30
0.0
  0
HATCH
  5
5C
330
3C
100
AcDbEntity
  8
Layer 1
 62
   134
420
    39344
100
AcDbHatch
 10
0.0
 20
0.0
 30
0.0
210
0.0
220
0.0
230
1.0
  2
SOLID
 70
     1
 71
     0
 91
        1
 92
        1
 93
        1
 72
     4
 94
        3
 73
     0
 74
     1
 95
       47
 96
       43
 40
0.0
 40
0.0
 40
0.0
 40
0.0
 40
1.0
 40
1.0
 40
1.0
 40
2.0
 40
2.0
 40
2.0
 40
3.0
 40
3.0
 40
3.0
 40
4.0
 40
4.0
 40
4.0
 40
5.0
 40
5.0
 40
5.0
 40
6.0
 40
6.0
 40
6.0
 40
7.0
 40
7.0
 40
7.0
 40
8.0
 40
8.0
 40
8.0
 40
9.0
 40
9.0
 40
9.0
 40
10.0
 40
10.0
 40
10.0
 40
11.0
 40
11.0
 40
11.0
 40
12.0
 40
12.0
 40
12.0
 40
13.0
 40
13.0
 40
13.0
 40
14.0
 40
14.0
 40
14.0
 40
14.0
 10
3.284609375
 20
3.3791015625
 10
3.2630859375
 20
3.3791015625
 10
3.2471875
 20
3.3734375
 10
3.2361328125
 20
3.358134765625
 10
3.2361328125
 20
3.358134765625
 10
3.258828125
 20
3.340859375
 10
3.258828125
 20
3.340859375
 10
3.26390625
 20
3.3490625
 10
3.2709765625
 20
3.351923828125
 10
3.286015625
 20
3.351923828125
 10
3.3066796875
 20
3.351923828125
 10
3.31546875
 20
3.3470703125
 10
3.31546875
 20
3.3334765625
 10
3.31546875
 20
3.3334765625
 10
3.31546875
 20
3.3184765625
 10
3.31546875
 20
3.3184765625
 10
3.31546875
 20
3.3184765625
 10
3.275546875
 20
3.3184765625
 10
3.275546875
 20
3.3184765625
 10
3.2446484375
 20
3.3184765625
 10
3.2287890625
 20
3.29890625
 10
3.2287890625
 20
3.2759765625
 10
3.2287890625
 20
3.251025390625
 10
3.2474609375
 20
3.23203125
 10
3.2794921875
 20
3.23203125
 10
3.2990234375
 20
3.23203125
 10
3.308984375
 20
3.2365625
 10
3.314921875
 20
3.246533203125
 10
3.314921875
 20
3.246533203125
 10
3.31546875
 20
3.246533203125
 10
3.31546875
 20
3.246533203125
 10
3.31546875
 20
3.246533203125
 10
3.31546875
 20
3.23375
 10
3.31546875
 20
3.23375
 10
3.31546875
 20
3.23375
 10
3.344375
 20
3.23375
 10
3.344375
 20
3.23375
 10
3.344375
 20
3.23375
 10
3.344375
 20
3.331796875
 10
3.344375
 20
3.331796875
 10
3.344375
 20
3.3671875
 10
3.32
 20
3.3791015625
 10
3.284609375
 20
3.3791015625
 97
        0
 75
     2
 76
     1
 98
        0
  0
POLYLINE
  5
5D
330
3C
100
AcDbEntity
  8
Layer 1
370
     0
100
AcDb2dPolyline
 66
     1
 10
0.0
 20
0.0
 30
0.0
  0
VERTEX
  5
5E
330
5D
100
AcDbEntity
  8
Layer 1
370
     0
100
AcDbVertex
100
AcDb2dVertex
 10
3.1684765625
 20
3.276796875
 30
0.0
  0
VERTEX
  5
5F
330
5D
100
AcDbEntity
  8
Layer 1
370
     0
100
AcDbVertex
100
AcDb2dVertex
 10
3.167890625
 20
3.276796875
 30
0.0
  0
VERTEX
  5
60
330
5D
100
AcDbEntity
  8
Layer 1
370
     0
100
AcDbVertex
100
AcDb2dVertex
 10
3.1353125
 20
3.3773828125
 30
0.0
  0
VERTEX
  5
61
330
5D
100
AcDbEntity
  8
Layer 1
370
     0
100
AcDbVertex
100
AcDb2dVertex
 10
3.1143359375
 20
3.3773828125
 30
0.0
  0
VERTEX
  5
62
330
5D
100
AcDbEntity
  8
Layer 1
370
     0
100
AcDbVertex
100
AcDb2dVertex
 10
3.0817578125
 20
3.276796875
 30
0.0
  0
VERTEX
  5
63
330
5D
100
AcDbEntity
  8
Layer 1
370
     0
100
AcDbVertex
100
AcDb2dVertex
 10
3.0812109375
 20
3.276796875
 30
0.0
  0
VERTEX
  5
64
330
5D
100
AcDbEntity
  8
Layer 1
370
     0
100
AcDbVertex
100
AcDb2dVertex
 10
3.0537109375
 20
3.3773828125
 30
0.0
  0
VERTEX
  5
65
330
5D
100
AcDbEntity
  8
Layer 1
370
     0
100
AcDbVertex
100
AcDb2dVertex
 10
3.0231298828125
 20
3.3773828125
 30
0.0
  0
VERTEX
  5
66
330
5D
100
AcDbEntity
  8
Layer 1
370
     0
100
AcDbVertex
100
AcDb2dVertex
 10
3.0690234375
 20
3.23375
 30
0.0
  0
VERTEX
  5
67
330
5D
100
AcDbEntity
  8
Layer 1
370
     0
100
AcDbVertex
100
AcDb2dVertex
 10
3.09453125
 20
3.23375
 30
0.0
  0
VERTEX
  5
68
330
5D
100
AcDbEntity
  8
Layer 1
370
     0
100
AcDbVertex
100
AcDb2dVertex
 10
3.12453125
 20
3.3343359375
 30
0.0
  0
VERTEX
  5
69
330
5D
100
AcDbEntity
  8
Layer 1
370
     0
100
AcDbVertex
100
AcDb2dVertex
 10
3.1251171875
 20
3.3343359375
 30
0.0
  0
VERTEX
  5
6A
330
5D
100
AcDbEntity
  8
Layer 1
370
     0
100
AcDbVertex
100
AcDb2dVertex
 10
3.15515625
 20
3.23375
 30
0.0
  0
VERTEX
  5
6B
330
5D
100
AcDbEntity
  8
Layer 1
370
     0
100
AcDbVertex
100
AcDb2dVertex
 10
3.1806640625
 20
3.23375
 30
0.0
  0
VERTEX
  5
6C
330
5D
100
AcDbEntity
  8
Layer 1
370
     0
100
AcDbVertex
100
AcDb2dVertex
 10
3.2265625
 20
3.3773828125
 30
0.0
  0
VERTEX
  5
6D
330
5D
100
AcDbEntity
  8
Layer 1
370
     0
100
AcDbVertex
100
AcDb2dVertex
 10
3.1959375
 20
3.3773828125
 30
0.0
  0
VERTEX
  5
6E
330
5D
100
AcDbEntity
  8
Layer 1
370
     0
100
AcDbVertex
100
AcDb2dVertex
 10
3.1684765625
 20
3.276796875
 30
0.0
  0
SEQEND
  5
6F
330
5D
100
AcDbEntity
  8
Layer 1
370
     0
  0
HATCH
  5
70
330
3C
100
AcDbEntity
  8
Layer 1
 62
   134
420
    39344
100
AcDbHatch
 10
0.0
 20
0.0
 30
0.0
210
0.0
220
0.0
230
1.0
  2
SOLID
 70
     1
 71
     0
 91
        1
 92
        1
 93
       16
 72
     1
 10
3.1684765625
 20
3.276796875
 11
3.167890625
 21
3.276796875
 72
     1
 10
3.167890625
 20
3.276796875
 11
3.1353125
 21
3.3773828125
 72
     1
 10
3.1353125
 20
3.3773828125
 11
3.1143359375
 21
3.3773828125
 72
     1
 10
3.1143359375
 20
3.3773828125
 11
3.0817578125
 21
3.276796875
 72
     1
 10
3.0817578125
 20
3.276796875
 11
3.0812109375
 21
3.276796875
 72
     1
 10
3.0812109375
 20
3.276796875
 11
3.0537109375
 21
3.3773828125
 72
     1
 10
3.0537109375
 20
3.3773828125
 11
3.0231298828125
 21
3.3773828125
 72
     1
 10
3.0231298828125
 20
3.3773828125
 11
3.0690234375
 21
3.23375
 72
     1
 10
3.0690234375
 20
3.23375
 11
3.09453125
 21
3.23375
 72
     1
 10
3.09453125
 20
3.23375
 11
3.12453125
 21
3.3343359375
 72
     1
 10
3.12453125
 20
3.3343359375
 11
3.1251171875
 21
3.3343359375
 72
     1
 10
3.1251171875
 20
3.3343359375
 11
3.15515625
 21
3.23375
 72
     1
 10
3.15515625
 20
3.23375
 11
3.1806640625
 21
3.23375
 72
     1
 10
3.1806640625
 20
3.23375
 11
3.2265625
 21
3.3773828125
 72
     1
 10
3.2265625
 20
3.3773828125
 11
3.1959375
 21
3.3773828125
 72
     1
 10
3.1959375
 20
3.3773828125
 11
3.1684765625
 21
3.276796875
 97
        0
 75
     2
 76
     1
 98
        0
  0
SPLINE
  5
71
330
3C
100
AcDbEntity
  8
Layer 1
370
     0
100
AcDbSpline
210
0.0
220
0.0
230
1.0
 70
    11
 71
     3
 72
    38
 73
    34
 74
     0
 42
0.0000000001
 43
0.0000000001
 40
0.0
 40
0.0
 40
0.0
 40
0.0
 40
1.0
 40
1.0
 40
1.0
 40
2.0
 40
2.0
 40
2.0
 40
3.0
 40
3.0
 40
3.0
 40
4.0
 40
4.0
 40
4.0
 40
5.0
 40
5.0
 40
5.0
 40
6.0
 40
6.0
 40
6.0
 40
7.0
 40
7.0
 40
7.0
 40
8.0
 40
8.0
 40
8.0
 40
9.0
 40
9.0
 40
9.0
 40
10.0
 40
10.0
 40
10.0
 40
11.0
 40
11.0
 40
11.0
 40
11.0
 10
2.97875
 20
3.362109375
 30
0.0
 10
2.9680078125
 20
3.372314453125
 30
0.0
 10
2.9563671875
 20
3.3791015625
 30
0.0
 10
2.941640625
 20
3.3791015625
 30
0.0
 10
2.9240576171875
 20
3.3791015625
 30
0.0
 10
2.911328125
 20
3.371171875
 30
0.0
 10
2.9031298828125
 20
3.360390625
 30
0.0
 10
2.8952001953125
 20
3.350205078125
 30
0.0
 10
2.8929296875
 20
3.340859375
 30
0.0
 10
2.8929296875
 20
3.305712890625
 30
0.0
 10
2.8929296875
 20
3.2703125
 30
0.0
 10
2.8952001953125
 20
3.2609375
 30
0.0
 10
2.9031298828125
 20
3.2507421875
 30
0.0
 10
2.911328125
 20
3.24
 30
0.0
 10
2.9240576171875
 20
3.23203125
 30
0.0
 10
2.941640625
 20
3.23203125
 30
0.0
 10
2.9563671875
 20
3.23203125
 30
0.0
 10
2.9696875
 20
3.2388671875
 30
0.0
 10
2.97875
 20
3.24875
 30
0.0
 10
2.97875
 20
3.24875
 30
0.0
 10
2.97875
 20
3.23375
 30
0.0
 10
2.97875
 20
3.23375
 30
0.0
 10
2.97875
 20
3.23375
 30
0.0
 10
3.0076611328125
 20
3.23375
 30
0.0
 10
3.0076611328125
 20
3.23375
 30
0.0
 10
3.0076611328125
 20
3.23375
 30
0.0
 10
3.0076611328125
 20
3.43546875
 30
0.0
 10
3.0076611328125
 20
3.43546875
 30
0.0
 10
3.0076611328125
 20
3.43546875
 30
0.0
 10
2.97875
 20
3.43546875
 30
0.0
 10
2.97875
 20
3.43546875
 30
0.0
 10
2.97875
 20
3.43546875
 30
0.0
 10
2.97875
 20
3.362109375
 30
0.0
 10
2.97875
 20
3.362109375
 30
0.0
  0
HATCH
  5
72
330
3C
100
AcDbEntity
  8
Layer 1
 62
   134
420
    39344
100
AcDbHatch
 10
0.0
 20
0.0
 30
0.0
210
0.0
220
0.0
230
1.0
  2
SOLID
 70
     1
 71
     0
 91
        1
 92
        1
 93
        1
 72
     4
 94
        3
 73
     0
 74
     1
 95
       38
 96
       34
 40
0.0
 40
0.0
 40
0.0
 40
0.0
 40
1.0
 40
1.0
 40
1.0
 40
2.0
 40
2.0
 40
2.0
 40
3.0
 40
3.0
 40
3.0
 40
4.0
 40
4.0
 40
4.0
 40
5.0
 40
5.0
 40
5.0
 40
6.0
 40
6.0
 40
6.0
 40
7.0
 40
7.0
 40
7.0
 40
8.0
 40
8.0
 40
8.0
 40
9.0
 40
9.0
 40
9.0
 40
10.0
 40
10.0
 40
10.0
 40
11.0
 40
11.0
 40
11.0
 40
11.0
 10
2.97875
 20
3.362109375
 10
2.9680078125
 20
3.372314453125
 10
2.9563671875
 20
3.3791015625
 10
2.941640625
 20
3.3791015625
 10
2.9240576171875
 20
3.3791015625
 10
2.911328125
 20
3.371171875
 10
2.9031298828125
 20
3.360390625
 10
2.8952001953125
 20
3.350205078125
 10
2.8929296875
 20
3.340859375
 10
2.8929296875
 20
3.305712890625
 10
2.8929296875
 20
3.2703125
 10
2.8952001953125
 20
3.2609375
 10
2.9031298828125
 20
3.2507421875
 10
2.911328125
 20
3.24
 10
2.9240576171875
 20
3.23203125
 10
2.941640625
 20
3.23203125
 10
2.9563671875
 20
3.23203125
 10
2.9696875
 20
3.2388671875
 10
2.97875
 20
3.24875
 10
2.97875
 20
3.24875
 10
2.97875
 20
3.23375
 10
2.97875
 20
3.23375
 10
2.97875
 20
3.23375
 10
3.0076611328125
 20
3.23375
 10
3.0076611328125
 20
3.23375
 10
3.0076611328125
 20
3.23375
 10
3.0076611328125
 20
3.43546875
 10
3.0076611328125
 20
3.43546875
 10
3.0076611328125
 20
3.43546875
 10
2.97875
 20
3.43546875
 10
2.97875
 20
3.43546875
 10
2.97875
 20
3.43546875
 10
2.97875
 20
3.362109375
 10
2.97875
 20
3.362109375
 97
        0
 75
     2
 76
     1
 98
        0
  0
SPLINE
  5
73
330
3C
100
AcDbEntity
  8
Layer 1
370
     0
100
AcDbSpline
210
0.0
220
0.0
230
1.0
 70
    11
 71
     3
 72
    38
 73
    34
 74
     0
 42
0.0000000001
 43
0.0000000001
 40
0.0
 40
0.0
 40
0.0
 40
0.0
 40
1.0
 40
1.0
 40
1.0
 40
2.0
 40
2.0
 40
2.0
 40
3.0
 40
3.0
 40
3.0
 40
4.0
 40
4.0
 40
4.0
 40
5.0
 40
5.0
 40
5.0
 40
6.0
 40
6.0
 40
6.0
 40
7.0
 40
7.0
 40
7.0
 40
8.0
 40
8.0
 40
8.0
 40
9.0
 40
9.0
 40
9.0
 40
10.0
 40
10.0
 40
10.0
 40
11.0
 40
11.0
 40
11.0
 40
11.0
 10
2.8248779296875
 20
3.362109375
 30
0.0
 10
2.8248779296875
 20
3.362109375
 30
0.0
 10
2.8243408203125
 20
3.362109375
 30
0.0
 10
2.8243408203125
 20
3.362109375
 30
0.0
 10
2.8243408203125
 20
3.362109375
 30
0.0
 10
2.8243408203125
 20
3.3773828125
 30
0.0
 10
2.8243408203125
 20
3.3773828125
 30
0.0
 10
2.8243408203125
 20
3.3773828125
 30
0.0
 10
2.7954296875
 20
3.3773828125
 30
0.0
 10
2.7954296875
 20
3.3773828125
 30
0.0
 10
2.7954296875
 20
3.3773828125
 30
0.0
 10
2.7954296875
 20
3.23375
 30
0.0
 10
2.7954296875
 20
3.23375
 30
0.0
 10
2.7954296875
 20
3.23375
 30
0.0
 10
2.8243408203125
 20
3.23375
 30
0.0
 10
2.8243408203125
 20
3.23375
 30
0.0
 10
2.8243408203125
 20
3.23375
 30
0.0
 10
2.8243408203125
 20
3.320205078125
 30
0.0
 10
2.8243408203125
 20
3.320205078125
 30
0.0
 10
2.8243408203125
 20
3.3411328125
 30
0.0
 10
2.8381982421875
 20
3.350205078125
 30
0.0
 10
2.8523779296875
 20
3.350205078125
 30
0.0
 10
2.8597314453125
 20
3.350205078125
 30
0.0
 10
2.8645703125
 20
3.3482421875
 30
0.0
 10
2.8713720703125
 20
3.343134765625
 30
0.0
 10
2.8713720703125
 20
3.343134765625
 30
0.0
 10
2.8922998046875
 20
3.368046875
 30
0.0
 10
2.8922998046875
 20
3.368046875
 30
0.0
 10
2.8835498046875
 20
3.374853515625
 30
0.0
 10
2.8739111328125
 20
3.3791015625
 30
0.0
 10
2.8622998046875
 20
3.3791015625
 30
0.0
 10
2.8469921875
 20
3.3791015625
 30
0.0
 10
2.8339501953125
 20
3.3734375
 30
0.0
 10
2.8248779296875
 20
3.362109375
 30
0.0
  0
HATCH
  5
74
330
3C
100
AcDbEntity
  8
Layer 1
 62
   134
420
    39344
100
AcDbHatch
 10
0.0
 20
0.0
 30
0.0
210
0.0
220
0.0
230
1.0
  2
SOLID
 70
     1
 71
     0
 91
        1
 92
        1
 93
        1
 72
     4
 94
        3
 73
     0
 74
     1
 95
       38
 96
       34
 40
0.0
 40
0.0
 40
0.0
 40
0.0
 40
1.0
 40
1.0
 40
1.0
 40
2.0
 40
2.0
 40
2.0
 40
3.0
 40
3.0
 40
3.0
 40
4.0
 40
4.0
 40
4.0
 40
5.0
 40
5.0
 40
5.0
 40
6.0
 40
6.0
 40
6.0
 40
7.0
 40
7.0
 40
7.0
 40
8.0
 40
8.0
 40
8.0
 40
9.0
 40
9.0
 40
9.0
 40
10.0
 40
10.0
 40
10.0
 40
11.0
 40
11.0
 40
11.0
 40
11.0
 10
2.8248779296875
 20
3.362109375
 10
2.8248779296875
 20
3.362109375
 10
2.8243408203125
 20
3.362109375
 10
2.8243408203125
 20
3.362109375
 10
2.8243408203125
 20
3.362109375
 10
2.8243408203125
 20
3.3773828125
 10
2.8243408203125
 20
3.3773828125
 10
2.8243408203125
 20
3.3773828125
 10
2.7954296875
 20
3.3773828125
 10
2.7954296875
 20
3.3773828125
 10
2.7954296875
 20
3.3773828125
 10
2.7954296875
 20
3.23375
 10
2.7954296875
 20
3.23375
 10
2.7954296875
 20
3.23375
 10
2.8243408203125
 20
3.23375
 10
2.8243408203125
 20
3.23375
 10
2.8243408203125
 20
3.23375
 10
2.8243408203125
 20
3.320205078125
 10
2.8243408203125
 20
3.320205078125
 10
2.8243408203125
 20
3.3411328125
 10
2.8381982421875
 20
3.350205078125
 10
2.8523779296875
 20
3.350205078125
 10
2.8597314453125
 20
3.350205078125
 10
2.8645703125
 20
3.3482421875
 10
2.8713720703125
 20
3.343134765625
 10
2.8713720703125
 20
3.343134765625
 10
2.8922998046875
 20
3.368046875
 10
2.8922998046875
 20
3.368046875
 10
2.8835498046875
 20
3.374853515625
 10
2.8739111328125
 20
3.3791015625
 10
2.8622998046875
 20
3.3791015625
 10
2.8469921875
 20
3.3791015625
 10
2.8339501953125
 20
3.3734375
 10
2.8248779296875
 20
3.362109375
 97
        0
 75
     2
 76
     1
 98
        0
  0
SPLINE
  5
75
330
3C
100
AcDbEntity
  8
Layer 1
370
     0
100
AcDbSpline
210
0.0
220
0.0
230
1.0
 70
    11
 71
     3
 72
    47
 73
    43
 74
     0
 42
0.0000000001
 43
0.0000000001
 40
0.0
 40
0.0
 40
0.0
 40
0.0
 40
1.0
 40
1.0
 40
1.0
 40
2.0
 40
2.0
 40
2.0
 40
3.0
 40
3.0
 40
3.0
 40
4.0
 40
4.0
 40
4.0
 40
5.0
 40
5.0
 40
5.0
 40
6.0
 40
6.0
 40
6.0
 40
7.0
 40
7.0
 40
7.0
 40
8.0
 40
8.0
 40
8.0
 40
9.0
 40
9.0
 40
9.0
 40
10.0
 40
10.0
 40
10.0
 40
11.0
 40
11.0
 40
11.0
 40
12.0
 40
12.0
 40
12.0
 40
13.0
 40
13.0
 40
13.0
 40
14.0
 40
14.0
 40
14.0
 40
14.0
 10
2.7039111328125
 20
3.3791015625
 30
0.0
 10
2.6823388671875
 20
3.3791015625
 30
0.0
 10
2.6664794921875
 20
3.3734375
 30
0.0
 10
2.6554296875
 20
3.358134765625
 30
0.0
 10
2.6554296875
 20
3.358134765625
 30
0.0
 10
2.6781298828125
 20
3.340859375
 30
0.0
 10
2.6781298828125
 20
3.340859375
 30
0.0
 10
2.6831982421875
 20
3.3490625
 30
0.0
 10
2.6903125
 20
3.351923828125
 30
0.0
 10
2.7053125
 20
3.351923828125
 30
0.0
 10
2.7259814453125
 20
3.351923828125
 30
0.0
 10
2.7347705078125
 20
3.3470703125
 30
0.0
 10
2.7347705078125
 20
3.3334765625
 30
0.0
 10
2.7347705078125
 20
3.3334765625
 30
0.0
 10
2.7347705078125
 20
3.3184765625
 30
0.0
 10
2.7347705078125
 20
3.3184765625
 30
0.0
 10
2.7347705078125
 20
3.3184765625
 30
0.0
 10
2.6947998046875
 20
3.3184765625
 30
0.0
 10
2.6947998046875
 20
3.3184765625
 30
0.0
 10
2.6639501953125
 20
3.3184765625
 30
0.0
 10
2.6480908203125
 20
3.29890625
 30
0.0
 10
2.6480908203125
 20
3.2759765625
 30
0.0
 10
2.6480908203125
 20
3.251025390625
 30
0.0
 10
2.6667578125
 20
3.23203125
 30
0.0
 10
2.6987890625
 20
3.23203125
 30
0.0
 10
2.718359375
 20
3.23203125
 30
0.0
 10
2.72828125
 20
3.2365625
 30
0.0
 10
2.73421875
 20
3.246533203125
 30
0.0
 10
2.73421875
 20
3.246533203125
 30
0.0
 10
2.7347705078125
 20
3.246533203125
 30
0.0
 10
2.7347705078125
 20
3.246533203125
 30
0.0
 10
2.7347705078125
 20
3.246533203125
 30
0.0
 10
2.7347705078125
 20
3.23375
 30
0.0
 10
2.7347705078125
 20
3.23375
 30
0.0
 10
2.7347705078125
 20
3.23375
 30
0.0
 10
2.763671875
 20
3.23375
 30
0.0
 10
2.763671875
 20
3.23375
 30
0.0
 10
2.763671875
 20
3.23375
 30
0.0
 10
2.763671875
 20
3.331796875
 30
0.0
 10
2.763671875
 20
3.331796875
 30
0.0
 10
2.763671875
 20
3.3671875
 30
0.0
 10
2.7393017578125
 20
3.3791015625
 30
0.0
 10
2.7039111328125
 20
3.3791015625
 30
0.0
  0
HATCH
  5
76
330
3C
100
AcDbEntity
  8
Layer 1
 62
   134
420
    39344
100
AcDbHatch
 10
0.0
 20
0.0
 30
0.0
210
0.0
220
0.0
230
1.0
  2
SOLID
 70
     1
 71
     0
 91
        1
 92
        1
 93
        1
 72
     4
 94
        3
 73
     0
 74
     1
 95
       47
 96
       43
 40
0.0
 40
0.0
 40
0.0
 40
0.0
 40
1.0
 40
1.0
 40
1.0
 40
2.0
 40
2.0
 40
2.0
 40
3.0
 40
3.0
 40
3.0
 40
4.0
 40
4.0
 40
4.0
 40
5.0
 40
5.0
 40
5.0
 40
6.0
 40
6.0
 40
6.0
 40
7.0
 40
7.0
 40
7.0
 40
8.0
 40
8.0
 40
8.0
 40
9.0
 40
9.0
 40
9.0
 40
10.0
 40
10.0
 40
10.0
 40
11.0
 40
11.0
 40
11.0
 40
12.0
 40
12.0
 40
12.0
 40
13.0
 40
13.0
 40
13.0
 40
14.0
 40
14.0
 40
14.0
 40
14.0
 10
2.7039111328125
 20
3.3791015625
 10
2.6823388671875
 20
3.3791015625
 10
2.6664794921875
 20
3.3734375
 10
2.6554296875
 20
3.358134765625
 10
2.6554296875
 20
3.358134765625
 10
2.6781298828125
 20
3.340859375
 10
2.6781298828125
 20
3.340859375
 10
2.6831982421875
 20
3.3490625
 10
2.6903125
 20
3.351923828125
 10
2.7053125
 20
3.351923828125
 10
2.7259814453125
 20
3.351923828125
 10
2.7347705078125
 20
3.3470703125
 10
2.7347705078125
 20
3.3334765625
 10
2.7347705078125
 20
3.3334765625
 10
2.7347705078125
 20
3.3184765625
 10
2.7347705078125
 20
3.3184765625
 10
2.7347705078125
 20
3.3184765625
 10
2.6947998046875
 20
3.3184765625
 10
2.6947998046875
 20
3.3184765625
 10
2.6639501953125
 20
3.3184765625
 10
2.6480908203125
 20
3.29890625
 10
2.6480908203125
 20
3.2759765625
 10
2.6480908203125
 20
3.251025390625
 10
2.6667578125
 20
3.23203125
 10
2.6987890625
 20
3.23203125
 10
2.718359375
 20
3.23203125
 10
2.72828125
 20
3.2365625
 10
2.73421875
 20
3.246533203125
 10
2.73421875
 20
3.246533203125
 10
2.7347705078125
 20
3.246533203125
 10
2.7347705078125
 20
3.246533203125
 10
2.7347705078125
 20
3.246533203125
 10
2.7347705078125
 20
3.23375
 10
2.7347705078125
 20
3.23375
 10
2.7347705078125
 20
3.23375
 10
2.763671875
 20
3.23375
 10
2.763671875
 20
3.23375
 10
2.763671875
 20
3.23375
 10
2.763671875
 20
3.331796875
 10
2.763671875
 20
3.331796875
 10
2.763671875
 20
3.3671875
 10
2.7393017578125
 20
3.3791015625
 10
2.7039111328125
 20
3.3791015625
 97
        0
 75
     2
 76
     1
 98
        0
  0
SPLINE
  5
77
330
3C
100
AcDbEntity
  8
Layer 1
370
     0
100
AcDbSpline
210
0.0
220
0.0
230
1.0
 70
    11
 71
     3
 72
   218
 73
   214
 74
     0
 42
0.0000000001
 43
0.0000000001
 40
0.0
 40
0.0
 40
0.0
 40
0.0
 40
1.0
 40
1.0
 40
1.0
 40
2.0
 40
2.0
 40
2.0
 40
3.0
 40
3.0
 40
3.0
 40
4.0
 40
4.0
 40
4.0
 40
5.0
 40
5.0
 40
5.0
 40
6.0
 40
6.0
 40
6.0
 40
7.0
 40
7.0
 40
7.0
 40
8.0
 40
8.0
 40
8.0
 40
9.0
 40
9.0
 40
9.0
 40
10.0
 40
10.0
 40
10.0
 40
11.0
 40
11.0
 40
11.0
 40
12.0
 40
12.0
 40
12.0
 40
13.0
 40
13.0
 40
13.0
 40
14.0
 40
14.0
 40
14.0
 40
15.0
 40
15.0
 40
15.0
 40
16.0
 40
16.0
 40
16.0
 40
17.0
 40
17.0
 40
17.0
 40
18.0
 40
18.0
 40
18.0
 40
19.0
 40
19.0
 40
19.0
 40
20.0
 40
20.0
 40
20.0
 40
21.0
 40
21.0
 40
21.0
 40
22.0
 40
22.0
 40
22.0
 40
23.0
 40
23.0
 40
23.0
 40
24.0
 40
24.0
 40
24.0
 40
25.0
 40
25.0
 40
25.0
 40
26.0
 40
26.0
 40
26.0
 40
27.0
 40
27.0
 40
27.0
 40
28.0
 40
28.0
 40
28.0
 40
29.0
 40
29.0
 40
29.0
 40
30.0
 40
30.0
 40
30.0
 40
31.0
 40
31.0
 40
31.0
 40
32.0
 40
32.0
 40
32.0
 40
33.0
 40
33.0
 40
33.0
 40
34.0
 40
34.0
 40
34.0
 40
35.0
 40
35.0
 40
35.0
 40
36.0
 40
36.0
 40
36.0
 40
37.0
 40
37.0
 40
37.0
 40
38.0
 40
38.0
 40
38.0
 40
39.0
 40
39.0
 40
39.0
 40
40.0
 40
40.0
 40
40.0
 40
41.0
 40
41.0
 40
41.0
 40
42.0
 40
42.0
 40
42.0
 40
43.0
 40
43.0
 40
43.0
 40
44.0
 40
44.0
 40
44.0
 40
45.0
 40
45.0
 40
45.0
 40
46.0
 40
46.0
 40
46.0
 40
47.0
 40
47.0
 40
47.0
 40
48.0
 40
48.0
 40
48.0
 40
49.0
 40
49.0
 40
49.0
 40
50.0
 40
50.0
 40
50.0
 40
51.0
 40
51.0
 40
51.0
 40
52.0
 40
52.0
 40
52.0
 40
53.0
 40
53.0
 40
53.0
 40
54.0
 40
54.0
 40
54.0
 40
55.0
 40
55.0
 40
55.0
 40
56.0
 40
56.0
 40
56.0
 40
57.0
 40
57.0
 40
57.0
 40
58.0
 40
58.0
 40
58.0
 40
59.0
 40
59.0
 40
59.0
 40
60.0
 40
60.0
 40
60.0
 40
61.0
 40
61.0
 40
61.0
 40
62.0
 40
62.0
 40
62.0
 40
63.0
 40
63.0
 40
63.0
 40
64.0
 40
64.0
 40
64.0
 40
65.0
 40
65.0
 40
65.0
 40
66.0
 40
66.0
 40
66.0
 40
67.0
 40
67.0
 40
67.0
 40
68.0
 40
68.0
 40
68.0
 40
69.0
 40
69.0
 40
69.0
 40
70.0
 40
70.0
 40
70.0
 40
71.0
 40
71.0
 40
71.0
 40
71.0
 10
2.7372314453125
 20
3.7170703125
 30
0.0
 10
2.7372314453125
 20
3.7170703125
 30
0.0
 10
2.8415185546875
 20
3.788671875
 30
0.0
 10
2.8415185546875
 20
3.788671875
 30
0.0
 10
2.84421875
 20
3.7905078125
 30
0.0
 10
2.8487109375
 20
3.790673828125
 30
0.0
 10
2.8515185546875
 20
3.789033203125
 30
0.0
 10
2.8515185546875
 20
3.789033203125
 30
0.0
 10
2.8975
 20
3.764462890625
 30
0.0
 10
2.8975
 20
3.764462890625
 30
0.0
 10
2.9004296875
 20
3.76296875
 30
0.0
 10
2.903828125
 20
3.76421875
 30
0.0
 10
2.905078125
 20
3.7672265625
 30
0.0
 10
2.905078125
 20
3.7672265625
 30
0.0
 10
2.999921875
 20
3.9964111328125
 30
0.0
 10
2.999921875
 20
3.9964111328125
 30
0.0
 10
3.001171875
 20
3.9994189453125
 30
0.0
 10
2.999921875
 20
4.00328125
 30
0.0
 10
2.9971484375
 20
4.0049609375
 30
0.0
 10
2.9971484375
 20
4.0049609375
 30
0.0
 10
2.9856298828125
 20
4.01203125
 30
0.0
 10
2.9856298828125
 20
4.01203125
 30
0.0
 10
2.9834814453125
 20
4.0133203125
 30
0.0
 10
2.9806298828125
 20
4.0155517578125
 30
0.0
 10
2.978359375
 20
4.0176220703125
 30
0.0
 10
2.9368017578125
 20
4.0441796875
 30
0.0
 10
2.9092578125
 20
4.090712890625
 30
0.0
 10
2.9092578125
 20
4.143671875
 30
0.0
 10
2.9092578125
 20
4.2263720703125
 30
0.0
 10
2.9762890625
 20
4.293359375000001
 30
0.0
 10
3.0589501953125
 20
4.293359375000001
 30
0.0
 10
3.1416015625
 20
4.293359375000001
 30
0.0
 10
3.2086328125
 20
4.2263720703125
 30
0.0
 10
3.2086328125
 20
4.143671875
 30
0.0
 10
3.2086328125
 20
4.090712890625
 30
0.0
 10
3.18109375
 20
4.0441796875
 30
0.0
 10
3.1395703125
 20
4.0176220703125
 30
0.0
 10
3.1373046875
 20
4.0155517578125
 30
0.0
 10
3.1344140625
 20
4.0133203125
 30
0.0
 10
3.1323046875
 20
4.01203125
 30
0.0
 10
3.1323046875
 20
4.01203125
 30
0.0
 10
3.12078125
 20
4.0049609375
 30
0.0
 10
3.12078125
 20
4.0049609375
 30
0.0
 10
3.1180078125
 20
4.00328125
 30
0.0
 10
3.1167578125
 20
3.9994189453125
 30
0.0
 10
3.1180078125
 20
3.9964111328125
 30
0.0
 10
3.1180078125
 20
3.9964111328125
 30
0.0
 10
3.2128125
 20
3.7672265625
 30
0.0
 10
3.2128125
 20
3.7672265625
 30
0.0
 10
3.2140625
 20
3.76421875
 30
0.0
 10
3.2174609375
 20
3.76296875
 30
0.0
 10
3.220390625
 20
3.764462890625
 30
0.0
 10
3.220390625
 20
3.764462890625
 30
0.0
 10
3.26640625
 20
3.788994140625
 30
0.0
 10
3.26640625
 20
3.788994140625
 30
0.0
 10
3.26921875
 20
3.790634765625
 30
0.0
 10
3.2737109375
 20
3.7905078125
 30
0.0
 10
3.27640625
 20
3.788671875
 30
0.0
 10
3.27640625
 20
3.788671875
 30
0.0
 10
3.380703125
 20
3.7170703125
 30
0.0
 10
3.380703125
 20
3.7170703125
 30
0.0
 10
3.3833984375
 20
3.715244140625
 30
0.0
 10
3.3875
 20
3.715634765625
 30
0.0
 10
3.389765625
 20
3.717890625
 30
0.0
 10
3.389765625
 20
3.717890625
 30
0.0
 10
3.4855078125
 20
3.813603515625
 30
0.0
 10
3.4855078125
 20
3.813603515625
 30
0.0
 10
3.4878125
 20
3.8159375
 30
0.0
 10
3.488203125
 20
3.82
 30
0.0
 10
3.486328125
 20
3.822705078125
 30
0.0
 10
3.486328125
 20
3.822705078125
 30
0.0
 10
3.4134765625
 20
3.92890625
 30
0.0
 10
3.4134765625
 20
3.92890625
 30
0.0
 10
3.411640625
 20
3.9315625
 30
0.0
 10
3.4112890625
 20
3.936171875
 30
0.0
 10
3.412734375
 20
3.9391015625
 30
0.0
 10
3.412734375
 20
3.9391015625
 30
0.0
 10
3.4527734375
 20
4.039140625
 30
0.0
 10
3.4527734375
 20
4.039140625
 30
0.0
 10
3.45375
 20
4.0422705078125
 30
0.0
 10
3.4571484375
 20
4.0453125
 30
0.0
 10
3.460390625
 20
4.0458984375
 30
0.0
 10
3.460390625
 20
4.0458984375
 30
0.0
 10
3.588671875
 20
4.0697705078125
 30
0.0
 10
3.588671875
 20
4.0697705078125
 30
0.0
 10
3.591875
 20
4.0703515625
 30
0.0
 10
3.5944921875
 20
4.0735205078125
 30
0.0
 10
3.5944921875
 20
4.0768017578125
 30
0.0
 10
3.5944921875
 20
4.0768017578125
 30
0.0
 10
3.5944921875
 20
4.2121484375
 30
0.0
 10
3.5944921875
 20
4.2121484375
 30
0.0
 10
3.59453125
 20
4.215390625
 30
0.0
 10
3.591875
 20
4.2185595703125
 30
0.0
 10
3.588671875
 20
4.2191796875
 30
0.0
 10
3.588671875
 20
4.2191796875
 30
0.0
 10
3.4571875
 20
4.2436328125
 30
0.0
 10
3.4571875
 20
4.2436328125
 30
0.0
 10
3.453984375
 20
4.24421875
 30
0.0
 10
3.45046875
 20
4.2472314453125
 30
0.0
 10
3.449375
 20
4.2503125
 30
0.0
 10
3.449375
 20
4.2503125
 30
0.0
 10
3.4090625
 20
4.3443798828125
 30
0.0
 10
3.4090625
 20
4.3443798828125
 30
0.0
 10
3.407578125
 20
4.3472705078125
 30
0.0
 10
3.4078515625
 20
4.3518408203125
 30
0.0
 10
3.4097265625
 20
4.35453125
 30
0.0
 10
3.4097265625
 20
4.35453125
 30
0.0
 10
3.486328125
 20
4.466210937500001
 30
0.0
 10
3.486328125
 20
4.466210937500001
 30
0.0
 10
3.4881640625
 20
4.4689111328125
 30
0.0
 10
3.4878125
 20
4.4730126953125
 30
0.0
 10
3.4855078125
 20
4.4753125
 30
0.0
 10
3.4855078125
 20
4.4753125
 30
0.0
 10
3.3898046875
 20
4.5710205078125
 30
0.0
 10
3.3898046875
 20
4.5710205078125
 30
0.0
 10
3.3875
 20
4.5733203125
 30
0.0
 10
3.3833984375
 20
4.5737109375
 30
0.0
 10
3.380703125
 20
4.5718408203125
 30
0.0
 10
3.380703125
 20
4.5718408203125
 30
0.0
 10
3.2670703125
 20
4.4938720703125
 30
0.0
 10
3.2670703125
 20
4.4938720703125
 30
0.0
 10
3.264375
 20
4.49203125
 30
0.0
 10
3.259765625
 20
4.4916796875
 30
0.0
 10
3.256875
 20
4.4931298828125
 30
0.0
 10
3.256875
 20
4.4931298828125
 30
0.0
 10
3.165703125
 20
4.5304296875
 30
0.0
 10
3.165703125
 20
4.5304296875
 30
0.0
 10
3.1626171875
 20
4.5314892578125
 30
0.0
 10
3.1595703125
 20
4.534921875
 30
0.0
 10
3.158984375
 20
4.5381298828125
 30
0.0
 10
3.158984375
 20
4.5381298828125
 30
0.0
 10
3.133671875
 20
4.6741796875
 30
0.0
 10
3.133671875
 20
4.6741796875
 30
0.0
 10
3.133046875
 20
4.6773828125
 30
0.0
 10
3.129921875
 20
4.68
 30
0.0
 10
3.126640625
 20
4.68
 30
0.0
 10
3.126640625
 20
4.68
 30
0.0
 10
2.9912890625
 20
4.68
 30
0.0
 10
2.9912890625
 20
4.68
 30
0.0
 10
2.9880078125
 20
4.68
 30
0.0
 10
2.9848779296875
 20
4.6773828125
 30
0.0
 10
2.9842578125
 20
4.6741796875
 30
0.0
 10
2.9842578125
 20
4.6741796875
 30
0.0
 10
2.9589501953125
 20
4.5381298828125
 30
0.0
 10
2.9589501953125
 20
4.5381298828125
 30
0.0
 10
2.958359375
 20
4.534921875
 30
0.0
 10
2.9553515625
 20
4.5314892578125
 30
0.0
 10
2.9522314453125
 20
4.5304296875
 30
0.0
 10
2.9522314453125
 20
4.5304296875
 30
0.0
 10
2.8610498046875
 20
4.4931298828125
 30
0.0
 10
2.8610498046875
 20
4.4931298828125
 30
0.0
 10
2.8581298828125
 20
4.4916796875
 30
0.0
 10
2.8535205078125
 20
4.49203125
 30
0.0
 10
2.850859375
 20
4.4938720703125
 30
0.0
 10
2.850859375
 20
4.4938720703125
 30
0.0
 10
2.7372314453125
 20
4.5718408203125
 30
0.0
 10
2.7372314453125
 20
4.5718408203125
 30
0.0
 10
2.73453125
 20
4.5737109375
 30
0.0
 10
2.7304296875
 20
4.5733203125
 30
0.0
 10
2.7281298828125
 20
4.5710205078125
 30
0.0
 10
2.7281298828125
 20
4.5710205078125
 30
0.0
 10
2.632421875
 20
4.4753125
 30
0.0
 10
2.632421875
 20
4.4753125
 30
0.0
 10
2.6301220703125
 20
4.4730126953125
 30
0.0
 10
2.6297314453125
 20
4.4689111328125
 30
0.0
 10
2.6315576171875
 20
4.466210937500001
 30
0.0
 10
2.6315576171875
 20
4.466210937500001
 30
0.0
 10
2.7081982421875
 20
4.35453125
 30
0.0
 10
2.7081982421875
 20
4.35453125
 30
0.0
 10
2.7100390625
 20
4.3518408203125
 30
0.0
 10
2.7103515625
 20
4.3472705078125
 30
0.0
 10
2.708828125
 20
4.3443798828125
 30
0.0
 10
2.708828125
 20
4.3443798828125
 30
0.0
 10
2.6685205078125
 20
4.2503125
 30
0.0
 10
2.6685205078125
 20
4.2503125
 30
0.0
 10
2.6674609375
 20
4.2472314453125
 30
0.0
 10
2.6639501953125
 20
4.24421875
 30
0.0
 10
2.6607421875
 20
4.2436328125
 30
0.0
 10
2.6607421875
 20
4.2436328125
 30
0.0
 10
2.52921875
 20
4.2191796875
 30
0.0
 10
2.52921875
 20
4.2191796875
 30
0.0
 10
2.5260205078125
 20
4.2185595703125
 30
0.0
 10
2.5233984375
 20
4.215390625
 30
0.0
 10
2.5233984375
 20
4.2121484375
 30
0.0
 10
2.5233984375
 20
4.2121484375
 30
0.0
 10
2.5233984375
 20
4.0768017578125
 30
0.0
 10
2.5233984375
 20
4.0768017578125
 30
0.0
 10
2.5233984375
 20
4.0735205078125
 30
0.0
 10
2.5260205078125
 20
4.0703515625
 30
0.0
 10
2.5292578125
 20
4.0697705078125
 30
0.0
 10
2.5292578125
 20
4.0697705078125
 30
0.0
 10
2.6575390625
 20
4.0458984375
 30
0.0
 10
2.6575390625
 20
4.0458984375
 30
0.0
 10
2.6607421875
 20
4.0453125
 30
0.0
 10
2.664140625
 20
4.0422705078125
 30
0.0
 10
2.6651220703125
 20
4.039140625
 30
0.0
 10
2.6651220703125
 20
4.039140625
 30
0.0
 10
2.7052001953125
 20
3.9391015625
 30
0.0
 10
2.7052001953125
 20
3.9391015625
 30
0.0
 10
2.7066015625
 20
3.936171875
 30
0.0
 10
2.7062890625
 20
3.9316015625
 30
0.0
 10
2.7044091796875
 20
3.92890625
 30
0.0
 10
2.7044091796875
 20
3.92890625
 30
0.0
 10
2.6315576171875
 20
3.822705078125
 30
0.0
 10
2.6315576171875
 20
3.822705078125
 30
0.0
 10
2.6297314453125
 20
3.8200390625
 30
0.0
 10
2.630078125
 20
3.8159375
 30
0.0
 10
2.6323779296875
 20
3.8136328125
 30
0.0
 10
2.6323779296875
 20
3.8136328125
 30
0.0
 10
2.7281298828125
 20
3.7179296875
 30
0.0
 10
2.7281298828125
 20
3.7179296875
 30
0.0
 10
2.7304296875
 20
3.715634765625
 30
0.0
 10
2.73453125
 20
3.715244140625
 30
0.0
 10
2.7372314453125
 20
3.7170703125
 30
0.0
  0
HATCH
  5
78
330
3C
100
AcDbEntity
  8
Layer 1
 62
   134
420
    39344
100
AcDbHatch
 10
0.0
 20
0.0
 30
0.0
210
0.0
220
0.0
230
1.0
  2
SOLID
 70
     1
 71
     0
 91
        1
 92
        1
 93
        1
 72
     4
 94
        3
 73
     0
 74
     1
 95
      218
 96
      214
 40
0.0
 40
0.0
 40
0.0
 40
0.0
 40
1.0
 40
1.0
 40
1.0
 40
2.0
 40
2.0
 40
2.0
 40
3.0
 40
3.0
 40
3.0
 40
4.0
 40
4.0
 40
4.0
 40
5.0
 40
5.0
 40
5.0
 40
6.0
 40
6.0
 40
6.0
 40
7.0
 40
7.0
 40
7.0
 40
8.0
 40
8.0
 40
8.0
 40
9.0
 40
9.0
 40
9.0
 40
10.0
 40
10.0
 40
10.0
 40
11.0
 40
11.0
 40
11.0
 40
12.0
 40
12.0
 40
12.0
 40
13.0
 40
13.0
 40
13.0
 40
14.0
 40
14.0
 40
14.0
 40
15.0
 40
15.0
 40
15.0
 40
16.0
 40
16.0
 40
16.0
 40
17.0
 40
17.0
 40
17.0
 40
18.0
 40
18.0
 40
18.0
 40
19.0
 40
19.0
 40
19.0
 40
20.0
 40
20.0
 40
20.0
 40
21.0
 40
21.0
 40
21.0
 40
22.0
 40
22.0
 40
22.0
 40
23.0
 40
23.0
 40
23.0
 40
24.0
 40
24.0
 40
24.0
 40
25.0
 40
25.0
 40
25.0
 40
26.0
 40
26.0
 40
26.0
 40
27.0
 40
27.0
 40
27.0
 40
28.0
 40
28.0
 40
28.0
 40
29.0
 40
29.0
 40
29.0
 40
30.0
 40
30.0
 40
30.0
 40
31.0
 40
31.0
 40
31.0
 40
32.0
 40
32.0
 40
32.0
 40
33.0
 40
33.0
 40
33.0
 40
34.0
 40
34.0
 40
34.0
 40
35.0
 40
35.0
 40
35.0
 40
36.0
 40
36.0
 40
36.0
 40
37.0
 40
37.0
 40
37.0
 40
38.0
 40
38.0
 40
38.0
 40
39.0
 40
39.0
 40
39.0
 40
40.0
 40
40.0
 40
40.0
 40
41.0
 40
41.0
 40
41.0
 40
42.0
 40
42.0
 40
42.0
 40
43.0
 40
43.0
 40
43.0
 40
44.0
 40
44.0
 40
44.0
 40
45.0
 40
45.0
 40
45.0
 40
46.0
 40
46.0
 40
46.0
 40
47.0
 40
47.0
 40
47.0
 40
48.0
 40
48.0
 40
48.0
 40
49.0
 40
49.0
 40
49.0
 40
50.0
 40
50.0
 40
50.0
 40
51.0
 40
51.0
 40
51.0
 40
52.0
 40
52.0
 40
52.0
 40
53.0
 40
53.0
 40
53.0
 40
54.0
 40
54.0
 40
54.0
 40
55.0
 40
55.0
 40
55.0
 40
56.0
 40
56.0
 40
56.0
 40
57.0
 40
57.0
 40
57.0
 40
58.0
 40
58.0
 40
58.0
 40
59.0
 40
59.0
 40
59.0
 40
60.0
 40
60.0
 40
60.0
 40
61.0
 40
61.0
 40
61.0
 40
62.0
 40
62.0
 40
62.0
 40
63.0
 40
63.0
 40
63.0
 40
64.0
 40
64.0
 40
64.0
 40
65.0
 40
65.0
 40
65.0
 40
66.0
 40
66.0
 40
66.0
 40
67.0
 40
67.0
 40
67.0
 40
68.0
 40
68.0
 40
68.0
 40
69.0
 40
69.0
 40
69.0
 40
70.0
 40
70.0
 40
70.0
 40
71.0
 40
71.0
 40
71.0
 40
71.0
 10
2.7372314453125
 20
3.7170703125
 10
2.7372314453125
 20
3.7170703125
 10
2.8415185546875
 20
3.788671875
 10
2.8415185546875
 20
3.788671875
 10
2.84421875
 20
3.7905078125
 10
2.8487109375
 20
3.790673828125
 10
2.8515185546875
 20
3.789033203125
 10
2.8515185546875
 20
3.789033203125
 10
2.8975
 20
3.764462890625
 10
2.8975
 20
3.764462890625
 10
2.9004296875
 20
3.76296875
 10
2.903828125
 20
3.76421875
 10
2.905078125
 20
3.7672265625
 10
2.905078125
 20
3.7672265625
 10
2.999921875
 20
3.9964111328125
 10
2.999921875
 20
3.9964111328125
 10
3.001171875
 20
3.9994189453125
 10
2.999921875
 20
4.00328125
 10
2.9971484375
 20
4.0049609375
 10
2.9971484375
 20
4.0049609375
 10
2.9856298828125
 20
4.01203125
 10
2.9856298828125
 20
4.01203125
 10
2.9834814453125
 20
4.0133203125
 10
2.9806298828125
 20
4.0155517578125
 10
2.978359375
 20
4.0176220703125
 10
2.9368017578125
 20
4.0441796875
 10
2.9092578125
 20
4.090712890625
 10
2.9092578125
 20
4.143671875
 10
2.9092578125
 20
4.2263720703125
 10
2.9762890625
 20
4.293359375000001
 10
3.0589501953125
 20
4.293359375000001
 10
3.1416015625
 20
4.293359375000001
 10
3.2086328125
 20
4.2263720703125
 10
3.2086328125
 20
4.143671875
 10
3.2086328125
 20
4.090712890625
 10
3.18109375
 20
4.0441796875
 10
3.1395703125
 20
4.0176220703125
 10
3.1373046875
 20
4.0155517578125
 10
3.1344140625
 20
4.0133203125
 10
3.1323046875
 20
4.01203125
 10
3.1323046875
 20
4.01203125
 10
3.12078125
 20
4.0049609375
 10
3.12078125
 20
4.0049609375
 10
3.1180078125
 20
4.00328125
 10
3.1167578125
 20
3.9994189453125
 10
3.1180078125
 20
3.9964111328125
 10
3.1180078125
 20
3.9964111328125
 10
3.2128125
 20
3.7672265625
 10
3.2128125
 20
3.7672265625
 10
3.2140625
 20
3.76421875
 10
3.2174609375
 20
3.76296875
 10
3.220390625
 20
3.764462890625
 10
3.220390625
 20
3.764462890625
 10
3.26640625
 20
3.788994140625
 10
3.26640625
 20
3.788994140625
 10
3.26921875
 20
3.790634765625
 10
3.2737109375
 20
3.7905078125
 10
3.27640625
 20
3.788671875
 10
3.27640625
 20
3.788671875
 10
3.380703125
 20
3.7170703125
 10
3.380703125
 20
3.7170703125
 10
3.3833984375
 20
3.715244140625
 10
3.3875
 20
3.715634765625
 10
3.389765625
 20
3.717890625
 10
3.389765625
 20
3.717890625
 10
3.4855078125
 20
3.813603515625
 10
3.4855078125
 20
3.813603515625
 10
3.4878125
 20
3.8159375
 10
3.488203125
 20
3.82
 10
3.486328125
 20
3.822705078125
 10
3.486328125
 20
3.822705078125
 10
3.4134765625
 20
3.92890625
 10
3.4134765625
 20
3.92890625
 10
3.411640625
 20
3.9315625
 10
3.4112890625
 20
3.936171875
 10
3.412734375
 20
3.9391015625
 10
3.412734375
 20
3.9391015625
 10
3.4527734375
 20
4.039140625
 10
3.4527734375
 20
4.039140625
 10
3.45375
 20
4.0422705078125
 10
3.4571484375
 20
4.0453125
 10
3.460390625
 20
4.0458984375
 10
3.460390625
 20
4.0458984375
 10
3.588671875
 20
4.0697705078125
 10
3.588671875
 20
4.0697705078125
 10
3.591875
 20
4.0703515625
 10
3.5944921875
 20
4.0735205078125
 10
3.5944921875
 20
4.0768017578125
 10
3.5944921875
 20
4.0768017578125
 10
3.5944921875
 20
4.2121484375
 10
3.5944921875
 20
4.2121484375
 10
3.59453125
 20
4.215390625
 10
3.591875
 20
4.2185595703125
 10
3.588671875
 20
4.2191796875
 10
3.588671875
 20
4.2191796875
 10
3.4571875
 20
4.2436328125
 10
3.4571875
 20
4.2436328125
 10
3.453984375
 20
4.24421875
 10
3.45046875
 20
4.2472314453125
 10
3.449375
 20
4.2503125
 10
3.449375
 20
4.2503125
 10
3.4090625
 20
4.3443798828125
 10
3.4090625
 20
4.3443798828125
 10
3.407578125
 20
4.3472705078125
 10
3.4078515625
 20
4.3518408203125
 10
3.4097265625
 20
4.35453125
 10
3.4097265625
 20
4.35453125
 10
3.486328125
 20
4.466210937500001
 10
3.486328125
 20
4.466210937500001
 10
3.4881640625
 20
4.4689111328125
 10
3.4878125
 20
4.4730126953125
 10
3.4855078125
 20
4.4753125
 10
3.4855078125
 20
4.4753125
 10
3.3898046875
 20
4.5710205078125
 10
3.3898046875
 20
4.5710205078125
 10
3.3875
 20
4.5733203125
 10
3.3833984375
 20
4.5737109375
 10
3.380703125
 20
4.5718408203125
 10
3.380703125
 20
4.5718408203125
 10
3.2670703125
 20
4.4938720703125
 10
3.2670703125
 20
4.4938720703125
 10
3.264375
 20
4.49203125
 10
3.259765625
 20
4.4916796875
 10
3.256875
 20
4.4931298828125
 10
3.256875
 20
4.4931298828125
 10
3.165703125
 20
4.5304296875
 10
3.165703125
 20
4.5304296875
 10
3.1626171875
 20
4.5314892578125
 10
3.1595703125
 20
4.534921875
 10
3.158984375
 20
4.5381298828125
 10
3.158984375
 20
4.5381298828125
 10
3.133671875
 20
4.6741796875
 10
3.133671875
 20
4.6741796875
 10
3.133046875
 20
4.6773828125
 10
3.129921875
 20
4.68
 10
3.126640625
 20
4.68
 10
3.126640625
 20
4.68
 10
2.9912890625
 20
4.68
 10
2.9912890625
 20
4.68
 10
2.9880078125
 20
4.68
 10
2.9848779296875
 20
4.6773828125
 10
2.9842578125
 20
4.6741796875
 10
2.9842578125
 20
4.6741796875
 10
2.9589501953125
 20
4.5381298828125
 10
2.9589501953125
 20
4.5381298828125
 10
2.958359375
 20
4.534921875
 10
2.9553515625
 20
4.5314892578125
 10
2.9522314453125
 20
4.5304296875
 10
2.9522314453125
 20
4.5304296875
 10
2.8610498046875
 20
4.4931298828125
 10
2.8610498046875
 20
4.4931298828125
 10
2.8581298828125
 20
4.4916796875
 10
2.8535205078125
 20
4.49203125
 10
2.850859375
 20
4.4938720703125
 10
2.850859375
 20
4.4938720703125
 10
2.7372314453125
 20
4.5718408203125
 10
2.7372314453125
 20
4.5718408203125
 10
2.73453125
 20
4.5737109375
 10
2.7304296875
 20
4.5733203125
 10
2.7281298828125
 20
4.5710205078125
 10
2.7281298828125
 20
4.5710205078125
 10
2.632421875
 20
4.4753125
 10
2.632421875
 20
4.4753125
 10
2.6301220703125
 20
4.4730126953125
 10
2.6297314453125
 20
4.4689111328125
 10
2.6315576171875
 20
4.466210937500001
 10
2.6315576171875
 20
4.466210937500001
 10
2.7081982421875
 20
4.35453125
 10
2.7081982421875
 20
4.35453125
 10
2.7100390625
 20
4.3518408203125
 10
2.7103515625
 20
4.3472705078125
 10
2.708828125
 20
4.3443798828125
 10
2.708828125
 20
4.3443798828125
 10
2.6685205078125
 20
4.2503125
 10
2.6685205078125
 20
4.2503125
 10
2.6674609375
 20
4.2472314453125
 10
2.6639501953125
 20
4.24421875
 10
2.6607421875
 20
4.2436328125
 10
2.6607421875
 20
4.2436328125
 10
2.52921875
 20
4.2191796875
 10
2.52921875
 20
4.2191796875
 10
2.5260205078125
 20
4.2185595703125
 10
2.5233984375
 20
4.215390625
 10
2.5233984375
 20
4.2121484375
 10
2.5233984375
 20
4.2121484375
 10
2.5233984375
 20
4.0768017578125
 10
2.5233984375
 20
4.0768017578125
 10
2.5233984375
 20
4.0735205078125
 10
2.5260205078125
 20
4.0703515625
 10
2.5292578125
 20
4.0697705078125
 10
2.5292578125
 20
4.0697705078125
 10
2.6575390625
 20
4.0458984375
 10
2.6575390625
 20
4.0458984375
 10
2.6607421875
 20
4.0453125
 10
2.664140625
 20
4.0422705078125
 10
2.6651220703125
 20
4.039140625
 10
2.6651220703125
 20
4.039140625
 10
2.7052001953125
 20
3.9391015625
 10
2.7052001953125
 20
3.9391015625
 10
2.7066015625
 20
3.936171875
 10
2.7062890625
 20
3.9316015625
 10
2.7044091796875
 20
3.92890625
 10
2.7044091796875
 20
3.92890625
 10
2.6315576171875
 20
3.822705078125
 10
2.6315576171875
 20
3.822705078125
 10
2.6297314453125
 20
3.8200390625
 10
2.630078125
 20
3.8159375
 10
2.6323779296875
 20
3.8136328125
 10
2.6323779296875
 20
3.8136328125
 10
2.7281298828125
 20
3.7179296875
 10
2.7281298828125
 20
3.7179296875
 10
2.7304296875
 20
3.715634765625
 10
2.73453125
 20
3.715244140625
 10
2.7372314453125
 20
3.7170703125
 97
        0
 75
     2
 76
     1
 98
        0
  0
ENDBLK
  5
3F
330
3C
100
AcDbEntity
  8
0
100
AcDbBlockEnd
  0
ENDSEC
  0
SECTION
  2
ENTITIES
  0
INSERT
  5
3D
330
1F
100
AcDbEntity
  8
Layer 1
100
AcDbBlockReference
  2
block 2
 10
0.0
 20
0.0
 30
0.0
  0
ENDSEC
  0
SECTION
  2
OBJECTS
  0
DICTIONARY
  5
C
330
0
100
AcDbDictionary
281
     1
  3
ACAD_GROUP
350
D
  3
ACAD_LAYOUT
350
1A
  3
ACAD_MLINESTYLE
350
17
  3
ACAD_PLOTSETTINGS
350
19
  3
ACAD_PLOTSTYLENAME
350
E
  3
ACAD_TABLESTYLE
350
79
  3
ACAD_VISUALSTYLE
350
2A
  0
DICTIONARY
  5
D
102
{ACAD_REACTORS
330
C
102
}
330
C
100
AcDbDictionary
281
     1
  0
DICTIONARY
  5
1A
102
{ACAD_REACTORS
330
C
102
}
330
C
100
AcDbDictionary
281
     1
  3
Layout1
350
1E
  3
Layout2
350
26
  3
Model
350
22
  0
DICTIONARY
  5
17
102
{ACAD_REACTORS
330
C
102
}
330
C
100
AcDbDictionary
281
     1
  3
Standard
350
18
  0
DICTIONARY
  5
19
102
{ACAD_REACTORS
330
C
102
}
330
C
100
AcDbDictionary
281
     1
  0
ACDBDICTIONARYWDFLT
  5
E
102
{ACAD_REACTORS
330
C
102
}
330
C
100
AcDbDictionary
281
     1
  3
Normal
350
F
100
AcDbDictionaryWithDefault
340
F
  0
DICTIONARY
  5
79
102
{ACAD_REACTORS
330
C
102
}
330
C
100
AcDbDictionary
281
     1
  0
DICTIONARY
  5
2A
102
{ACAD_REACTORS
330
C
102
}
330
C
100
AcDbDictionary
281
     1
  3
2dWireframe
350
2F
  3
3D Hidden
350
31
  3
3dWireframe
350
30
  3
Basic
350
32
  3
Brighten
350
36
  3
ColorChange
350
3A
  3
Conceptual
350
34
  3
Dim
350
35
  3
Facepattern
350
39
  3
Flat
350
2B
  3
FlatWithEdges
350
2C
  3
Gouraud
350
2D
  3
GouraudWithEdges
350
2E
  3
Linepattern
350
38
  3
Realistic
350
33
  3
Thicken
350
37
  0
LAYOUT
  5
1E
102
{ACAD_REACTORS
330
1A
102
}
330
1A
100
AcDbPlotSettings
  1

  2
none_device
  4

  6

 40
0.0
 41
0.0
 42
0.0
 43
0.0
 44
0.0
 45
0.0
 46
0.0
 47
0.0
 48
0.0
 49
0.0
140
0.0
141
0.0
142
1.0
143
1.0
 70
   688
 72
     0
 73
     0
 74
     5
  7

 75
    16
 76
     0
 77
     2
 78
   300
147
1.0
148
0.0
149
0.0
100
AcDbLayout
  1
Layout1
 70
     1
 71
     1
 10
0.0
 20
0.0
 11
12.0
 21
9.0
 12
0.0
 22
0.0
 32
0.0
 14
1.000000000000000E+20
 24
1.000000000000000E+20
 34
1.000000000000000E+20
 15
-1.000000000000000E+20
 25
-1.000000000000000E+20
 35
-1.000000000000000E+20
146
0.0
 13
0.0
 23
0.0
 33
0.0
 16
1.0
 26
0.0
 36
0.0
 17
0.0
 27
1.0
 37
0.0
 76
     0
330
1B
  0
LAYOUT
  5
26
102
{ACAD_REACTORS
330
1A
102
}
330
1A
100
AcDbPlotSettings
  1

  2
none_device
  4

  6

 40
0.0
 41
0.0
 42
0.0
 43
0.0
 44
0.0
 45
0.0
 46
0.0
 47
0.0
 48
0.0
 49
0.0
140
0.0
141
0.0
142
1.0
143
1.0
 70
   688
 72
     0
 73
     0
 74
     5
  7

 75
    16
 76
     0
 77
     2
 78
   300
147
1.0
148
0.0
149
0.0
100
AcDbLayout
  1
Layout2
 70
     1
 71
     2
 10
0.0
 20
0.0
 11
0.0
 21
0.0
 12
0.0
 22
0.0
 32
0.0
 14
0.0
 24
0.0
 34
0.0
 15
0.0
 25
0.0
 35
0.0
146
0.0
 13
0.0
 23
0.0
 33
0.0
 16
1.0
 26
0.0
 36
0.0
 17
0.0
 27
1.0
 37
0.0
 76
     0
330
23
  0
LAYOUT
  5
22
102
{ACAD_REACTORS
330
1A
102
}
330
1A
100
AcDbPlotSettings
  1

  2
none_device
  4

  6

 40
0.0
 41
0.0
 42
0.0
 43
0.0
 44
0.0
 45
0.0
 46
0.0
 47
0.0
 48
0.0
 49
0.0
140
0.0
141
0.0
142
1.0
143
1.0
 70
  1712
 72
     0
 73
     0
 74
     0
  7

 75
     0
 76
     0
 77
     2
 78
   300
147
1.0
148
0.0
149
0.0
100
AcDbLayout
  1
Model
 70
     1
 71
     0
 10
0.0
 20
0.0
 11
12.0
 21
9.0
 12
0.0
 22
0.0
 32
0.0
 14
1.000000000000000E+20
 24
1.000000000000000E+20
 34
1.000000000000000E+20
 15
-1.000000000000000E+20
 25
-1.000000000000000E+20
 35
-1.000000000000000E+20
146
0.0
 13
0.0
 23
0.0
 33
0.0
 16
1.0
 26
0.0
 36
0.0
 17
0.0
 27
1.0
 37
0.0
 76
     0
330
1F
331
29
  0
MLINESTYLE
  5
18
102
{ACAD_REACTORS
330
17
102
}
330
17
100
AcDbMlineStyle
  2
Standard
 70
     0
  3

 62
   256
 51
90.0
 52
90.0
 71
     2
 49
0.5
 62
   256
  6
BYLAYER
 49
-0.5
 62
   256
  6
BYLAYER
  0
ACDBPLACEHOLDER
  5
F
102
{ACAD_REACTORS
330
E
102
}
330
E
  0
VISUALSTYLE
  5
2F
102
{ACAD_REACTORS
330
2A
102
}
330
2A
100
AcDbVisualStyle
  2
2dWireframe
 70
     4
 71
     0
 72
     2
 73
     0
 90
        0
 40
-0.6
 41
-30.0
 62
     5
 63
     7
421
 16777215
 74
     1
 91
        4
 64
     7
 65
   257
 75
     1
175
     1
 42
1.0
 92
        0
 66
   257
 43
1.0
 76
     1
 77
     6
 78
     2
 67
     7
 79
     5
170
     0
171
     0
290
     0
174
     0
 93
        1
 44
0.0
173
     0
291
     0
 45
0.0
1001
ACAD
1000
AcDbSavedByObjectVersion
1070
     0
  0
VISUALSTYLE
  5
31
102
{ACAD_REACTORS
330
2A
102
}
330
2A
100
AcDbVisualStyle
  2
3D Hidden
 70
     6
 71
     1
 72
     2
 73
     2
 90
        0
 40
-0.6
 41
-30.0
 62
     5
 63
     7
421
 16777215
 74
     2
 91
        2
 64
     7
 65
   257
 75
     2
175
     1
 42
40.0
 92
        0
 66
   257
 43
1.0
 76
     1
 77
     6
 78
     2
 67
     7
 79
     3
170
     0
171
     0
290
     0
174
     0
 93
        1
 44
0.0
173
     0
291
     0
 45
0.0
1001
ACAD
1000
AcDbSavedByObjectVersion
1070
     0
  0
VISUALSTYLE
  5
30
102
{ACAD_REACTORS
330
2A
102
}
330
2A
100
AcDbVisualStyle
  2
3dWireframe
 70
     5
 71
     0
 72
     2
 73
     0
 90
        0
 40
-0.6
 41
-30.0
 62
     5
 63
     7
421
 16777215
 74
     1
 91
        4
 64
     7
 65
   257
 75
     1
175
     1
 42
1.0
 92
        0
 66
   257
 43
1.0
 76
     1
 77
     6
 78
     2
 67
     7
 79
     5
170
     0
171
     0
290
     0
174
     0
 93
        1
 44
0.0
173
     0
291
     0
 45
0.0
1001
ACAD
1000
AcDbSavedByObjectVersion
1070
     0
  0
VISUALSTYLE
  5
32
102
{ACAD_REACTORS
330
2A
102
}
330
2A
100
AcDbVisualStyle
  2
Basic
 70
     7
 71
     1
 72
     0
 73
     1
 90
        0
 40
-0.6
 41
-30.0
 62
     5
 63
     7
421
 16777215
 74
     0
 91
        4
 64
     7
 65
   257
 75
     1
175
     1
 42
1.0
 92
        8
 66
     7
 43
1.0
 76
     1
 77
     6
 78
     2
 67
     7
 79
     5
170
     0
171
     0
290
     0
174
     0
 93
        1
 44
0.0
173
     0
291
     1
 45
0.0
1001
ACAD
1000
AcDbSavedByObjectVersion
1070
     0
  0
VISUALSTYLE
  5
36
102
{ACAD_REACTORS
330
2A
102
}
330
2A
100
AcDbVisualStyle
  2
Brighten
 70
    12
 71
     2
 72
     2
 73
     0
 90
        0
 40
-0.6
 41
-30.0
 62
     5
 63
     7
421
 16777215
 74
     1
 91
        4
 64
     7
 65
   257
 75
     1
175
     1
 42
1.0
 92
        8
 66
     7
 43
1.0
 76
     1
 77
     6
 78
     2
 67
     7
 79
     5
170
     0
171
     0
290
     0
174
     0
 93
        1
 44
50.0
173
     0
291
     1
 45
0.0
1001
ACAD
1000
AcDbSavedByObjectVersion
1070
     0
  0
VISUALSTYLE
  5
3A
102
{ACAD_REACTORS
330
2A
102
}
330
2A
100
AcDbVisualStyle
  2
ColorChange
 70
    16
 71
     2
 72
     2
 73
     3
 90
        0
 40
-0.6
 41
-30.0
 62
     5
 63
     8
421
  8421504
 74
     1
 91
        4
 64
     7
 65
   257
 75
     1
175
     1
 42
1.0
 92
        8
 66
     8
424
  8421504
 43
1.0
 76
     1
 77
     6
 78
     2
 67
     7
 79
     5
170
     0
171
     0
290
     0
174
     0
 93
        1
 44
0.0
173
     0
291
     1
 45
0.0
1001
ACAD
1000
AcDbSavedByObjectVersion
1070
     0
  0
VISUALSTYLE
  5
34
102
{ACAD_REACTORS
330
2A
102
}
330
2A
100
AcDbVisualStyle
  2
Conceptual
 70
     9
 71
     3
 72
     2
 73
     0
 90
        0
 40
-0.6
 41
-30.0
 62
     5
 63
     7
421
 16777215
 74
     2
 91
        2
 64
     7
 65
   257
 75
     1
175
     1
 42
40.0
 92
        8
 66
     7
 43
1.0
 76
     1
 77
     6
 78
     2
 67
     7
 79
     3
170
     0
171
     0
290
     0
174
     0
 93
        1
 44
0.0
173
     0
291
     0
 45
0.0
1001
ACAD
1000
AcDbSavedByObjectVersion
1070
     0
  0
VISUALSTYLE
  5
35
102
{ACAD_REACTORS
330
2A
102
}
330
2A
100
AcDbVisualStyle
  2
Dim
 70
    11
 71
     2
 72
     2
 73
     0
 90
        0
 40
-0.6
 41
-30.0
 62
     5
 63
     7
421
 16777215
 74
     1
 91
        4
 64
     7
 65
   257
 75
     1
175
     1
 42
1.0
 92
        8
 66
     7
 43
1.0
 76
     1
 77
     6
 78
     2
 67
     7
 79
     5
170
     0
171
     0
290
     0
174
     0
 93
        1
 44
-50.0
173
     0
291
     1
 45
0.0
1001
ACAD
1000
AcDbSavedByObjectVersion
1070
     0
  0
VISUALSTYLE
  5
39
102
{ACAD_REACTORS
330
2A
102
}
330
2A
100
AcDbVisualStyle
  2
Facepattern
 70
    15
 71
     2
 72
     2
 73
     0
 90
        0
 40
-0.6
 41
-30.0
 62
     5
 63
     7
421
 16777215
 74
     1
 91
        4
 64
     7
 65
   257
 75
     1
175
     1
 42
1.0
 92
        8
 66
     7
 43
1.0
 76
     1
 77
     6
 78
     2
 67
     7
 79
     5
170
     0
171
     0
290
     0
174
     0
 93
        1
 44
0.0
173
     0
291
     1
 45
0.0
1001
ACAD
1000
AcDbSavedByObjectVersion
1070
     0
  0
VISUALSTYLE
  5
2B
102
{ACAD_REACTORS
330
2A
102
}
330
2A
100
AcDbVisualStyle
  2
Flat
 70
     0
 71
     2
 72
     1
 73
     1
 90
        2
 40
-0.6
 41
30.0
 62
     5
 63
     7
421
 16777215
 74
     0
 91
        4
 64
     7
 65
   257
 75
     1
175
     1
 42
1.0
 92
        8
 66
     7
 43
1.0
 76
     1
 77
     6
 78
     2
 67
     7
 79
     5
170
     0
171
     0
290
     0
174
     0
 93
       13
 44
0.0
173
     0
291
     1
 45
0.0
1001
ACAD
1000
AcDbSavedByObjectVersion
1070
     0
  0
VISUALSTYLE
  5
2C
102
{ACAD_REACTORS
330
2A
102
}
330
2A
100
AcDbVisualStyle
  2
FlatWithEdges
 70
     1
 71
     2
 72
     1
 73
     1
 90
        2
 40
-0.6
 41
30.0
 62
     5
 63
     7
421
 16777215
 74
     1
 91
        4
 64
     7
 65
   257
 75
     1
175
     1
 42
1.0
 92
        0
 66
   257
 43
1.0
 76
     1
 77
     6
 78
     2
 67
     7
 79
     5
170
     0
171
     0
290
     0
174
     0
 93
       13
 44
0.0
173
     0
291
     1
 45
0.0
1001
ACAD
1000
AcDbSavedByObjectVersion
1070
     0
  0
VISUALSTYLE
  5
2D
102
{ACAD_REACTORS
330
2A
102
}
330
2A
100
AcDbVisualStyle
  2
Gouraud
 70
     2
 71
     2
 72
     2
 73
     1
 90
        2
 40
-0.6
 41
30.0
 62
     5
 63
     7
421
 16777215
 74
     0
 91
        4
 64
     7
 65
   257
 75
     1
175
     1
 42
1.0
 92
        0
 66
     7
 43
1.0
 76
     1
 77
     6
 78
     2
 67
     7
 79
     5
170
     0
171
     0
290
     0
174
     0
 93
       13
 44
0.0
173
     0
291
     1
 45
0.0
1001
ACAD
1000
AcDbSavedByObjectVersion
1070
     0
  0
VISUALSTYLE
  5
2E
102
{ACAD_REACTORS
330
2A
102
}
330
2A
100
AcDbVisualStyle
  2
GouraudWithEdges
 70
     3
 71
     2
 72
     2
 73
     1
 90
        2
 40
-0.6
 41
30.0
 62
     5
 63
     7
421
 16777215
 74
     1
 91
        4
 64
     7
 65
   257
 75
     1
175
     1
 42
1.0
 92
        0
 66
   257
 43
1.0
 76
     1
 77
     6
 78
     2
 67
     7
 79
     5
170
     0
171
     0
290
     0
174
     0
 93
       13
 44
0.0
173
     0
291
     1
 45
0.0
1001
ACAD
1000
AcDbSavedByObjectVersion
1070
     0
  0
VISUALSTYLE
  5
38
102
{ACAD_REACTORS
330
2A
102
}
330
2A
100
AcDbVisualStyle
  2
Linepattern
 70
    14
 71
     2
 72
     2
 73
     0
 90
        0
 40
-0.6
 41
-30.0
 62
     5
 63
     7
421
 16777215
 74
     1
 91
        4
 64
     7
 65
   257
 75
     7
175
     7
 42
1.0
 92
        8
 66
     7
 43
1.0
 76
     1
 77
     6
 78
     2
 67
     7
 79
     5
170
     0
171
     0
290
     0
174
     0
 93
        1
 44
0.0
173
     0
291
     1
 45
0.0
1001
ACAD
1000
AcDbSavedByObjectVersion
1070
     0
  0
VISUALSTYLE
  5
33
102
{ACAD_REACTORS
330
2A
102
}
330
2A
100
AcDbVisualStyle
  2
Realistic
 70
     8
 71
     2
 72
     2
 73
     0
 90
        0
 40
-0.6
 41
-30.0
 62
     5
 63
     7
421
 16777215
 74
     1
 91
        0
 64
     7
 65
   257
 75
     1
175
     1
 42
1.0
 92
        8
 66
     8
424
  7895160
 43
1.0
 76
     1
 77
     6
 78
     2
 67
     7
 79
     5
170
     0
171
     0
290
     0
174
     0
 93
       13
 44
0.0
173
     0
291
     0
 45
0.0
1001
ACAD
1000
AcDbSavedByObjectVersion
1070
     0
  0
VISUALSTYLE
  5
37
102
{ACAD_REACTORS
330
2A
102
}
330
2A
100
AcDbVisualStyle
  2
Thicken
 70
    13
 71
     2
 72
     2
 73
     0
 90
        0
 40
-0.6
 41
-30.0
 62
     5
 63
     7
421
 16777215
 74
     1
 91
        4
 64
     7
 65
   257
 75
     1
175
     1
 42
1.0
 92
       12
 66
     7
 43
1.0
 76
     1
 77
     6
 78
     2
 67
     7
 79
     5
170
     0
171
     0
290
     0
174
     0
 93
        1
 44
0.0
173
     0
291
     1
 45
0.0
1001
ACAD
1000
AcDbSavedByObjectVersion
1070
     0
  0
ENDSEC
  0
EOF
