G04 start of page 13 for group -3984 idx -3984 *
G04 Title: (unknown), fab *
G04 Creator: pcb 20091103 *
G04 CreationDate: Fri Aug 12 04:18:29 2011 UTC *
G04 For: oskay *
G04 Format: Gerber/RS-274X *
G04 PCB-Dimensions: 305000 295000 *
G04 PCB-Coordinate-Origin: lower left *
%MOIN*%
%FSLAX25Y25*%
%LNFAB*%
%ADD12C,0.0080*%
%ADD20C,0.0100*%
%ADD21C,0.0060*%
%ADD32C,0.0066*%
G54D12*X151739Y245269D02*Y243669D01*
Y245269D02*X153125Y246069D01*
X151739Y245269D02*X150353Y246069D01*
X237339Y209769D02*Y208169D01*
Y209769D02*X238725Y210569D01*
X237339Y209769D02*X235953Y210569D01*
X237339Y38469D02*Y36869D01*
Y38469D02*X238725Y39269D01*
X237339Y38469D02*X235953Y39269D01*
X66139Y38469D02*Y36869D01*
Y38469D02*X67525Y39269D01*
X66139Y38469D02*X64753Y39269D01*
X66039Y209769D02*Y208169D01*
Y209769D02*X67425Y210569D01*
X66039Y209769D02*X64653Y210569D01*
X30539Y124069D02*Y122469D01*
Y124069D02*X31925Y124869D01*
X30539Y124069D02*X29153Y124869D01*
X272739Y123969D02*Y122369D01*
Y123969D02*X274125Y124769D01*
X272739Y123969D02*X271353Y124769D01*
X15000Y351250D02*Y349650D01*
Y351250D02*X16386Y352050D01*
X15000Y351250D02*X13614Y352050D01*
G54D21*X135000Y353500D02*Y352750D01*
X136500Y351250D01*
X138000Y352750D01*
Y353500D02*Y352750D01*
X136500Y351250D02*Y347500D01*
X139801Y350500D02*X142051D01*
X139801Y347500D02*X142801D01*
X139801Y353500D02*Y347500D01*
Y353500D02*X142801D01*
X147603D02*X148353Y352750D01*
X145353Y353500D02*X147603D01*
X144603Y352750D02*X145353Y353500D01*
X144603Y352750D02*Y351250D01*
X145353Y350500D01*
X147603D01*
X148353Y349750D01*
Y348250D01*
X147603Y347500D02*X148353Y348250D01*
X145353Y347500D02*X147603D01*
X144603Y348250D02*X145353Y347500D01*
X135000Y344249D02*X150154D01*
X98000Y347500D02*X101750Y351250D01*
Y353500D02*Y351250D01*
X98000Y353500D02*X101750D01*
X98000Y344249D02*X103551D01*
X45000Y348250D02*X45750Y347500D01*
X45000Y352750D02*Y348250D01*
Y352750D02*X45750Y353500D01*
X47250D01*
X48000Y352750D01*
Y348250D01*
X47250Y347500D02*X48000Y348250D01*
X45750Y347500D02*X47250D01*
X45000Y349000D02*X48000Y352000D01*
X49801Y347500D02*X50551D01*
X53103D02*X54603D01*
X53853Y353500D02*Y347500D01*
X52353Y352000D02*X53853Y353500D01*
X56404Y350500D02*X59404Y353500D01*
X56404Y350500D02*X60154D01*
X59404Y353500D02*Y347500D01*
X61956Y348250D02*X62706Y347500D01*
X61956Y352750D02*Y348250D01*
Y352750D02*X62706Y353500D01*
X64206D01*
X64956Y352750D01*
Y348250D01*
X64206Y347500D02*X64956Y348250D01*
X62706Y347500D02*X64206D01*
X61956Y349000D02*X64956Y352000D01*
X45000Y344249D02*X66757D01*
X3000Y368500D02*X3750Y367750D01*
X750Y368500D02*X3000D01*
X0Y367750D02*X750Y368500D01*
X0Y367750D02*Y366250D01*
X750Y365500D01*
X3000D01*
X3750Y364750D01*
Y363250D01*
X3000Y362500D02*X3750Y363250D01*
X750Y362500D02*X3000D01*
X0Y363250D02*X750Y362500D01*
X5551Y365500D02*Y363250D01*
X6301Y362500D01*
X8551Y365500D02*Y361000D01*
X7801Y360250D02*X8551Y361000D01*
X6301Y360250D02*X7801D01*
X5551Y361000D02*X6301Y360250D01*
Y362500D02*X7801D01*
X8551Y363250D01*
X11103Y364750D02*Y362500D01*
Y364750D02*X11853Y365500D01*
X12603D01*
X13353Y364750D01*
Y362500D01*
Y364750D02*X14103Y365500D01*
X14853D01*
X15603Y364750D01*
Y362500D01*
X10353Y365500D02*X11103Y364750D01*
X17404Y368500D02*Y362500D01*
Y363250D02*X18154Y362500D01*
X19654D01*
X20404Y363250D01*
Y364750D02*Y363250D01*
X19654Y365500D02*X20404Y364750D01*
X18154Y365500D02*X19654D01*
X17404Y364750D02*X18154Y365500D01*
X22206Y364750D02*Y363250D01*
Y364750D02*X22956Y365500D01*
X24456D01*
X25206Y364750D01*
Y363250D01*
X24456Y362500D02*X25206Y363250D01*
X22956Y362500D02*X24456D01*
X22206Y363250D02*X22956Y362500D01*
X27007Y368500D02*Y363250D01*
X27757Y362500D01*
X41750Y368500D02*Y362500D01*
X44000Y368500D02*X44750Y367750D01*
Y363250D01*
X44000Y362500D02*X44750Y363250D01*
X41000Y362500D02*X44000D01*
X41000Y368500D02*X44000D01*
X46551Y367000D02*Y366250D01*
Y364750D02*Y362500D01*
X50303Y365500D02*X51053Y364750D01*
X48803Y365500D02*X50303D01*
X48053Y364750D02*X48803Y365500D01*
X48053Y364750D02*Y363250D01*
X48803Y362500D01*
X51053Y365500D02*Y363250D01*
X51803Y362500D01*
X48803D02*X50303D01*
X51053Y363250D01*
X54354Y364750D02*Y362500D01*
Y364750D02*X55104Y365500D01*
X55854D01*
X56604Y364750D01*
Y362500D01*
Y364750D02*X57354Y365500D01*
X58104D01*
X58854Y364750D01*
Y362500D01*
X53604Y365500D02*X54354Y364750D01*
X60656Y362500D02*X61406D01*
X65907Y363250D02*X66657Y362500D01*
X65907Y367750D02*X66657Y368500D01*
X65907Y367750D02*Y363250D01*
X68459Y368500D02*X69959D01*
X69209D02*Y362500D01*
X68459D02*X69959D01*
X72510Y364750D02*Y362500D01*
Y364750D02*X73260Y365500D01*
X74010D01*
X74760Y364750D01*
Y362500D01*
X71760Y365500D02*X72510Y364750D01*
X77312Y365500D02*X79562D01*
X76562Y364750D02*X77312Y365500D01*
X76562Y364750D02*Y363250D01*
X77312Y362500D01*
X79562D01*
X81363Y368500D02*Y362500D01*
Y364750D02*X82113Y365500D01*
X83613D01*
X84363Y364750D01*
Y362500D01*
X86165Y368500D02*X86915Y367750D01*
Y363250D01*
X86165Y362500D02*X86915Y363250D01*
X95750Y362500D02*X98000D01*
X95000Y363250D02*X95750Y362500D01*
X95000Y367750D02*Y363250D01*
Y367750D02*X95750Y368500D01*
X98000D01*
X99801Y364750D02*Y363250D01*
Y364750D02*X100551Y365500D01*
X102051D01*
X102801Y364750D01*
Y363250D01*
X102051Y362500D02*X102801Y363250D01*
X100551Y362500D02*X102051D01*
X99801Y363250D02*X100551Y362500D01*
X104603Y365500D02*Y363250D01*
X105353Y362500D01*
X106853D01*
X107603Y363250D01*
Y365500D02*Y363250D01*
X110154Y364750D02*Y362500D01*
Y364750D02*X110904Y365500D01*
X111654D01*
X112404Y364750D01*
Y362500D01*
X109404Y365500D02*X110154Y364750D01*
X114956Y368500D02*Y363250D01*
X115706Y362500D01*
X114206Y366250D02*X115706D01*
X130750Y368500D02*Y362500D01*
X130000Y368500D02*X133000D01*
X133750Y367750D01*
Y366250D01*
X133000Y365500D02*X133750Y366250D01*
X130750Y365500D02*X133000D01*
X135551Y368500D02*Y363250D01*
X136301Y362500D01*
X140053Y365500D02*X140803Y364750D01*
X138553Y365500D02*X140053D01*
X137803Y364750D02*X138553Y365500D01*
X137803Y364750D02*Y363250D01*
X138553Y362500D01*
X140803Y365500D02*Y363250D01*
X141553Y362500D01*
X138553D02*X140053D01*
X140803Y363250D01*
X144104Y368500D02*Y363250D01*
X144854Y362500D01*
X143354Y366250D02*X144854D01*
X147106Y362500D02*X149356D01*
X146356Y363250D02*X147106Y362500D01*
X146356Y364750D02*Y363250D01*
Y364750D02*X147106Y365500D01*
X148606D01*
X149356Y364750D01*
X146356Y364000D02*X149356D01*
Y364750D02*Y364000D01*
X154157Y368500D02*Y362500D01*
X153407D02*X154157Y363250D01*
X151907Y362500D02*X153407D01*
X151157Y363250D02*X151907Y362500D01*
X151157Y364750D02*Y363250D01*
Y364750D02*X151907Y365500D01*
X153407D01*
X154157Y364750D01*
X157459Y365500D02*Y364750D01*
Y363250D02*Y362500D01*
X155959Y367750D02*Y367000D01*
Y367750D02*X156709Y368500D01*
X158209D01*
X158959Y367750D01*
Y367000D01*
X157459Y365500D02*X158959Y367000D01*
X0Y383500D02*X3000D01*
X1500D02*Y377500D01*
X4801Y383500D02*Y377500D01*
Y379750D02*X5551Y380500D01*
X7051D01*
X7801Y379750D01*
Y377500D01*
X10353D02*X12603D01*
X9603Y378250D02*X10353Y377500D01*
X9603Y379750D02*Y378250D01*
Y379750D02*X10353Y380500D01*
X11853D01*
X12603Y379750D01*
X9603Y379000D02*X12603D01*
Y379750D02*Y379000D01*
X15154Y379750D02*Y377500D01*
Y379750D02*X15904Y380500D01*
X17404D01*
X14404D02*X15154Y379750D01*
X19956Y377500D02*X22206D01*
X19206Y378250D02*X19956Y377500D01*
X19206Y379750D02*Y378250D01*
Y379750D02*X19956Y380500D01*
X21456D01*
X22206Y379750D01*
X19206Y379000D02*X22206D01*
Y379750D02*Y379000D01*
X28957Y380500D02*X29707Y379750D01*
X27457Y380500D02*X28957D01*
X26707Y379750D02*X27457Y380500D01*
X26707Y379750D02*Y378250D01*
X27457Y377500D01*
X29707Y380500D02*Y378250D01*
X30457Y377500D01*
X27457D02*X28957D01*
X29707Y378250D01*
X33009Y379750D02*Y377500D01*
Y379750D02*X33759Y380500D01*
X35259D01*
X32259D02*X33009Y379750D01*
X37810Y377500D02*X40060D01*
X37060Y378250D02*X37810Y377500D01*
X37060Y379750D02*Y378250D01*
Y379750D02*X37810Y380500D01*
X39310D01*
X40060Y379750D01*
X37060Y379000D02*X40060D01*
Y379750D02*Y379000D01*
X45312Y377500D02*X46812D01*
X46062Y383500D02*Y377500D01*
X44562Y382000D02*X46062Y383500D01*
X54313D02*Y377500D01*
X53563D02*X54313Y378250D01*
X52063Y377500D02*X53563D01*
X51313Y378250D02*X52063Y377500D01*
X51313Y379750D02*Y378250D01*
Y379750D02*X52063Y380500D01*
X53563D01*
X54313Y379750D01*
X56115Y382000D02*Y381250D01*
Y379750D02*Y377500D01*
X58366Y382750D02*Y377500D01*
Y382750D02*X59116Y383500D01*
X59866D01*
X57616Y380500D02*X59116D01*
X62118Y382750D02*Y377500D01*
Y382750D02*X62868Y383500D01*
X63618D01*
X61368Y380500D02*X62868D01*
X65869Y377500D02*X68119D01*
X65119Y378250D02*X65869Y377500D01*
X65119Y379750D02*Y378250D01*
Y379750D02*X65869Y380500D01*
X67369D01*
X68119Y379750D01*
X65119Y379000D02*X68119D01*
Y379750D02*Y379000D01*
X70671Y379750D02*Y377500D01*
Y379750D02*X71421Y380500D01*
X72921D01*
X69921D02*X70671Y379750D01*
X75472Y377500D02*X77722D01*
X74722Y378250D02*X75472Y377500D01*
X74722Y379750D02*Y378250D01*
Y379750D02*X75472Y380500D01*
X76972D01*
X77722Y379750D01*
X74722Y379000D02*X77722D01*
Y379750D02*Y379000D01*
X80274Y379750D02*Y377500D01*
Y379750D02*X81024Y380500D01*
X81774D01*
X82524Y379750D01*
Y377500D01*
X79524Y380500D02*X80274Y379750D01*
X85075Y383500D02*Y378250D01*
X85825Y377500D01*
X84325Y381250D02*X85825D01*
X93027Y383500D02*Y377500D01*
X92277D02*X93027Y378250D01*
X90777Y377500D02*X92277D01*
X90027Y378250D02*X90777Y377500D01*
X90027Y379750D02*Y378250D01*
Y379750D02*X90777Y380500D01*
X92277D01*
X93027Y379750D01*
X95578D02*Y377500D01*
Y379750D02*X96328Y380500D01*
X97828D01*
X94828D02*X95578Y379750D01*
X99630Y382000D02*Y381250D01*
Y379750D02*Y377500D01*
X101131Y383500D02*Y378250D01*
X101881Y377500D01*
X103383Y383500D02*Y378250D01*
X104133Y377500D01*
X109084D02*X111334D01*
X112084Y378250D01*
X111334Y379000D02*X112084Y378250D01*
X109084Y379000D02*X111334D01*
X108334Y379750D02*X109084Y379000D01*
X108334Y379750D02*X109084Y380500D01*
X111334D01*
X112084Y379750D01*
X108334Y378250D02*X109084Y377500D01*
X113886Y382000D02*Y381250D01*
Y379750D02*Y377500D01*
X115387Y380500D02*X118387D01*
X115387Y377500D02*X118387Y380500D01*
X115387Y377500D02*X118387D01*
X120939D02*X123189D01*
X120189Y378250D02*X120939Y377500D01*
X120189Y379750D02*Y378250D01*
Y379750D02*X120939Y380500D01*
X122439D01*
X123189Y379750D01*
X120189Y379000D02*X123189D01*
Y379750D02*Y379000D01*
X125740Y377500D02*X127990D01*
X128740Y378250D01*
X127990Y379000D02*X128740Y378250D01*
X125740Y379000D02*X127990D01*
X124990Y379750D02*X125740Y379000D01*
X124990Y379750D02*X125740Y380500D01*
X127990D01*
X128740Y379750D01*
X124990Y378250D02*X125740Y377500D01*
X133242Y380500D02*Y378250D01*
X133992Y377500D01*
X135492D01*
X136242Y378250D01*
Y380500D02*Y378250D01*
X138793Y377500D02*X141043D01*
X141793Y378250D01*
X141043Y379000D02*X141793Y378250D01*
X138793Y379000D02*X141043D01*
X138043Y379750D02*X138793Y379000D01*
X138043Y379750D02*X138793Y380500D01*
X141043D01*
X141793Y379750D01*
X138043Y378250D02*X138793Y377500D01*
X144345D02*X146595D01*
X143595Y378250D02*X144345Y377500D01*
X143595Y379750D02*Y378250D01*
Y379750D02*X144345Y380500D01*
X145845D01*
X146595Y379750D01*
X143595Y379000D02*X146595D01*
Y379750D02*Y379000D01*
X151396Y383500D02*Y377500D01*
X150646D02*X151396Y378250D01*
X149146Y377500D02*X150646D01*
X148396Y378250D02*X149146Y377500D01*
X148396Y379750D02*Y378250D01*
Y379750D02*X149146Y380500D01*
X150646D01*
X151396Y379750D01*
X155898Y382000D02*Y381250D01*
Y379750D02*Y377500D01*
X158149Y379750D02*Y377500D01*
Y379750D02*X158899Y380500D01*
X159649D01*
X160399Y379750D01*
Y377500D01*
X157399Y380500D02*X158149Y379750D01*
X165651Y383500D02*Y378250D01*
X166401Y377500D01*
X164901Y381250D02*X166401D01*
X167902Y383500D02*Y377500D01*
Y379750D02*X168652Y380500D01*
X170152D01*
X170902Y379750D01*
Y377500D01*
X172704Y382000D02*Y381250D01*
Y379750D02*Y377500D01*
X174955D02*X177205D01*
X177955Y378250D01*
X177205Y379000D02*X177955Y378250D01*
X174955Y379000D02*X177205D01*
X174205Y379750D02*X174955Y379000D01*
X174205Y379750D02*X174955Y380500D01*
X177205D01*
X177955Y379750D01*
X174205Y378250D02*X174955Y377500D01*
X182457Y383500D02*Y378250D01*
X183207Y377500D01*
X186958Y380500D02*X187708Y379750D01*
X185458Y380500D02*X186958D01*
X184708Y379750D02*X185458Y380500D01*
X184708Y379750D02*Y378250D01*
X185458Y377500D01*
X187708Y380500D02*Y378250D01*
X188458Y377500D01*
X185458D02*X186958D01*
X187708Y378250D01*
X190260Y380500D02*Y378250D01*
X191010Y377500D01*
X193260Y380500D02*Y376000D01*
X192510Y375250D02*X193260Y376000D01*
X191010Y375250D02*X192510D01*
X190260Y376000D02*X191010Y375250D01*
Y377500D02*X192510D01*
X193260Y378250D01*
X195061Y379750D02*Y378250D01*
Y379750D02*X195811Y380500D01*
X197311D01*
X198061Y379750D01*
Y378250D01*
X197311Y377500D02*X198061Y378250D01*
X195811Y377500D02*X197311D01*
X195061Y378250D02*X195811Y377500D01*
X199863Y380500D02*Y378250D01*
X200613Y377500D01*
X202113D01*
X202863Y378250D01*
Y380500D02*Y378250D01*
X205414Y383500D02*Y378250D01*
X206164Y377500D01*
X204664Y381250D02*X206164D01*
X207666Y376000D02*X209166Y377500D01*
X213667D02*X217417Y381250D01*
Y383500D02*Y381250D01*
X213667Y383500D02*X217417D01*
X221919D02*Y377500D01*
Y379750D02*X222669Y380500D01*
X224169D01*
X224919Y379750D01*
Y377500D01*
X226720Y379750D02*Y378250D01*
Y379750D02*X227470Y380500D01*
X228970D01*
X229720Y379750D01*
Y378250D01*
X228970Y377500D02*X229720Y378250D01*
X227470Y377500D02*X228970D01*
X226720Y378250D02*X227470Y377500D01*
X231522Y383500D02*Y378250D01*
X232272Y377500D01*
X234523D02*X236773D01*
X233773Y378250D02*X234523Y377500D01*
X233773Y379750D02*Y378250D01*
Y379750D02*X234523Y380500D01*
X236023D01*
X236773Y379750D01*
X233773Y379000D02*X236773D01*
Y379750D02*Y379000D01*
X239325Y377500D02*X241575D01*
X242325Y378250D01*
X241575Y379000D02*X242325Y378250D01*
X239325Y379000D02*X241575D01*
X238575Y379750D02*X239325Y379000D01*
X238575Y379750D02*X239325Y380500D01*
X241575D01*
X242325Y379750D01*
X238575Y378250D02*X239325Y377500D01*
X247576Y383500D02*Y378250D01*
X248326Y377500D01*
X246826Y381250D02*X248326D01*
X249828Y379750D02*Y378250D01*
Y379750D02*X250578Y380500D01*
X252078D01*
X252828Y379750D01*
Y378250D01*
X252078Y377500D02*X252828Y378250D01*
X250578Y377500D02*X252078D01*
X249828Y378250D02*X250578Y377500D01*
X255379Y383500D02*Y378250D01*
X256129Y377500D01*
X254629Y381250D02*X256129D01*
X259881Y380500D02*X260631Y379750D01*
X258381Y380500D02*X259881D01*
X257631Y379750D02*X258381Y380500D01*
X257631Y379750D02*Y378250D01*
X258381Y377500D01*
X260631Y380500D02*Y378250D01*
X261381Y377500D01*
X258381D02*X259881D01*
X260631Y378250D01*
X263182Y383500D02*Y378250D01*
X263932Y377500D01*
G54D20*X169668Y273869D02*X133698D01*
X171026Y273736D02*X169668Y273869D01*
X172301Y273353D02*X171026Y273736D01*
X173472Y272746D02*X172301Y273353D01*
X174516Y271943D02*X173472Y272746D01*
X175409Y270971D02*X174516Y271943D01*
X176129Y269858D02*X175409Y270971D01*
X176654Y268628D02*X176129Y269858D01*
X176959Y267311D02*X176654Y268628D01*
X177101Y267343D02*X176959Y267311D01*
X183589Y233765D02*X177101Y267343D01*
X206576Y224288D02*X183589Y233765D01*
X234914Y243424D02*X206576Y224288D01*
X235845Y243981D02*X234914Y243424D01*
X236886Y244438D02*X235845Y243981D01*
X238040Y244761D02*X236886Y244438D01*
X239318Y244915D02*X238040Y244761D01*
X240726Y244815D02*X239318Y244915D01*
X242183Y244418D02*X240726Y244815D01*
X243580Y243731D02*X242183Y244418D01*
X244809Y242761D02*X243580Y243731D01*
X270220Y217311D02*X244809Y242761D01*
X271100Y216244D02*X270220Y217311D01*
X271740Y215064D02*X271100Y216244D01*
X272144Y213804D02*X271740Y215064D01*
X272316Y212499D02*X272144Y213804D01*
X272259Y211179D02*X272316Y212499D01*
X271975Y209882D02*X272259Y211179D01*
X271468Y208640D02*X271975Y209882D01*
X270741Y207486D02*X271468Y208640D01*
X270851Y207415D02*X270741Y207486D01*
X251715Y179046D02*X270851Y207415D01*
X261193Y156129D02*X251715Y179046D01*
X294841Y149603D02*X261193Y156129D01*
X295884Y149342D02*X294841Y149603D01*
X296940Y148935D02*X295884Y149342D01*
X297989Y148350D02*X296940Y148935D01*
X299008Y147551D02*X297989Y148350D01*
X299937Y146485D02*X299008Y147551D01*
X300686Y145174D02*X299937Y146485D01*
X301186Y143707D02*X300686Y145174D01*
X301368Y142169D02*X301186Y143707D01*
X301368Y106200D02*Y142169D01*
X301233Y104844D02*X301368Y106200D01*
X300848Y103567D02*X301233Y104844D01*
X300239Y102392D02*X300848Y103567D01*
X299434Y101343D02*X300239Y102392D01*
X298462Y100442D02*X299434Y101343D01*
X297348Y99714D02*X298462Y100442D01*
X296122Y99182D02*X297348Y99714D01*
X294809Y98869D02*X296122Y99182D01*
X294841Y98767D02*X294809Y98869D01*
X261264Y92272D02*X294841Y98767D01*
X251715Y69253D02*X261264Y92272D01*
X270851Y40883D02*X251715Y69253D01*
X271398Y39975D02*X270851Y40883D01*
X271857Y38950D02*X271398Y39975D01*
X272186Y37799D02*X271857Y38950D01*
X272343Y36511D02*X272186Y37799D01*
X272245Y35096D02*X272343Y36511D01*
X271850Y33644D02*X272245Y35096D01*
X271169Y32262D02*X271850Y33644D01*
X270220Y31058D02*X271169Y32262D01*
X244809Y5608D02*X270220Y31058D01*
X243743Y4731D02*X244809Y5608D01*
X242564Y4090D02*X243743Y4731D01*
X241304Y3683D02*X242564Y4090D01*
X239997Y3507D02*X241304Y3683D01*
X238677Y3559D02*X239997Y3507D01*
X237377Y3837D02*X238677Y3559D01*
X236134Y4336D02*X237377Y3837D01*
X234977Y5055D02*X236134Y4336D01*
X234914Y4946D02*X234977Y5055D01*
X206544Y24114D02*X234914Y4946D01*
X194597Y19150D02*X206544Y24114D01*
X193614Y18864D02*X194597Y19150D01*
X192597Y18790D02*X193614Y18864D01*
X191580Y18914D02*X192597Y18790D01*
X190598Y19221D02*X191580Y18914D01*
X189687Y19698D02*X190598Y19221D01*
X188882Y20329D02*X189687Y19698D01*
X188215Y21101D02*X188882Y20329D01*
X187723Y21998D02*X188215Y21101D01*
X162061Y84917D02*X187723Y21998D01*
X161782Y85895D02*X162061Y84917D01*
X161712Y86907D02*X161782Y85895D01*
X161839Y87917D02*X161712Y86907D01*
X162147Y88892D02*X161839Y87917D01*
X162622Y89797D02*X162147Y88892D01*
X163250Y90599D02*X162622Y89797D01*
X164016Y91262D02*X163250Y90599D01*
X164909Y91752D02*X164016Y91262D01*
X167258Y92816D02*X164909Y91752D01*
X169512Y94042D02*X167258Y92816D01*
X171661Y95423D02*X169512Y94042D01*
X173700Y96952D02*X171661Y95423D01*
X175618Y98621D02*X173700Y96952D01*
X177411Y100423D02*X175618Y98621D01*
X179069Y102350D02*X177411Y100423D01*
X180584Y104396D02*X179069Y102350D01*
X181951Y106553D02*X180584Y104396D01*
X183159Y108814D02*X181951Y106553D01*
X184204Y111171D02*X183159Y108814D01*
X185076Y113618D02*X184204Y111171D01*
X185766Y116147D02*X185076Y113618D01*
X186269Y118751D02*X185766Y116147D01*
X186577Y121422D02*X186269Y118751D01*
X186682Y124153D02*X186577Y121422D01*
X186501Y127746D02*X186682Y124153D01*
X185972Y131234D02*X186501Y127746D01*
X185112Y134600D02*X185972Y131234D01*
X183939Y137824D02*X185112Y134600D01*
X182468Y140891D02*X183939Y137824D01*
X180716Y143782D02*X182468Y140891D01*
X178704Y146481D02*X180716Y143782D01*
X176447Y148969D02*X178704Y146481D01*
X173961Y151231D02*X176447Y148969D01*
X171266Y153246D02*X173961Y151231D01*
X168377Y155000D02*X171266Y153246D01*
X165312Y156474D02*X168377Y155000D01*
X162090Y157650D02*X165312Y156474D01*
X158726Y158513D02*X162090Y157650D01*
X155239Y159042D02*X158726Y158513D01*
X151644Y159222D02*X155239Y159042D01*
X148051D02*X151644Y159222D01*
X144564Y158513D02*X148051Y159042D01*
X141201Y157650D02*X144564Y158513D01*
X137979Y156474D02*X141201Y157650D01*
X134915Y155000D02*X137979Y156474D01*
X132027Y153246D02*X134915Y155000D01*
X129332Y151231D02*X132027Y153246D01*
X126848Y148969D02*X129332Y151231D01*
X124590Y146481D02*X126848Y148969D01*
X122578Y143782D02*X124590Y146481D01*
X120827Y140891D02*X122578Y143782D01*
X119356Y137824D02*X120827Y140891D01*
X118182Y134600D02*X119356Y137824D01*
X117322Y131234D02*X118182Y134600D01*
X116794Y127746D02*X117322Y131234D01*
X116614Y124153D02*X116794Y127746D01*
X116717Y121422D02*X116614Y124153D01*
X117025Y118751D02*X116717Y121422D01*
X117528Y116147D02*X117025Y118751D01*
X118219Y113618D02*X117528Y116147D01*
X119090Y111171D02*X118219Y113618D01*
X120135Y108814D02*X119090Y111171D01*
X121344Y106553D02*X120135Y108814D01*
X122710Y104396D02*X121344Y106553D01*
X124226Y102350D02*X122710Y104396D01*
X125884Y100423D02*X124226Y102350D01*
X127676Y98621D02*X125884Y100423D01*
X129596Y96952D02*X127676Y98621D01*
X131633Y95423D02*X129596Y96952D01*
X133783Y94042D02*X131633Y95423D01*
X136036Y92816D02*X133783Y94042D01*
X138386Y91752D02*X136036Y92816D01*
X139276Y91262D02*X138386Y91752D01*
X140042Y90599D02*X139276Y91262D01*
X140670Y89797D02*X140042Y90599D01*
X141144Y88892D02*X140670Y89797D01*
X141452Y87917D02*X141144Y88892D01*
X141577Y86907D02*X141452Y87917D01*
X141508Y85895D02*X141577Y86907D01*
X141227Y84917D02*X141508Y85895D01*
X115572Y21998D02*X141227Y84917D01*
X115078Y21101D02*X115572Y21998D01*
X114411Y20329D02*X115078Y21101D01*
X113605Y19698D02*X114411Y20329D01*
X112694Y19221D02*X113605Y19698D01*
X111714Y18914D02*X112694Y19221D01*
X110698Y18790D02*X111714Y18914D01*
X109681Y18864D02*X110698Y18790D01*
X108698Y19150D02*X109681Y18864D01*
X96751Y24114D02*X108698Y19150D01*
X68381Y4946D02*X96751Y24114D01*
X67448Y4390D02*X68381Y4946D01*
X66408Y3932D02*X67448Y4390D01*
X65252Y3608D02*X66408Y3932D01*
X63971Y3454D02*X65252Y3608D01*
X62566Y3553D02*X63971Y3454D01*
X61110Y3952D02*X62566Y3553D01*
X59714Y4639D02*X61110Y3952D01*
X58486Y5608D02*X59714Y4639D01*
X33106Y31058D02*X58486Y5608D01*
X33106Y31097D02*Y31058D01*
X32260Y32138D02*X33106Y31097D01*
X31640Y33300D02*X32260Y32138D01*
X31245Y34547D02*X31640Y33300D01*
X31071Y35844D02*X31245Y34547D01*
X31116Y37155D02*X31071Y35844D01*
X31379Y38446D02*X31116Y37155D01*
X31856Y39679D02*X31379Y38446D01*
X32547Y40819D02*X31856Y39679D01*
X32444Y40883D02*X32547Y40819D01*
X51580Y69221D02*X32444Y40883D01*
X42031Y92272D02*X51580Y69221D01*
X8486Y98767D02*X42031Y92272D01*
X7462Y99022D02*X8486Y98767D01*
X6430Y99412D02*X7462Y99022D01*
X5402Y99975D02*X6430Y99412D01*
X4390Y100747D02*X5402Y99975D01*
X3442Y101802D02*X4390Y100747D01*
X2658Y103121D02*X3442Y101802D01*
X2124Y104618D02*X2658Y103121D01*
X1928Y106200D02*X2124Y104618D01*
X1928Y142169D02*Y106200D01*
X2063Y143565D02*X1928Y142169D01*
X2451Y144863D02*X2063Y143565D01*
X3065Y146043D02*X2451Y144863D01*
X3875Y147086D02*X3065Y146043D01*
X4854Y147972D02*X3875Y147086D01*
X5974Y148683D02*X4854Y147972D01*
X7206Y149199D02*X5974Y148683D01*
X8524Y149500D02*X7206Y149199D01*
X8486Y149603D02*X8524Y149500D01*
X42096Y156097D02*X8486Y149603D01*
X51580Y179078D02*X42096Y156097D01*
X32444Y207415D02*X51580Y179078D01*
X31888Y208349D02*X32444Y207415D01*
X31430Y209389D02*X31888Y208349D01*
X31106Y210546D02*X31430Y209389D01*
X30953Y211826D02*X31106Y210546D01*
X31051Y213224D02*X30953Y211826D01*
X31453Y214668D02*X31051Y213224D01*
X32143Y216053D02*X31453Y214668D01*
X33106Y217272D02*X32143Y216053D01*
X33106Y217311D02*Y217272D01*
X58486Y242761D02*X33106Y217311D01*
X59551Y243639D02*X58486Y242761D01*
X60730Y244279D02*X59551Y243639D01*
X61990Y244686D02*X60730Y244279D01*
X63296Y244863D02*X61990Y244686D01*
X64615Y244811D02*X63296Y244863D01*
X65914Y244533D02*X64615Y244811D01*
X67156Y244033D02*X65914Y244533D01*
X68311Y243314D02*X67156Y244033D01*
X68381Y243424D02*X68311Y243314D01*
X96751Y224288D02*X68381Y243424D01*
X119699Y233765D02*X96751Y224288D01*
X126233Y267343D02*X119699Y233765D01*
X126506Y268431D02*X126233Y267343D01*
X126930Y269514D02*X126506Y268431D01*
X127534Y270572D02*X126930Y269514D01*
X128348Y271581D02*X127534Y270572D01*
X129417Y272488D02*X128348Y271581D01*
X130716Y273214D02*X129417Y272488D01*
X132168Y273696D02*X130716Y273214D01*
X133698Y273869D02*X132168Y273696D01*
G54D32*X32439Y290309D02*Y283669D01*
Y290309D02*X34929Y287819D01*
X37419Y290309D01*
Y283669D01*
X39412Y289479D02*Y283669D01*
Y289479D02*X40242Y290309D01*
X42732D01*
X43562Y289479D01*
Y283669D01*
X39412Y286989D02*X43562D01*
X45556Y290309D02*Y289479D01*
X49706Y285329D01*
Y283669D01*
X45556Y285329D02*Y283669D01*
Y285329D02*X49706Y289479D01*
Y290309D02*Y289479D01*
X51699Y290309D02*X53359D01*
X52529D02*Y283669D01*
X51699D02*X53359D01*
X55353Y290309D02*Y283669D01*
Y290309D02*X57843Y287819D01*
X60333Y290309D01*
Y283669D01*
X62327Y290309D02*Y284499D01*
X63157Y283669D01*
X64817D01*
X65647Y284499D01*
Y290309D02*Y284499D01*
X67640Y290309D02*Y283669D01*
Y290309D02*X70130Y287819D01*
X72620Y290309D01*
Y283669D01*
X77602Y286989D02*X80092D01*
X77602Y283669D02*X80922D01*
X77602Y290309D02*Y283669D01*
Y290309D02*X80922D01*
X82916D02*Y289479D01*
X87066Y285329D01*
Y283669D01*
X82916Y285329D02*Y283669D01*
Y285329D02*X87066Y289479D01*
Y290309D02*Y289479D01*
X89059Y290309D02*X92379D01*
X90719D02*Y283669D01*
X94373Y286989D02*X96863D01*
X94373Y283669D02*X97693D01*
X94373Y290309D02*Y283669D01*
Y290309D02*X97693D01*
X99687D02*Y283669D01*
Y290309D02*Y289479D01*
X103837Y285329D01*
Y290309D02*Y283669D01*
X105830Y290309D02*X109150D01*
X107490D02*Y283669D01*
X114132Y289479D02*Y284499D01*
Y289479D02*X114962Y290309D01*
X116622D01*
X117452Y289479D01*
Y284499D01*
X116622Y283669D02*X117452Y284499D01*
X114962Y283669D02*X116622D01*
X114132Y284499D02*X114962Y283669D01*
X119446Y290309D02*Y283669D01*
Y290309D02*X122766D01*
X119446Y286989D02*X121936D01*
X128577Y290309D02*Y283669D01*
X127747Y290309D02*X131067D01*
X131897Y289479D01*
Y287819D01*
X131067Y286989D02*X131897Y287819D01*
X128577Y286989D02*X131067D01*
X134721Y283669D02*X137211D01*
X133891Y284499D02*X134721Y283669D01*
X133891Y289479D02*Y284499D01*
Y289479D02*X134721Y290309D01*
X137211D01*
X139205Y283669D02*X142525D01*
X143355Y284499D01*
Y286159D02*Y284499D01*
X142525Y286989D02*X143355Y286159D01*
X140035Y286989D02*X142525D01*
X140035Y290309D02*Y283669D01*
X139205Y290309D02*X142525D01*
X143355Y289479D01*
Y287819D01*
X142525Y286989D02*X143355Y287819D01*
X145348D02*X146178D01*
X145348Y286159D02*X146178D01*
X151160Y289479D02*X151990Y290309D01*
X154480D01*
X155310Y289479D01*
Y287819D01*
X151160Y283669D02*X155310Y287819D01*
X151160Y283669D02*X155310D01*
X157304D02*X158134D01*
X160127D02*X163447Y286989D01*
Y289479D02*Y286989D01*
X162617Y290309D02*X163447Y289479D01*
X160957Y290309D02*X162617D01*
X160127Y289479D02*X160957Y290309D01*
X160127Y289479D02*Y287819D01*
X160957Y286989D01*
X163447D01*
X165441Y283669D02*X168761Y286989D01*
Y289479D02*Y286989D01*
X167931Y290309D02*X168761Y289479D01*
X166271Y290309D02*X167931D01*
X165441Y289479D02*X166271Y290309D01*
X165441Y289479D02*Y287819D01*
X166271Y286989D01*
X168761D01*
X170755D02*X174075Y290309D01*
X170755Y286989D02*X174905D01*
X174075Y290309D02*Y283669D01*
X179886Y290309D02*Y289479D01*
X184036Y285329D01*
Y283669D01*
X179886Y285329D02*Y283669D01*
Y285329D02*X184036Y289479D01*
Y290309D02*Y289479D01*
X189018D02*X189848Y290309D01*
X192338D01*
X193168Y289479D01*
Y287819D01*
X189018Y283669D02*X193168Y287819D01*
X189018Y283669D02*X193168D01*
X195162D02*X195992D01*
X197985D02*X202135Y287819D01*
Y290309D02*Y287819D01*
X197985Y290309D02*X202135D01*
X204129Y284499D02*X204959Y283669D01*
X204129Y289479D02*Y284499D01*
Y289479D02*X204959Y290309D01*
X206619D01*
X207449Y289479D01*
Y284499D01*
X206619Y283669D02*X207449Y284499D01*
X204959Y283669D02*X206619D01*
X204129Y285329D02*X207449Y288649D01*
X209443Y286989D02*X212763Y290309D01*
X209443Y286989D02*X213593D01*
X212763Y290309D02*Y283669D01*
X218574Y290309D02*X220234D01*
X219404D02*Y283669D01*
X218574D02*X220234D01*
X222228Y290309D02*Y283669D01*
Y290309D02*Y289479D01*
X226378Y285329D01*
Y290309D02*Y283669D01*
X229202D02*X231692D01*
X228372Y284499D02*X229202Y283669D01*
X228372Y289479D02*Y284499D01*
Y289479D02*X229202Y290309D01*
X231692D01*
X233685D02*Y283669D01*
X237835Y290309D02*Y283669D01*
X233685Y286989D02*X237835D01*
X239829D02*X242319D01*
X239829Y283669D02*X243149D01*
X239829Y290309D02*Y283669D01*
Y290309D02*X243149D01*
X248463D02*X249293Y289479D01*
X245973Y290309D02*X248463D01*
X245143Y289479D02*X245973Y290309D01*
X245143Y289479D02*Y287819D01*
X245973Y286989D01*
X248463D01*
X249293Y286159D01*
Y284499D01*
X248463Y283669D02*X249293Y284499D01*
X245973Y283669D02*X248463D01*
X245143Y284499D02*X245973Y283669D01*
G54D21*X66148Y-9500D02*X69148D01*
X69898Y-8750D01*
Y-7250D02*Y-8750D01*
X69148Y-6500D02*X69898Y-7250D01*
X66898Y-6500D02*X69148D01*
X66898Y-3500D02*Y-9500D01*
X66148Y-3500D02*X69148D01*
X69898Y-4250D01*
Y-5750D01*
X69148Y-6500D02*X69898Y-5750D01*
X71699Y-7250D02*Y-8750D01*
Y-7250D02*X72449Y-6500D01*
X73949D01*
X74699Y-7250D01*
Y-8750D01*
X73949Y-9500D02*X74699Y-8750D01*
X72449Y-9500D02*X73949D01*
X71699Y-8750D02*X72449Y-9500D01*
X78751Y-6500D02*X79501Y-7250D01*
X77251Y-6500D02*X78751D01*
X76501Y-7250D02*X77251Y-6500D01*
X76501Y-7250D02*Y-8750D01*
X77251Y-9500D01*
X79501Y-6500D02*Y-8750D01*
X80251Y-9500D01*
X77251D02*X78751D01*
X79501Y-8750D01*
X82802Y-7250D02*Y-9500D01*
Y-7250D02*X83552Y-6500D01*
X85052D01*
X82052D02*X82802Y-7250D01*
X89854Y-3500D02*Y-9500D01*
X89104D02*X89854Y-8750D01*
X87604Y-9500D02*X89104D01*
X86854Y-8750D02*X87604Y-9500D01*
X86854Y-7250D02*Y-8750D01*
Y-7250D02*X87604Y-6500D01*
X89104D01*
X89854Y-7250D01*
X94355D02*Y-8750D01*
Y-7250D02*X95105Y-6500D01*
X96605D01*
X97355Y-7250D01*
Y-8750D01*
X96605Y-9500D02*X97355Y-8750D01*
X95105Y-9500D02*X96605D01*
X94355Y-8750D02*X95105Y-9500D01*
X99157Y-6500D02*Y-8750D01*
X99907Y-9500D01*
X101407D01*
X102157Y-8750D01*
Y-6500D02*Y-8750D01*
X104708Y-3500D02*Y-8750D01*
X105458Y-9500D01*
X103958Y-5750D02*X105458D01*
X106960Y-3500D02*Y-8750D01*
X107710Y-9500D01*
X109211Y-5000D02*Y-5750D01*
Y-7250D02*Y-9500D01*
X111463Y-7250D02*Y-9500D01*
Y-7250D02*X112213Y-6500D01*
X112963D01*
X113713Y-7250D01*
Y-9500D01*
X110713Y-6500D02*X111463Y-7250D01*
X116264Y-9500D02*X118514D01*
X115514Y-8750D02*X116264Y-9500D01*
X115514Y-7250D02*Y-8750D01*
Y-7250D02*X116264Y-6500D01*
X117764D01*
X118514Y-7250D01*
X115514Y-8000D02*X118514D01*
Y-7250D02*Y-8000D01*
X123016Y-5000D02*Y-5750D01*
Y-7250D02*Y-9500D01*
X125267D02*X127517D01*
X128267Y-8750D01*
X127517Y-8000D02*X128267Y-8750D01*
X125267Y-8000D02*X127517D01*
X124517Y-7250D02*X125267Y-8000D01*
X124517Y-7250D02*X125267Y-6500D01*
X127517D01*
X128267Y-7250D01*
X124517Y-8750D02*X125267Y-9500D01*
X133519Y-3500D02*Y-8750D01*
X134269Y-9500D01*
X132769Y-5750D02*X134269D01*
X135770Y-3500D02*Y-9500D01*
Y-7250D02*X136520Y-6500D01*
X138020D01*
X138770Y-7250D01*
Y-9500D01*
X141322D02*X143572D01*
X140572Y-8750D02*X141322Y-9500D01*
X140572Y-7250D02*Y-8750D01*
Y-7250D02*X141322Y-6500D01*
X142822D01*
X143572Y-7250D01*
X140572Y-8000D02*X143572D01*
Y-7250D02*Y-8000D01*
X148823Y-6500D02*X151073D01*
X148073Y-7250D02*X148823Y-6500D01*
X148073Y-7250D02*Y-8750D01*
X148823Y-9500D01*
X151073D01*
X153625D02*X155875D01*
X152875Y-8750D02*X153625Y-9500D01*
X152875Y-7250D02*Y-8750D01*
Y-7250D02*X153625Y-6500D01*
X155125D01*
X155875Y-7250D01*
X152875Y-8000D02*X155875D01*
Y-7250D02*Y-8000D01*
X158426Y-7250D02*Y-9500D01*
Y-7250D02*X159176Y-6500D01*
X159926D01*
X160676Y-7250D01*
Y-9500D01*
X157676Y-6500D02*X158426Y-7250D01*
X163228Y-3500D02*Y-8750D01*
X163978Y-9500D01*
X162478Y-5750D02*X163978D01*
X166229Y-9500D02*X168479D01*
X165479Y-8750D02*X166229Y-9500D01*
X165479Y-7250D02*Y-8750D01*
Y-7250D02*X166229Y-6500D01*
X167729D01*
X168479Y-7250D01*
X165479Y-8000D02*X168479D01*
Y-7250D02*Y-8000D01*
X171031Y-7250D02*Y-9500D01*
Y-7250D02*X171781Y-6500D01*
X173281D01*
X170281D02*X171031Y-7250D01*
X175082Y-3500D02*Y-8750D01*
X175832Y-9500D01*
X177334Y-5000D02*Y-5750D01*
Y-7250D02*Y-9500D01*
X179585Y-7250D02*Y-9500D01*
Y-7250D02*X180335Y-6500D01*
X181085D01*
X181835Y-7250D01*
Y-9500D01*
X178835Y-6500D02*X179585Y-7250D01*
X184387Y-9500D02*X186637D01*
X183637Y-8750D02*X184387Y-9500D01*
X183637Y-7250D02*Y-8750D01*
Y-7250D02*X184387Y-6500D01*
X185887D01*
X186637Y-7250D01*
X183637Y-8000D02*X186637D01*
Y-7250D02*Y-8000D01*
X191138Y-7250D02*Y-8750D01*
Y-7250D02*X191888Y-6500D01*
X193388D01*
X194138Y-7250D01*
Y-8750D01*
X193388Y-9500D02*X194138Y-8750D01*
X191888Y-9500D02*X193388D01*
X191138Y-8750D02*X191888Y-9500D01*
X196690Y-4250D02*Y-9500D01*
Y-4250D02*X197440Y-3500D01*
X198190D01*
X195940Y-6500D02*X197440D01*
X203141Y-3500D02*Y-8750D01*
X203891Y-9500D01*
X202391Y-5750D02*X203891D01*
X205393Y-3500D02*Y-9500D01*
Y-7250D02*X206143Y-6500D01*
X207643D01*
X208393Y-7250D01*
Y-9500D01*
X210194Y-5000D02*Y-5750D01*
Y-7250D02*Y-9500D01*
X212446D02*X214696D01*
X215446Y-8750D01*
X214696Y-8000D02*X215446Y-8750D01*
X212446Y-8000D02*X214696D01*
X211696Y-7250D02*X212446Y-8000D01*
X211696Y-7250D02*X212446Y-6500D01*
X214696D01*
X215446Y-7250D01*
X211696Y-8750D02*X212446Y-9500D01*
X220697Y-7250D02*Y-11750D01*
X219947Y-6500D02*X220697Y-7250D01*
X221447Y-6500D01*
X222947D01*
X223697Y-7250D01*
Y-8750D01*
X222947Y-9500D02*X223697Y-8750D01*
X221447Y-9500D02*X222947D01*
X220697Y-8750D02*X221447Y-9500D01*
X227749Y-6500D02*X228499Y-7250D01*
X226249Y-6500D02*X227749D01*
X225499Y-7250D02*X226249Y-6500D01*
X225499Y-7250D02*Y-8750D01*
X226249Y-9500D01*
X228499Y-6500D02*Y-8750D01*
X229249Y-9500D01*
X226249D02*X227749D01*
X228499Y-8750D01*
X231800Y-3500D02*Y-8750D01*
X232550Y-9500D01*
X231050Y-5750D02*X232550D01*
X234052Y-3500D02*Y-9500D01*
Y-7250D02*X234802Y-6500D01*
X236302D01*
X237052Y-7250D01*
Y-9500D01*
X200750Y323500D02*Y317500D01*
X203000Y323500D02*X203750Y322750D01*
Y318250D01*
X203000Y317500D02*X203750Y318250D01*
X200000Y317500D02*X203000D01*
X200000Y323500D02*X203000D01*
X207801Y320500D02*X208551Y319750D01*
X206301Y320500D02*X207801D01*
X205551Y319750D02*X206301Y320500D01*
X205551Y319750D02*Y318250D01*
X206301Y317500D01*
X208551Y320500D02*Y318250D01*
X209301Y317500D01*
X206301D02*X207801D01*
X208551Y318250D01*
X211853Y323500D02*Y318250D01*
X212603Y317500D01*
X211103Y321250D02*X212603D01*
X214854Y317500D02*X217104D01*
X214104Y318250D02*X214854Y317500D01*
X214104Y319750D02*Y318250D01*
Y319750D02*X214854Y320500D01*
X216354D01*
X217104Y319750D01*
X214104Y319000D02*X217104D01*
Y319750D02*Y319000D01*
X218906Y321250D02*X219656D01*
X218906Y319750D02*X219656D01*
X224157Y323500D02*Y317500D01*
Y323500D02*X227157D01*
X224157Y320500D02*X226407D01*
X229709Y319750D02*Y317500D01*
Y319750D02*X230459Y320500D01*
X231959D01*
X228959D02*X229709Y319750D01*
X233760Y322000D02*Y321250D01*
Y319750D02*Y317500D01*
X237962Y322750D02*Y317500D01*
Y322750D02*X238712Y323500D01*
X240962D01*
X241712Y322750D01*
Y317500D01*
X237962Y320500D02*X241712D01*
X243513D02*Y318250D01*
X244263Y317500D01*
X245763D01*
X246513Y318250D01*
Y320500D02*Y318250D01*
X250565Y320500D02*X251315Y319750D01*
X249065Y320500D02*X250565D01*
X248315Y319750D02*X249065Y320500D01*
X248315Y319750D02*Y318250D01*
X249065Y317500D01*
X250565D01*
X251315Y318250D01*
X248315Y316000D02*X249065Y315250D01*
X250565D01*
X251315Y316000D01*
Y320500D02*Y316000D01*
X256566Y317500D02*X258066D01*
X257316Y323500D02*Y317500D01*
X255816Y322000D02*X257316Y323500D01*
X259868Y322750D02*X260618Y323500D01*
X262868D01*
X263618Y322750D01*
Y321250D01*
X259868Y317500D02*X263618Y321250D01*
X259868Y317500D02*X263618D01*
X268119Y318250D02*X268869Y317500D01*
X268119Y322750D02*Y318250D01*
Y322750D02*X268869Y323500D01*
X270369D01*
X271119Y322750D01*
Y318250D01*
X270369Y317500D02*X271119Y318250D01*
X268869Y317500D02*X270369D01*
X268119Y319000D02*X271119Y322000D01*
X272921Y320500D02*X275921Y323500D01*
X272921Y320500D02*X276671D01*
X275921Y323500D02*Y317500D01*
X278472Y321250D02*X279222D01*
X278472Y319750D02*X279222D01*
X281774Y317500D02*X283274D01*
X282524Y323500D02*Y317500D01*
X281024Y322000D02*X282524Y323500D01*
X285075Y318250D02*X285825Y317500D01*
X285075Y319750D02*Y318250D01*
Y319750D02*X285825Y320500D01*
X287325D01*
X288075Y319750D01*
Y318250D01*
X287325Y317500D02*X288075Y318250D01*
X285825Y317500D02*X287325D01*
X285075Y321250D02*X285825Y320500D01*
X285075Y322750D02*Y321250D01*
Y322750D02*X285825Y323500D01*
X287325D01*
X288075Y322750D01*
Y321250D01*
X287325Y320500D02*X288075Y321250D01*
X289877D02*X290627D01*
X289877Y319750D02*X290627D01*
X292428Y322750D02*X293178Y323500D01*
X295428D01*
X296178Y322750D01*
Y321250D01*
X292428Y317500D02*X296178Y321250D01*
X292428Y317500D02*X296178D01*
X297980D02*X300980Y320500D01*
Y322750D02*Y320500D01*
X300230Y323500D02*X300980Y322750D01*
X298730Y323500D02*X300230D01*
X297980Y322750D02*X298730Y323500D01*
X297980Y322750D02*Y321250D01*
X298730Y320500D01*
X300980D01*
X305481Y322750D02*X306231Y323500D01*
X308481D01*
X309231Y322750D01*
Y321250D01*
X305481Y317500D02*X309231Y321250D01*
X305481Y317500D02*X309231D01*
X311033Y318250D02*X311783Y317500D01*
X311033Y322750D02*Y318250D01*
Y322750D02*X311783Y323500D01*
X313283D01*
X314033Y322750D01*
Y318250D01*
X313283Y317500D02*X314033Y318250D01*
X311783Y317500D02*X313283D01*
X311033Y319000D02*X314033Y322000D01*
X316584Y317500D02*X318084D01*
X317334Y323500D02*Y317500D01*
X315834Y322000D02*X317334Y323500D01*
X320636Y317500D02*X322136D01*
X321386Y323500D02*Y317500D01*
X319886Y322000D02*X321386Y323500D01*
X326637D02*Y318250D01*
X327387Y317500D01*
X328887D01*
X329637Y318250D01*
Y323500D02*Y318250D01*
X331439Y323500D02*X334439D01*
X332939D02*Y317500D01*
X336990D02*X339240D01*
X336240Y318250D02*X336990Y317500D01*
X336240Y322750D02*Y318250D01*
Y322750D02*X336990Y323500D01*
X339240D01*
X200000Y337750D02*Y332500D01*
Y337750D02*X200750Y338500D01*
X203000D01*
X203750Y337750D01*
Y332500D01*
X200000Y335500D02*X203750D01*
X205551D02*Y333250D01*
X206301Y332500D01*
X207801D01*
X208551Y333250D01*
Y335500D02*Y333250D01*
X211103Y338500D02*Y333250D01*
X211853Y332500D01*
X210353Y336250D02*X211853D01*
X213354Y338500D02*Y332500D01*
Y334750D02*X214104Y335500D01*
X215604D01*
X216354Y334750D01*
Y332500D01*
X218156Y334750D02*Y333250D01*
Y334750D02*X218906Y335500D01*
X220406D01*
X221156Y334750D01*
Y333250D01*
X220406Y332500D02*X221156Y333250D01*
X218906Y332500D02*X220406D01*
X218156Y333250D02*X218906Y332500D01*
X223707Y334750D02*Y332500D01*
Y334750D02*X224457Y335500D01*
X225957D01*
X222957D02*X223707Y334750D01*
X227759Y336250D02*X228509D01*
X227759Y334750D02*X228509D01*
X233010Y338500D02*Y332500D01*
X235260Y334750D01*
X237510Y332500D01*
Y338500D02*Y332500D01*
X239312Y337000D02*Y336250D01*
Y334750D02*Y332500D01*
X241563Y334750D02*Y332500D01*
Y334750D02*X242313Y335500D01*
X243063D01*
X243813Y334750D01*
Y332500D01*
X240813Y335500D02*X241563Y334750D01*
X248615Y338500D02*Y332500D01*
X247865D02*X248615Y333250D01*
X246365Y332500D02*X247865D01*
X245615Y333250D02*X246365Y332500D01*
X245615Y334750D02*Y333250D01*
Y334750D02*X246365Y335500D01*
X247865D01*
X248615Y334750D01*
X251166Y332500D02*X253416D01*
X250416Y333250D02*X251166Y332500D01*
X250416Y334750D02*Y333250D01*
Y334750D02*X251166Y335500D01*
X252666D01*
X253416Y334750D01*
X250416Y334000D02*X253416D01*
Y334750D02*Y334000D01*
X255218Y338500D02*Y333250D01*
X255968Y332500D01*
X257469Y338500D02*Y333250D01*
X258219Y332500D01*
X262421Y338500D02*Y332500D01*
X266171Y338500D02*Y332500D01*
X262421Y335500D02*X266171D01*
X267972Y332500D02*X268722D01*
X273224Y337750D02*Y333250D01*
Y337750D02*X273974Y338500D01*
X275474D01*
X276224Y337750D01*
Y333250D01*
X275474Y332500D02*X276224Y333250D01*
X273974Y332500D02*X275474D01*
X273224Y333250D02*X273974Y332500D01*
X278775D02*X281025D01*
X281775Y333250D01*
X281025Y334000D02*X281775Y333250D01*
X278775Y334000D02*X281025D01*
X278025Y334750D02*X278775Y334000D01*
X278025Y334750D02*X278775Y335500D01*
X281025D01*
X281775Y334750D01*
X278025Y333250D02*X278775Y332500D01*
X283577Y338500D02*Y332500D01*
Y334750D02*X285827Y332500D01*
X283577Y334750D02*X285077Y336250D01*
X289878Y335500D02*X290628Y334750D01*
X288378Y335500D02*X289878D01*
X287628Y334750D02*X288378Y335500D01*
X287628Y334750D02*Y333250D01*
X288378Y332500D01*
X290628Y335500D02*Y333250D01*
X291378Y332500D01*
X288378D02*X289878D01*
X290628Y333250D01*
X293180Y335500D02*Y333250D01*
X293930Y332500D01*
X296180Y335500D02*Y331000D01*
X295430Y330250D02*X296180Y331000D01*
X293930Y330250D02*X295430D01*
X293180Y331000D02*X293930Y330250D01*
Y332500D02*X295430D01*
X296180Y333250D01*
X200000Y353500D02*X203000D01*
X201500D02*Y347500D01*
X204801Y352000D02*Y351250D01*
Y349750D02*Y347500D01*
X207053Y353500D02*Y348250D01*
X207803Y347500D01*
X206303Y351250D02*X207803D01*
X209304Y353500D02*Y348250D01*
X210054Y347500D01*
X212306D02*X214556D01*
X211556Y348250D02*X212306Y347500D01*
X211556Y349750D02*Y348250D01*
Y349750D02*X212306Y350500D01*
X213806D01*
X214556Y349750D01*
X211556Y349000D02*X214556D01*
Y349750D02*Y349000D01*
X216357Y351250D02*X217107D01*
X216357Y349750D02*X217107D01*
X221609Y348250D02*X222359Y347500D01*
X221609Y352750D02*X222359Y353500D01*
X221609Y352750D02*Y348250D01*
X224160Y350500D02*Y348250D01*
X224910Y347500D01*
X226410D01*
X227160Y348250D01*
Y350500D02*Y348250D01*
X229712Y349750D02*Y347500D01*
Y349750D02*X230462Y350500D01*
X231212D01*
X231962Y349750D01*
Y347500D01*
X228962Y350500D02*X229712Y349750D01*
X233763Y353500D02*Y347500D01*
Y349750D02*X236013Y347500D01*
X233763Y349750D02*X235263Y351250D01*
X238565Y349750D02*Y347500D01*
Y349750D02*X239315Y350500D01*
X240065D01*
X240815Y349750D01*
Y347500D01*
X237815Y350500D02*X238565Y349750D01*
X242616D02*Y348250D01*
Y349750D02*X243366Y350500D01*
X244866D01*
X245616Y349750D01*
Y348250D01*
X244866Y347500D02*X245616Y348250D01*
X243366Y347500D02*X244866D01*
X242616Y348250D02*X243366Y347500D01*
X247418Y350500D02*Y348250D01*
X248168Y347500D01*
X248918D01*
X249668Y348250D01*
Y350500D02*Y348250D01*
X250418Y347500D01*
X251168D01*
X251918Y348250D01*
Y350500D02*Y348250D01*
X254469Y349750D02*Y347500D01*
Y349750D02*X255219Y350500D01*
X255969D01*
X256719Y349750D01*
Y347500D01*
X253719Y350500D02*X254469Y349750D01*
X258521Y353500D02*X259271Y352750D01*
Y348250D01*
X258521Y347500D02*X259271Y348250D01*
X263772Y350500D02*X266772D01*
X271274Y353500D02*Y347500D01*
Y353500D02*X274274D01*
X271274Y350500D02*X273524D01*
X278325D02*X279075Y349750D01*
X276825Y350500D02*X278325D01*
X276075Y349750D02*X276825Y350500D01*
X276075Y349750D02*Y348250D01*
X276825Y347500D01*
X279075Y350500D02*Y348250D01*
X279825Y347500D01*
X276825D02*X278325D01*
X279075Y348250D01*
X281627Y353500D02*Y347500D01*
Y348250D02*X282377Y347500D01*
X283877D01*
X284627Y348250D01*
Y349750D02*Y348250D01*
X283877Y350500D02*X284627Y349750D01*
X282377Y350500D02*X283877D01*
X281627Y349750D02*X282377Y350500D01*
X287178Y349750D02*Y347500D01*
Y349750D02*X287928Y350500D01*
X289428D01*
X286428D02*X287178Y349750D01*
X291230Y352000D02*Y351250D01*
Y349750D02*Y347500D01*
X293481Y350500D02*X295731D01*
X292731Y349750D02*X293481Y350500D01*
X292731Y349750D02*Y348250D01*
X293481Y347500D01*
X295731D01*
X299783Y350500D02*X300533Y349750D01*
X298283Y350500D02*X299783D01*
X297533Y349750D02*X298283Y350500D01*
X297533Y349750D02*Y348250D01*
X298283Y347500D01*
X300533Y350500D02*Y348250D01*
X301283Y347500D01*
X298283D02*X299783D01*
X300533Y348250D01*
X303834Y353500D02*Y348250D01*
X304584Y347500D01*
X303084Y351250D02*X304584D01*
X306086Y352000D02*Y351250D01*
Y349750D02*Y347500D01*
X307587Y349750D02*Y348250D01*
Y349750D02*X308337Y350500D01*
X309837D01*
X310587Y349750D01*
Y348250D01*
X309837Y347500D02*X310587Y348250D01*
X308337Y347500D02*X309837D01*
X307587Y348250D02*X308337Y347500D01*
X313139Y349750D02*Y347500D01*
Y349750D02*X313889Y350500D01*
X314639D01*
X315389Y349750D01*
Y347500D01*
X312389Y350500D02*X313139Y349750D01*
X320640Y353500D02*Y347500D01*
X322890Y353500D02*X323640Y352750D01*
Y348250D01*
X322890Y347500D02*X323640Y348250D01*
X319890Y347500D02*X322890D01*
X319890Y353500D02*X322890D01*
X326192Y349750D02*Y347500D01*
Y349750D02*X326942Y350500D01*
X328442D01*
X325442D02*X326192Y349750D01*
X332493Y350500D02*X333243Y349750D01*
X330993Y350500D02*X332493D01*
X330243Y349750D02*X330993Y350500D01*
X330243Y349750D02*Y348250D01*
X330993Y347500D01*
X333243Y350500D02*Y348250D01*
X333993Y347500D01*
X330993D02*X332493D01*
X333243Y348250D01*
X335795Y350500D02*Y348250D01*
X336545Y347500D01*
X337295D01*
X338045Y348250D01*
Y350500D02*Y348250D01*
X338795Y347500D01*
X339545D01*
X340295Y348250D01*
Y350500D02*Y348250D01*
X342096Y352000D02*Y351250D01*
Y349750D02*Y347500D01*
X344348Y349750D02*Y347500D01*
Y349750D02*X345098Y350500D01*
X345848D01*
X346598Y349750D01*
Y347500D01*
X343598Y350500D02*X344348Y349750D01*
X350649Y350500D02*X351399Y349750D01*
X349149Y350500D02*X350649D01*
X348399Y349750D02*X349149Y350500D01*
X348399Y349750D02*Y348250D01*
X349149Y347500D01*
X350649D01*
X351399Y348250D01*
X348399Y346000D02*X349149Y345250D01*
X350649D01*
X351399Y346000D01*
Y350500D02*Y346000D01*
M02*
