G04 start of page 2 for group 0 idx 0 *
G04 Title: (unknown), component *
G04 Creator: pcb 20091103 *
G04 CreationDate: Fri Aug 12 04:18:29 2011 UTC *
G04 For: oskay *
G04 Format: Gerber/RS-274X *
G04 PCB-Dimensions: 305000 295000 *
G04 PCB-Coordinate-Origin: lower left *
%MOIN*%
%FSLAX25Y25*%
%LNFRONT*%
%ADD11C,0.1950*%
%ADD12C,0.0080*%
%ADD13C,0.0200*%
%ADD14C,0.0750*%
%ADD15C,0.1400*%
G54D11*X237339Y209769D03*
Y38469D03*
X272739Y123969D03*
X151739Y245269D03*
X66139Y38469D03*
X30539Y124069D03*
X66039Y209769D03*
G54D12*X83833Y112655D02*X84148Y110919D01*
X83833Y112656D02*X84148Y110919D01*
X77339Y102380D02*X85640Y104772D01*
X77339Y102381D02*X85640Y104772D01*
X86264Y102862D01*
X72516Y98419D02*X86264Y102862D01*
X76544Y102229D02*X77339Y102381D01*
G54D13*X73039Y100169D02*X85039Y103569D01*
X73039Y100169D02*Y99569D01*
X77839Y101169D01*
G54D12*X74467Y102658D02*X75096Y102381D01*
X75793Y102233D01*
X72966Y101127D02*X73088Y101180D01*
X72998Y101931D02*X73111Y101870D01*
X72544Y102169D02*X72998Y101931D01*
G54D13*X73539Y102469D02*X76939Y100769D01*
X85039Y103569D01*
G54D12*X72224Y110458D02*X73125Y110969D01*
X74214Y111267D01*
G54D13*X73939Y110069D02*X75439Y110269D01*
G54D12*X74901Y108836D02*X75673Y109080D01*
X74239Y108472D02*X74901Y108836D01*
X75673Y109081D01*
G54D13*X73639Y109169D02*X76039Y110169D01*
G54D12*X74214Y111267D02*X83833Y112655D01*
X74214Y111267D02*X83833Y112656D01*
X75673Y109080D02*X84148Y110919D01*
X75673Y109081D02*X84148Y110919D01*
G54D13*X75439Y110269D02*X83039Y111669D01*
G54D12*X73693Y108008D02*X74239Y108472D01*
X73267Y107461D02*X73693Y108008D01*
X72967Y106849D02*X73267Y107461D01*
X72796Y106192D02*X72967Y106849D01*
G54D13*X71839Y108869D02*X73939Y110069D01*
X72339Y107669D02*X73639Y109169D01*
G54D12*X72760Y105506D02*X72796Y106192D01*
X72760Y105506D02*X72864Y104811D01*
X73103Y104142D01*
X73458Y103552D01*
X73916Y103053D01*
X74467Y102658D01*
G54D13*X72539Y103369D02*X73539Y102469D01*
G54D12*X74467Y102658D02*X75096Y102380D01*
X75793Y102233D01*
X76544Y102229D01*
X77339Y102380D01*
X71783Y100779D02*X72516Y98419D01*
X73281Y101544D02*Y101512D01*
X73260Y101668D02*X73281Y101544D01*
X73201Y101780D02*X73260Y101668D01*
X73111Y101870D02*X73201Y101780D01*
X72966Y101126D02*X73088Y101180D01*
X73187Y101269D01*
X73254Y101383D01*
X73281Y101512D01*
X72544Y102169D02*X73111Y101870D01*
X71783Y100779D02*X72966Y101126D01*
X71783Y100779D02*X72966Y101127D01*
X72115Y102489D02*X72544Y102169D01*
X71716Y102878D02*X72115Y102489D01*
X71353Y103324D02*X71716Y102878D01*
X71033Y103816D02*X71353Y103324D01*
X70762Y104339D02*X71033Y103816D01*
X70547Y104883D02*X70762Y104339D01*
X70394Y105435D02*X70547Y104883D01*
G54D13*X71439Y105969D02*X72539Y103369D01*
G54D12*X70298Y106274D02*X70394Y105435D01*
X70298Y106274D02*X70356Y107178D01*
X70573Y108096D01*
G54D13*X71439Y105969D02*X71839Y108869D01*
G54D12*X70573Y108096D02*X70954Y108978D01*
X71502Y109778D01*
X70954Y108978D02*X71502Y109779D01*
Y109778D02*X72224Y110458D01*
X71502Y109779D02*X72224Y110458D01*
G54D14*X116790Y103939D02*X118360Y101455D01*
X115401Y106542D02*X116790Y103939D01*
X118360Y101455D02*X120103Y99098D01*
X114202Y109254D02*X115401Y106542D01*
X113201Y112068D02*X114202Y109254D01*
X112407Y114973D02*X113201Y112068D01*
X111829Y117963D02*X112407Y114973D01*
X111476Y121027D02*X111829Y117963D01*
X111356Y124157D02*X111476Y121027D01*
X111356Y124157D02*X111409Y126231D01*
X111564Y128278D01*
X111821Y130295D01*
X112175Y132280D01*
X112625Y134230D01*
X113168Y136143D01*
X113801Y138015D01*
X114523Y139845D01*
X115330Y141630D01*
X116219Y143368D01*
X117189Y145056D01*
X118237Y146690D01*
X119361Y148271D01*
X120557Y149793D01*
X121823Y151256D01*
X123158Y152654D01*
X124557Y153989D01*
G54D12*X74214Y142619D02*X75326Y142485D01*
X84740Y140125D01*
X84283Y138105D02*X84740Y140125D01*
X75847Y139951D02*X84283Y138105D01*
Y138106D02*X84740Y140125D01*
X75847Y139952D02*X84283Y138106D01*
X83139Y130087D02*X83351Y132100D01*
X75038Y140045D02*X75847Y139952D01*
G54D13*X74339Y141469D02*X83739Y139169D01*
G54D12*X74734Y133110D02*X83351Y132100D01*
X75038Y140045D02*X75847Y139951D01*
X74284Y139976D02*X75038Y140045D01*
X73596Y139761D02*X74284Y139976D01*
X72986Y139418D02*X73596Y139761D01*
X72467Y138963D02*X72986Y139418D01*
X72051Y138414D02*X72467Y138963D01*
X71751Y137789D02*X72051Y138414D01*
X71577Y137103D02*X71751Y137789D01*
X71533Y136390D02*X71577Y137103D01*
G54D13*X70339Y138169D02*X71039Y135169D01*
X70439Y138069D02*X71039Y135169D01*
G54D12*X71533Y136390D02*X71614Y135698D01*
X71825Y135048D01*
X72169Y134460D01*
X72644Y133961D01*
G54D13*X71639Y133969D02*X72639Y132869D01*
G54D12*X72644Y133961D02*X73238Y133561D01*
X73939Y133274D01*
X74734Y133110D01*
X62621Y131792D02*X83139Y130087D01*
G54D13*X63539Y133469D02*X82239Y131169D01*
X64939Y132769D02*X82239Y131169D01*
X64939Y132769D02*X72639Y132869D01*
G54D12*X62621Y131792D02*X62929Y134499D01*
X70259Y133630D01*
X62929Y134499D02*X70259Y133631D01*
G54D13*X63539Y133469D02*X63739Y132869D01*
G54D12*X70259Y133630D02*X70420Y133647D01*
X70564Y133727D01*
X70667Y133853D01*
X70709Y134010D01*
X70259Y133631D02*X70420Y133647D01*
X70568Y134357D02*X70667Y134233D01*
X70709Y134080D02*Y134010D01*
X70667Y134233D02*X70709Y134080D01*
X70241Y134754D02*X70568Y134357D01*
X69969Y135220D02*X70241Y134754D01*
X70709Y134081D02*Y134010D01*
X70667Y134233D02*X70709Y134081D01*
X69752Y135739D02*X69969Y135220D01*
X69592Y136297D02*X69752Y135739D01*
X69488Y136879D02*X69592Y136297D01*
X69442Y137471D02*X69488Y136879D01*
X69442Y137471D02*X69454Y138059D01*
X69442Y137472D02*X69488Y136879D01*
X69442Y137472D02*X69454Y138059D01*
X69723Y139330D02*X70052Y140034D01*
X70502Y140709D01*
X71063Y141325D01*
X71724Y141854D01*
X72477Y142265D01*
X73310Y142531D01*
X74214Y142619D01*
X69454Y138059D02*X69526Y138626D01*
X69723Y139330D01*
X69454Y138059D02*X69526Y138627D01*
X69723Y139330D01*
G54D13*X72339Y141169D02*X74339Y141469D01*
X73239Y141269D02*X73939Y140769D01*
X70339Y138169D02*X72339Y141169D01*
X70439Y138069D02*X73239Y141269D01*
G54D12*X80899Y149610D02*X81094Y150258D01*
X80805Y149010D02*X80899Y149610D01*
X80805Y149010D02*X80812Y148463D01*
X80921Y147969D01*
X81126Y147542D01*
X81424Y147188D01*
X81800Y146913D01*
X82239Y146722D01*
X82678Y146621D01*
X83137Y146606D01*
G54D13*X79839Y148169D02*X80739Y146469D01*
G54D12*X87131Y151126D02*X87523Y150493D01*
X87691Y149879D01*
X87689Y149515D02*X87691Y149879D01*
X87622Y149079D02*X87689Y149515D01*
X87485Y148546D02*X87622Y149079D01*
X87273Y147899D02*X87485Y148546D01*
X86819Y146867D02*X87273Y147899D01*
X86287Y146047D02*X86819Y146867D01*
G54D13*X86339Y148269D02*X86739Y150369D01*
G54D12*X85683Y145425D02*X86287Y146047D01*
G54D13*X84539Y145869D02*X86339Y148269D01*
G54D12*X85016Y144986D02*X85683Y145425D01*
X84288Y144711D02*X85016Y144986D01*
X83502Y144592D02*X84288Y144711D01*
X82666Y144626D02*X83502Y144592D01*
X81789Y144813D02*X82666Y144626D01*
X81021Y145108D02*X81789Y144813D01*
X80349Y145533D02*X81021Y145108D01*
X79789Y146075D02*X80349Y145533D01*
X79358Y146722D02*X79789Y146075D01*
G54D13*X80739Y146469D02*X82639Y145669D01*
X84539Y145869D01*
G54D12*X83137Y146606D02*X83599Y146692D01*
X84046Y146896D01*
X84458Y147219D01*
X84833Y147665D01*
X85169Y148238D01*
X85466Y148940D01*
X85758Y149775D01*
X85963Y150486D01*
X86049Y151111D01*
X85987Y151686D02*X86049Y151111D01*
X85890Y151958D02*X85987Y151686D01*
X85746Y152214D02*X85890Y151958D01*
G54D13*X86539Y153469D02*X86639Y152169D01*
G54D12*X85557Y152449D02*X85746Y152214D01*
X85557Y152447D02*X85746Y152214D01*
X85325Y152657D02*X85557Y152449D01*
X84752Y153029D02*X85325Y152657D01*
X84006Y153383D02*X84752Y153029D01*
X82965Y153840D02*X84006Y153383D01*
X79067Y147468D02*X79358Y146722D01*
X78944Y148313D02*X79067Y147468D01*
X78944Y148313D02*X79010Y149256D01*
G54D13*X79839Y148169D02*X80239Y150069D01*
G54D12*X79010Y149256D02*X79287Y150297D01*
X85325Y152657D02*X85557Y152447D01*
X82530Y153776D02*X82721Y153872D01*
X81094Y150258D02*X82412Y153596D01*
X79287Y150297D02*X80881Y154322D01*
G54D13*X80239Y150069D02*X81539Y154169D01*
G54D12*X82791Y153872D02*X82965Y153840D01*
X82721Y153872D02*X82791D01*
X82412Y153596D02*X82530Y153776D01*
X80881Y154322D02*X80911Y154456D01*
X80895Y154592D02*X80911Y154456D01*
X80839Y154715D02*X80895Y154592D01*
X80747Y154811D02*X80839Y154715D01*
X80676Y154843D02*X80747Y154811D01*
G54D13*X81539Y153969D02*X82339Y155269D01*
G54D12*X78143Y157968D02*X79188Y157904D01*
X80329Y157518D01*
X79216Y155467D02*X80676Y154843D01*
X78650Y155638D02*X79216Y155467D01*
G54D13*X78139Y156869D02*X81439Y155869D01*
G54D12*X76304Y154336D02*X76681Y154856D01*
X75960Y153706D02*X76304Y154336D01*
X75960Y153707D02*X76304Y154336D01*
X73966Y154281D02*X74405Y155133D01*
X74904Y155899D01*
X75457Y156564D01*
X76061Y157115D01*
X76713Y157542D01*
G54D13*X74939Y154369D02*X76539Y156069D01*
G54D12*X75641Y152972D02*X75960Y153706D01*
X75302Y151878D02*X75641Y152972D01*
X75191Y150889D02*X75302Y151878D01*
X75191Y150889D02*X75313Y150229D01*
X75602Y149635D01*
X73693Y148175D02*X75602Y149635D01*
X73218Y149301D02*X73693Y148175D01*
G54D13*X74239Y149669D02*X74339Y150069D01*
X74239Y151969D02*Y149669D01*
G54D12*X75641Y152972D02*X75960Y153707D01*
X73061Y150565D02*X73218Y149301D01*
X73061Y150565D02*X73195Y151928D01*
X73590Y153351D01*
X73966Y154281D01*
X73061Y150567D02*X73195Y151929D01*
X73590Y153351D01*
X73061Y150567D02*X73218Y149301D01*
G54D13*X74239Y151969D02*X74939Y154369D01*
G54D12*X76681Y154856D02*X77101Y155261D01*
X76713Y157542D02*X77408Y157829D01*
X78143Y157968D01*
X77408Y157831D02*X78143Y157968D01*
X76713Y157542D02*X77408Y157831D01*
X78095Y155660D02*X78650Y155638D01*
X77572Y155533D02*X78095Y155660D01*
X77101Y155261D02*X77572Y155533D01*
G54D13*X76539Y156069D02*X78139Y156869D01*
G54D14*X62965Y239564D02*X63389Y239690D01*
X62567Y239354D02*X62965Y239564D01*
X62208Y239061D02*X62567Y239354D01*
X65087D02*X65447Y239061D01*
X64689Y239564D02*X65087Y239354D01*
X64264Y239690D02*X64689Y239564D01*
X36801Y213600D02*X62208Y239061D01*
X65447D02*X96198Y218347D01*
X124301Y230000D01*
X63827Y239732D02*X64264Y239690D01*
X63389D02*X63827Y239732D01*
X36515Y213249D02*X36801Y213600D01*
X36324Y212867D02*X36515Y213249D01*
X36221Y212463D02*X36324Y212867D01*
X36200Y212042D02*X36221Y212463D01*
G54D12*X80329Y157518D02*X89356Y153281D01*
X84772Y163389D02*X92308Y158907D01*
X91337Y157139D02*X92308Y158907D01*
G54D13*X81439Y155869D02*X88039Y152769D01*
G54D12*X88521Y151410D02*X89356Y153281D01*
X87621Y151789D02*X88521Y151410D01*
X87419Y151803D02*X87621Y151789D01*
X87234Y151718D02*X87419Y151803D01*
X87202Y151686D02*X87234Y151718D01*
X87171Y151647D02*X87202Y151686D01*
X87091Y151533D02*X87171Y151647D01*
X87057Y151396D02*X87091Y151533D01*
X87057Y151396D02*X87070Y151254D01*
X87131Y151126D01*
X78727Y164083D02*X91337Y157139D01*
X83572Y164469D02*X84085Y163894D01*
G54D13*X80139Y164369D02*X91039Y158569D01*
X80139Y164969D02*X83039Y163469D01*
X82239Y164969D02*X83039Y163469D01*
G54D12*X78727Y164083D02*X79943Y166269D01*
G54D13*X80139Y164969D02*Y164369D01*
G54D14*X45866Y151513D02*X57515Y179669D01*
G54D12*X79943Y166269D02*X80984Y165646D01*
X81138Y165599D01*
X81298Y165618D01*
X81442Y165694D01*
X81544Y165819D01*
X81576Y165883D01*
X81625Y166039D01*
X81615Y166199D02*X81625Y166039D01*
X81407Y167231D02*X81615Y166199D01*
X81407Y167231D02*X81480Y168363D01*
X81801Y169489D01*
X83071Y167046D02*X83264Y167653D01*
X82990Y166406D02*X83071Y167046D01*
X83225Y165093D02*X83572Y164469D01*
G54D13*X82239Y165669D02*Y164969D01*
Y165669D02*X82439Y167769D01*
G54D12*X83556Y168211D02*X83895Y168638D01*
X83264Y167653D02*X83556Y168211D01*
X83071Y167044D02*X83264Y167653D01*
X82990Y166406D02*X83071Y167044D01*
X82990Y166406D02*X83036Y165749D01*
X83225Y165093D01*
X83572Y164468D01*
X84085Y163894D01*
X84772Y163389D01*
X84669Y172307D02*X85293Y169529D01*
X84006Y171993D02*X84669Y172307D01*
X84771Y169281D02*X85293Y169529D01*
X84303Y168989D02*X84771Y169281D01*
X83895Y168638D02*X84303Y168989D01*
G54D13*X82439Y167769D02*X83339Y170169D01*
G54D12*X81801Y169489D02*X82341Y170507D01*
X82814Y171082D01*
X83379Y171582D01*
X84006Y171993D01*
G54D13*X83339Y170169D02*X84039Y171069D01*
Y170069D01*
G54D12*X90919Y175297D02*X91329Y174563D01*
X91870Y173882D01*
X92500Y173249D01*
X93176Y172654D01*
X90766Y171714D02*X91748Y170918D01*
G54D13*X89739Y174169D02*X93639Y170769D01*
G54D12*X99848Y172688D02*X100119Y173547D01*
X100113Y174379D02*X100119Y173547D01*
X99876Y175156D02*X100113Y174379D01*
X99468Y175865D02*X99876Y175156D01*
X98948Y176522D02*X99468Y175865D01*
X98948Y176524D02*X99468Y175865D01*
X98364Y177140D02*X98948Y176524D01*
X95380Y179494D02*X95902Y179221D01*
X94837Y179694D02*X95380Y179494D01*
X89979Y172388D02*X90766Y171714D01*
X89366Y172963D02*X89979Y172388D01*
X88906Y173458D02*X89366Y172963D01*
X88570Y173894D02*X88906Y173458D01*
X88332Y174303D02*X88570Y173894D01*
G54D13*X88939Y175569D02*X89739Y174169D01*
X89639Y175669D02*X90339Y173869D01*
G54D12*X88164Y174714D02*X88332Y174303D01*
X88039Y175156D02*X88164Y174714D01*
X87957Y175639D02*X88039Y175156D01*
X87949Y176167D02*X87957Y175639D01*
X87949Y176167D02*X88012Y176725D01*
X88348Y177881D02*X88619Y178449D01*
X88955Y178992D01*
X89356Y179496D01*
X90155Y180196D01*
X88012Y176725D02*X88146Y177301D01*
X88348Y177881D01*
G54D13*X88939Y175569D02*X89439Y177969D01*
X89639Y175669D02*X89939Y178169D01*
G54D12*X93176Y172654D02*X93858Y172086D01*
X94553Y171556D01*
X95271Y171108D01*
X96025Y170783D01*
X93858Y172086D02*X94553Y171557D01*
X95271Y171108D01*
X96025Y170783D02*X96816Y170644D01*
X97634Y170749D01*
X98455Y171131D01*
X99252Y171825D01*
X99848Y172688D01*
G54D13*X99739Y170569D02*X100439Y172069D01*
G54D12*X102969Y172693D02*X104216Y173940D01*
X102101Y173522D02*X102969Y172693D01*
X102005Y173579D02*X102101Y173522D01*
X101898Y173601D02*X102005Y173579D01*
X101787Y173593D02*X101898Y173601D01*
X101680Y173558D02*X101787Y173593D01*
X101584Y173499D02*X101680Y173558D01*
X101507Y173418D02*X101584Y173499D01*
X101507Y173419D02*X101584Y173499D01*
X101456Y173322D02*X101507Y173418D01*
X101439Y173214D02*X101456Y173322D01*
X101432Y172233D02*X101439Y173214D01*
X101260Y171318D02*X101432Y172233D01*
G54D13*X100439Y172069D02*X100839Y173669D01*
G54D12*X101456Y173322D02*X101507Y173419D01*
G54D13*X102739Y174169D02*X103139Y173969D01*
X101039Y174369D02*X101439Y174869D01*
X100839Y173669D02*X101039Y174369D01*
G54D12*X100892Y170457D02*X101260Y171318D01*
X100294Y169639D02*X100892Y170457D01*
X99862Y169204D02*X100294Y169639D01*
G54D13*X98339Y169669D02*X99739Y170569D01*
X96239Y169469D02*X98339Y169669D01*
G54D12*X99443Y168868D02*X99862Y169204D01*
X99027Y168619D02*X99443Y168868D01*
X98608Y168446D02*X99027Y168619D01*
X98178Y168333D02*X98608Y168446D01*
X97730Y168272D02*X98178Y168333D01*
X97257Y168249D02*X97730Y168272D01*
X96751Y168250D02*X97257Y168249D01*
X96296Y168267D02*X96751Y168250D01*
X95864Y168332D02*X96296Y168267D01*
X95416Y168469D02*X95864Y168332D01*
X94912Y168700D02*X95416Y168469D01*
X94317Y169044D02*X94912Y168700D01*
X93607Y169518D02*X94317Y169044D01*
X92758Y170138D02*X93607Y169518D01*
X91748Y170918D02*X92758Y170138D01*
G54D13*X93639Y170769D02*X96239Y169469D01*
G54D14*X9506Y144443D02*X45866Y151513D01*
X9043Y144397D02*X9506Y144443D01*
X8610Y144267D02*X9043Y144397D01*
X8216Y144058D02*X8610Y144267D01*
X7871Y143783D02*X8216Y144058D01*
X7585Y143449D02*X7871Y143783D01*
X7369Y143063D02*X7585Y143449D01*
X7232Y142635D02*X7369Y143063D01*
X7184Y142175D02*X7232Y142635D01*
X7184Y142175D02*Y106194D01*
X7233Y105744D01*
X7372Y105341D01*
X7591Y104986D01*
X7879Y104679D01*
X8225Y104420D01*
X8619Y104209D01*
X9050Y104046D01*
X9506Y103932D01*
X45812Y96862D01*
G54D12*X100712Y71028D02*X101406Y71425D01*
X100347Y70737D02*X100712Y71028D01*
X99951Y70376D02*X100347Y70737D01*
X99502Y69933D02*X99951Y70376D01*
X98976Y69394D02*X99502Y69933D01*
G54D13*X97639Y69969D02*X101439Y72669D01*
G54D12*X98445Y68829D02*X98976Y69394D01*
X98023Y68334D02*X98445Y68829D01*
X97695Y67892D02*X98023Y68334D01*
X97446Y67485D02*X97695Y67892D01*
X97137Y66711D02*X97446Y67485D01*
X96996Y65954D02*X97137Y66711D01*
X96996Y65954D02*X97026Y65198D01*
X97272Y64423D01*
X96562Y70166D02*X97343Y70957D01*
X98168Y71728D01*
X98892Y72349D01*
X98168Y71728D02*X98892Y72350D01*
X97272Y64423D02*X97709Y63685D01*
X98314Y63042D01*
X99025Y62541D01*
X99796Y62202D01*
X100581Y62055D01*
X98314Y63042D02*X99025Y62542D01*
X99796Y62202D01*
X100581Y62056D01*
X101336Y62135D01*
X98892Y72349D02*X99536Y72839D01*
X100121Y73214D01*
X100667Y73488D01*
X101201Y73682D01*
X101749Y73806D01*
X102339Y73869D01*
X99536Y72840D02*X100121Y73214D01*
X102509Y71709D02*X102827Y71722D01*
X102165Y71651D02*X102509Y71709D01*
X102165Y71652D02*X102509Y71709D01*
X102133Y71651D02*X102165D01*
X101406Y71425D02*X102133Y71651D01*
Y71652D02*X102165D01*
X101406Y71425D02*X102133Y71652D01*
X98892Y72350D02*X99536Y72840D01*
X104866Y65247D02*X105249Y65773D01*
X105550Y66234D01*
X105779Y66649D01*
X106038Y67401D01*
X106126Y68140D01*
X106158D01*
X106110Y68837D02*X106158Y68140D01*
X105889Y69548D02*X106110Y68837D01*
X105490Y70234D02*X105889Y69548D01*
X104911Y70854D02*X105490Y70234D01*
X103883Y71487D02*X104911Y70854D01*
X102827Y71722D02*X103883Y71487D01*
X102339Y73869D02*X102796Y73882D01*
X103246Y73869D01*
X103943Y73810D01*
X104682Y73616D01*
X105491Y73219D01*
X106402Y72551D01*
X106979Y72008D01*
X107432Y71475D01*
X105491Y73219D02*X106402Y72552D01*
X106979Y72008D01*
G54D13*X103539Y72769D02*X105339Y71869D01*
X106739Y70369D01*
G54D12*X107432Y71475D02*X107776Y70954D01*
X108027Y70444D01*
X108201Y69945D01*
X108313Y69460D01*
X108379Y68987D01*
X108027Y70444D02*X108201Y69946D01*
X108313Y69460D01*
X108379Y68987D02*X108415Y68526D01*
X108424Y67934D01*
X108367Y67381D02*X108424Y67934D01*
X108240Y66837D02*X108367Y67381D01*
X108379Y68987D02*X108415Y68527D01*
X108424Y67934D01*
X108036Y66269D02*X108240Y66837D01*
X107743Y65650D02*X108036Y66269D01*
X107343Y64955D02*X107743Y65650D01*
X106820Y64162D02*X107343Y64955D01*
X106158Y63247D02*X106820Y64162D01*
Y64163D02*X107343Y64955D01*
X106158Y63247D02*X106820Y64163D01*
G54D13*X106739Y70369D02*X107339Y68369D01*
X106739Y66169D02*X107339Y68369D01*
X104939Y63669D02*X106739Y66169D01*
G54D12*X100581Y62055D02*X101336Y62135D01*
X102060Y62416D01*
X102756Y62868D01*
X103112Y63181D01*
X103490Y63569D01*
X103910Y64049D01*
X104390Y64636D01*
X104866Y65247D01*
G54D13*X101439Y61069D02*X103139Y61569D01*
G54D12*X105473Y62369D02*X106158Y63247D01*
X104848Y61659D02*X105473Y62369D01*
X104266Y61096D02*X104848Y61659D01*
X103713Y60661D02*X104266Y61096D01*
X103173Y60334D02*X103713Y60661D01*
G54D13*X103139Y61569D02*X104939Y63669D01*
G54D12*X102629Y60096D02*X103173Y60334D01*
X102067Y59927D02*X102629Y60096D01*
X101471Y59807D02*X102067Y59927D01*
X101022Y59760D02*X101471Y59807D01*
G54D14*X110705Y23983D02*X136383Y86886D01*
G54D12*X100516Y59764D02*X101022Y59760D01*
X99963Y59826D02*X100516Y59764D01*
X99372Y59956D02*X99963Y59826D01*
X98753Y60164D02*X99372Y59956D01*
G54D13*X99539Y61069D02*X101439D01*
X97939Y62069D02*X99539Y61069D01*
G54D14*X96144Y30028D02*X110705Y23983D01*
G54D12*X98115Y60457D02*X98753Y60164D01*
X97468Y60845D02*X98115Y60457D01*
X96822Y61337D02*X97468Y60845D01*
X96235Y61904D02*X96822Y61337D01*
G54D13*X96639Y63469D02*X97939Y62069D01*
G54D12*X95750Y62505D02*X96235Y61904D01*
X95359Y63124D02*X95750Y62505D01*
X95056Y63743D02*X95359Y63124D01*
X94835Y64346D02*X95056Y63743D01*
G54D13*X95639Y65669D02*X96639Y63469D01*
G54D12*X94689Y64914D02*X94835Y64346D01*
X94612Y65433D02*X94689Y64914D01*
X94597Y65883D02*X94612Y65433D01*
X94597Y65883D02*X94637Y66491D01*
X94725Y67069D01*
X94881Y67636D01*
X95123Y68210D01*
X95471Y68811D01*
G54D13*X95639Y65669D02*X96539Y68469D01*
G54D12*X95471Y68811D02*X95944Y69457D01*
X96562Y70166D01*
G54D13*X96539Y68469D02*X98039Y70069D01*
G54D14*X133681Y88110D02*X136383Y86886D01*
X131089Y89522D02*X133681Y88110D01*
X128618Y91114D02*X131089Y89522D01*
X126274Y92875D02*X128618Y91114D01*
X124068Y94799D02*X126274Y92875D01*
X122008Y96876D02*X124068Y94799D01*
X120103Y99098D02*X122008Y96876D01*
G54D12*X96014Y83929D02*X96404Y83457D01*
X96904Y82597D01*
X97158Y81723D01*
X97227Y80778D01*
X97169Y79708D02*X97227Y80778D01*
X97169Y79708D02*X97183Y79601D01*
X97227Y79504D01*
X97297Y79423D01*
X97385Y79359D01*
X97485Y79318D01*
X97590Y79302D01*
X97695Y79315D01*
X97793Y79361D01*
X103554Y83939D01*
X104461Y82897D01*
X95465Y78004D02*X95766Y78750D01*
X95836Y79575D01*
X89254Y69150D02*X104461Y82897D01*
G54D13*X101439Y72669D02*X103539Y72769D01*
X89239Y70569D02*X103339Y82869D01*
X96139Y77469D02*X96539Y79669D01*
G54D12*X93137Y75676D02*X93788Y76197D01*
X94423Y76747D01*
X94997Y77343D01*
X95465Y78004D01*
X93137Y75677D02*X93788Y76197D01*
X95634Y80456D02*X95836Y79575D01*
X95118Y81374D02*X95634Y80456D01*
X94589Y81982D02*X95118Y81374D01*
X94036Y82418D02*X94589Y81982D01*
X93460Y82687D02*X94036Y82418D01*
X92861Y82794D02*X93460Y82687D01*
X90880Y82284D02*X91859Y82674D01*
X89929Y81724D02*X90880Y82284D01*
X90154Y73979D02*X90961Y74256D01*
X91729Y74663D01*
X92455Y75153D01*
X93137Y75677D01*
G54D13*X89539Y72669D02*X93039Y74569D01*
X95239Y82569D02*X95839Y82269D01*
X96239Y80869D01*
X96539Y79669D01*
G54D12*X207239Y57447D02*X208068Y60572D01*
X209630Y58875D01*
G54D13*X207539Y56069D02*X208539Y58969D01*
X207539Y55669D02*X208539Y58969D01*
G54D12*X195047Y70783D02*X206544Y57312D01*
X208589Y55332D02*X209630Y58875D01*
X205882Y53178D02*X208589Y55332D01*
G54D13*X206239Y54569D02*X207539Y56069D01*
X205239Y56969D02*X207539Y55669D01*
G54D12*X193658Y69703D02*X205882Y53178D01*
G54D13*X194839Y69569D02*X206239Y54569D01*
X204939Y57669D02*X205239Y56969D01*
X198939Y64469D02*X204939Y57669D01*
G54D12*X206544Y57312D02*X206716Y57198D01*
X206927Y57190D01*
X207120Y57277D01*
X207239Y57447D01*
X206927Y57190D02*X207120Y57278D01*
X207239Y57447D01*
X193658Y69703D02*X195047Y70783D01*
X202859Y78249D02*X216022Y66372D01*
X216490Y66334D02*X216614Y66443D01*
X201509Y76757D02*X202859Y78249D01*
X201509Y76757D02*X216337Y62521D01*
G54D13*X202939Y76969D02*X216539Y63769D01*
G54D12*X216684Y66649D02*X217064Y69915D01*
X218832Y68424D01*
X218311Y64707D02*X218832Y68424D01*
G54D13*X217539Y65469D02*X217739Y68369D01*
X217339Y65369D02*X217739Y68369D01*
G54D12*X216337Y62521D02*X218311Y64707D01*
G54D13*X216539Y63769D02*X217539Y65469D01*
X216339Y65069D02*X217339Y65369D01*
G54D12*X216022Y66372D02*X216166Y66296D01*
X216332Y66284D01*
X216490Y66334D01*
X216614Y66443D02*X216684Y66649D01*
G54D13*X212039Y68469D02*X216339Y65069D01*
G54D12*X223629Y76583D02*X224312Y76870D01*
X224936Y77275D01*
X225477Y77785D01*
X225259Y74804D02*X226298Y75499D01*
X224111Y74287D02*X225259Y74804D01*
X224312Y76870D02*X224936Y77276D01*
X225477Y77785D01*
X222905Y73994D02*X224111Y74287D01*
X221687Y73959D02*X222905Y73994D01*
X220491Y74228D02*X221687Y73959D01*
X219352Y74847D02*X220491Y74228D01*
G54D13*X224139Y75269D02*X226739Y76969D01*
X222039Y75169D02*X225939Y76769D01*
X221239Y75169D02*X224139Y75269D01*
G54D12*X216716Y87797D02*X224632Y83386D01*
G54D13*X218439Y88069D02*X226339Y83769D01*
X225439Y84669D02*X226339Y83769D01*
G54D12*X215634Y88255D02*X216716Y87797D01*
X215634Y88256D02*X216716Y87797D01*
X217584Y89810D02*X225989Y85540D01*
X227012Y89776D02*X227827Y89289D01*
X225477Y77785D02*X225918Y78383D01*
X226234Y79040D01*
X226425Y79720D01*
X226483Y80411D01*
X226407Y81097D02*X226483Y80411D01*
X226184Y81758D02*X226407Y81097D01*
X225816Y82373D02*X226184Y81758D01*
X225300Y82924D02*X225816Y82373D01*
X224632Y83386D02*X225300Y82924D01*
G54D13*X225439Y93969D02*X227039Y91369D01*
G54D12*X225989Y85540D02*X227064Y84808D01*
X227857Y83897D01*
G54D13*X225439Y84669D02*X227239Y83169D01*
G54D12*X228393Y82852D02*X228695Y81721D01*
X228782Y80544D01*
X228659Y79372D02*X228782Y80544D01*
X228347Y78254D02*X228659Y79372D01*
X227859Y77239D02*X228347Y78254D01*
X227180Y76327D02*X227859Y77239D01*
X226298Y75499D02*X227180Y76327D01*
X227857Y83897D02*X228393Y82852D01*
X225816Y82374D02*X226184Y81758D01*
X225300Y82924D02*X225816Y82374D01*
G54D13*X227239Y83169D02*X227839Y80469D01*
X227239Y82569D02*X227339Y79669D01*
X226239Y83169D02*X227239Y82569D01*
X226739Y76969D02*X227839Y80469D01*
X225939Y76769D02*X227339Y79669D01*
G54D12*X213173Y82171D02*X220639Y77033D01*
X221375Y76644D01*
X222136Y76450D01*
X222895Y76435D01*
X223629Y76583D01*
G54D13*X215039Y78969D02*X215439Y79369D01*
G54D12*X214601Y88421D02*X215634Y88255D01*
X214601Y88421D02*X215634Y88256D01*
X211784Y80435D02*X219352Y74847D01*
G54D13*X215039Y78969D02*X221239Y75169D01*
X215439Y79369D02*X222039Y75169D01*
G54D12*X213047Y88010D02*X213790Y88322D01*
X212394Y87494D02*X213047Y88010D01*
G54D13*X211139Y82669D02*X214739Y79769D01*
G54D12*X213790Y88322D02*X214601Y88421D01*
X213047Y88009D02*X213790Y88322D01*
X214080Y90646D02*X214894Y90635D01*
G54D13*X213839Y89569D02*X215339Y89469D01*
X218439Y88069D01*
G54D12*X214894Y90635D02*X215754Y90496D01*
X216654Y90223D01*
X217584Y89810D01*
X212816Y90397D02*X214080Y90646D01*
G54D13*X215439Y96169D02*X215639Y96069D01*
G54D12*X209044Y85036D02*X209140Y86001D01*
X209432Y86968D01*
G54D13*X210239Y84469D02*X210339Y86169D01*
G54D12*X209432Y86968D02*X209914Y87932D01*
X210716Y89015D01*
X211689Y89845D01*
X212816Y90397D01*
G54D13*X210339Y86169D02*X211439Y88369D01*
X213839Y89569D01*
G54D12*X211330Y84898D02*X211437Y84286D01*
X211684Y83706D01*
X212059Y83161D01*
X212557Y82650D01*
X213173Y82171D01*
X210770Y81301D02*X211784Y80435D01*
X210000Y82205D02*X210770Y81301D01*
X209464Y83136D02*X210000Y82205D01*
X209148Y84080D02*X209464Y83136D01*
X209044Y85036D02*X209148Y84080D01*
Y84081D02*X209464Y83136D01*
X209044Y85036D02*X209148Y84081D01*
G54D13*X210239Y84469D02*X211139Y82669D01*
G54D12*X212394Y87494D02*X213047Y88009D01*
X211855Y86787D02*X212394Y87494D01*
X211544Y86155D02*X211855Y86787D01*
X211368Y85523D02*X211544Y86155D01*
X211330Y84898D02*X211368Y85523D01*
G54D14*X177027Y92875D02*X179233Y94799D01*
X174683Y91114D02*X177027Y92875D01*
X172211Y89522D02*X174683Y91114D01*
X169619Y88110D02*X172211Y89522D01*
X166918Y86886D02*X169619Y88110D01*
X166918Y86886D02*X192595Y23983D01*
X207162Y30028D01*
X181294Y96876D02*X183200Y99098D01*
X207162Y30028D02*X237854Y9308D01*
X238214Y9016D01*
X238611Y8807D01*
X239036Y8682D01*
X240733Y9016D02*X241093Y9308D01*
X239036Y8682D02*X239473Y8641D01*
X239909Y8682D01*
X240334Y8807D01*
X240733Y9016D01*
X241093Y9308D02*X266500Y34775D01*
X266786Y35124D02*X266976Y35500D01*
X267045Y36723D02*X267100Y36306D01*
X266923Y37141D02*X267045Y36723D01*
X266739Y37554D02*X266923Y37141D01*
X266500Y37954D02*X266739Y37554D01*
X266500Y34775D02*X266786Y35124D01*
X266976Y35500D02*X267079Y35896D01*
X267100Y36306D01*
X245786Y68651D02*X266500Y37954D01*
X245786Y68651D02*X257493Y96862D01*
G54D12*X91859Y82674D02*X92861Y82794D01*
X90880Y82283D02*X91859Y82674D01*
X89929Y81724D02*X90880Y82283D01*
X89009Y81097D02*X89929Y81724D01*
X88277Y80568D02*X89009Y81097D01*
X87590Y80003D02*X88277Y80568D01*
X86987Y79386D02*X87590Y80003D01*
X85881Y81671D02*X86732Y82267D01*
X87794Y82968D01*
G54D13*X86839Y80569D02*X87339Y81669D01*
X89139Y82269D01*
G54D12*X86508Y78699D02*X86987Y79386D01*
X86216Y77927D02*X86508Y78699D01*
X86167Y77083D02*X86216Y77927D01*
X86167Y77083D02*X86394Y76186D01*
X86926Y75258D01*
X87664Y74497D01*
X92964Y85193D02*X93471Y85145D01*
X93945Y85073D01*
X94392Y84965D01*
X93945Y85073D02*X94392Y84966D01*
X92757Y85180D02*X92964Y85193D01*
X87794Y82968D02*X88739Y83570D01*
X89547Y84061D01*
X90233Y84449D01*
X90816Y84743D01*
X91308Y84944D01*
X91738Y85069D01*
X92131Y85134D01*
X92514Y85154D01*
X92757Y85180D01*
G54D13*X89139Y82269D02*X91039Y83669D01*
X92839Y83969D01*
G54D12*X94392Y84965D02*X94818Y84809D01*
X95227Y84593D01*
X95624Y84304D01*
X94818Y84810D02*X95227Y84593D01*
X94392Y84966D02*X94818Y84810D01*
X95624Y84304D02*X96014Y83929D01*
G54D13*X92839Y83969D02*X94939Y83669D01*
X95239Y82569D01*
G54D12*X87664Y74497D02*X88473Y74053D01*
X89314Y73892D01*
X90154Y73979D01*
X90961Y74255D01*
X91729Y74663D01*
X92455Y75152D01*
X93137Y75676D01*
X87479Y71162D02*X89254Y69150D01*
G54D13*X88939Y70969D02*X89239Y70569D01*
G54D12*X87479Y71162D02*X88418Y71928D01*
X88212Y72622D02*X88362Y72580D01*
X87214Y72820D02*X88212Y72622D01*
X88418Y71928D02*X88515Y72047D01*
X88561Y72192D01*
X88553Y72344D02*X88561Y72192D01*
X88489Y72480D02*X88553Y72344D01*
X88362Y72580D02*X88489Y72480D01*
Y72481D02*X88553Y72344D01*
X88362Y72580D02*X88489Y72481D01*
G54D13*X88739Y73269D02*X89539Y72669D01*
G54D12*X86207Y73253D02*X87214Y72820D01*
X85282Y73883D02*X86207Y73253D01*
X84527Y74674D02*X85282Y73883D01*
G54D13*X86439Y74069D02*X88739Y73269D01*
X85139Y76369D02*X86439Y74069D01*
G54D12*X84177Y75213D02*X84527Y74674D01*
X83897Y75785D02*X84177Y75213D01*
X83689Y76375D02*X83897Y75785D01*
X83548Y76970D02*X83689Y76375D01*
X83477Y77556D02*X83548Y76970D01*
X83472Y78118D02*X83477Y77556D01*
G54D14*X45812Y96862D02*X57515Y68651D01*
X36297Y37207D02*X57515Y68651D01*
X36129Y36364D02*X36297Y37207D01*
X36129Y36364D02*X36297Y35522D01*
G54D12*X83472Y78118D02*X83533Y78643D01*
X83659Y79117D01*
X83829Y79543D01*
X84040Y79930D01*
X84321Y80310D01*
X84701Y80711D01*
X85213Y81159D01*
X85881Y81671D01*
G54D13*X85839Y80569D02*X86839D01*
X84539Y77669D02*X85139Y76369D01*
X84539Y77669D02*X85139Y79569D01*
X85439Y77969D01*
X85839Y80569D01*
X85039Y75669D02*X85439D01*
G54D14*X65447Y9308D02*X96144Y30028D01*
X36297Y35522D02*X36801Y34775D01*
X64625Y8886D02*X65044Y9069D01*
X65447Y9308D01*
X62561Y9024D02*X62944Y8834D01*
X63350Y8731D01*
X63770Y8710D01*
X64198Y8764D01*
X64625Y8886D01*
X62208Y9308D02*X62561Y9024D01*
X36801Y34775D02*X62208Y9308D01*
G54D12*X80290Y94182D02*X80431Y94253D01*
X79527Y93735D02*X80290Y94182D01*
X78906Y93207D02*X79527Y93735D01*
X78431Y92612D02*X78906Y93207D01*
Y93208D02*X79527Y93735D01*
X78431Y92612D02*X78906Y93208D01*
X78104Y91964D02*X78431Y92612D01*
X77929Y91275D02*X78104Y91964D01*
X77904Y90572D02*X77929Y91275D01*
X77904Y90572D02*X78022Y89871D01*
X77904Y90573D02*X77929Y91275D01*
X77904Y90573D02*X78022Y89871D01*
X78244Y95787D02*X79422Y96375D01*
X80329Y87308D02*X81044Y87153D01*
X81814Y87148D01*
X82622Y87303D01*
X83454Y87624D01*
X83568Y87718D01*
X83638Y87849D01*
X83659Y87998D01*
X83627Y88144D02*X83659Y87998D01*
X85119Y88942D02*X85220Y88817D01*
X85361Y88741D01*
X85519Y88722D01*
X85672Y88768D01*
X86478Y89259D01*
X87135Y89822D01*
X80431Y94253D02*X80464D01*
X85846Y98317D02*X86494Y98039D01*
X87078Y97737D01*
X87604Y97404D01*
X85846Y98317D02*X86494Y98040D01*
X87078Y97738D01*
X87604Y97404D01*
X79422Y96375D02*X81441Y97069D01*
G54D13*X79139Y94769D02*X81039Y95769D01*
G54D12*X86632Y95464D02*X87209Y94843D01*
X85151Y96407D02*X85846Y98317D01*
G54D13*X86339Y96969D02*X86939Y96569D01*
G54D12*X80811Y94008D02*X83627Y88144D01*
X81441Y97069D02*X85119Y88942D01*
X85939Y95985D02*X86632Y95464D01*
X85151Y96407D02*X85939Y95985D01*
X80674Y94182D02*X80811Y94008D01*
X80464Y94253D02*X80674Y94182D01*
X80755Y94106D02*X80811Y94008D01*
X80674Y94182D02*X80755Y94106D01*
X80574Y94232D02*X80674Y94182D01*
X80464Y94253D02*X80574Y94232D01*
X78022Y89871D02*X78277Y89186D01*
X78650Y88556D01*
X75971Y89394D02*X76368Y88279D01*
X75790Y90573D02*X75971Y89394D01*
X75790Y90573D02*X75829Y91769D01*
X76091Y92935D01*
G54D13*X76939Y91969D02*Y89469D01*
G54D12*X87604Y97404D02*X88076Y97033D01*
X88500Y96619D01*
X87604Y97404D02*X88076Y97034D01*
X88500Y96619D01*
X89222Y95634D02*X89530Y95050D01*
X88500Y96619D02*X88880Y96154D01*
X89222Y95634D01*
G54D13*X86939Y96569D02*X88339Y95069D01*
G54D12*X89850Y90306D02*X90051Y90851D01*
X89569Y89753D02*X89850Y90306D01*
X89569Y89754D02*X89850Y90306D01*
X88169Y88054D02*X88735Y88627D01*
X87492Y87476D02*X88169Y88054D01*
X86699Y86893D02*X87492Y87476D01*
Y87477D02*X88169Y88054D01*
X86699Y86893D02*X87492Y87477D01*
G54D13*X85139Y87269D02*X87439Y88869D01*
G54D12*X85781Y86305D02*X86699Y86893D01*
X84881Y85814D02*X85781Y86305D01*
X84020Y85443D02*X84881Y85814D01*
X83198Y85183D02*X84020Y85443D01*
X85781Y86306D02*X86699Y86893D01*
X84881Y85814D02*X85781Y86306D01*
X87135Y89822D02*X87634Y90448D01*
X89850Y90306D02*X90051Y90852D01*
X89200Y89193D02*X89569Y89753D01*
X88735Y88627D02*X89200Y89193D01*
Y89194D02*X89569Y89754D01*
X88735Y88627D02*X89200Y89194D01*
G54D13*X87439Y88869D02*X88839Y90569D01*
G54D12*X82417Y85025D02*X83198Y85183D01*
X81677Y84963D02*X82417Y85025D01*
X80978Y84988D02*X81677Y84963D01*
X80320Y85091D02*X80978Y84988D01*
X79705Y85264D02*X80320Y85091D01*
X78598Y85790D02*X79705Y85264D01*
X77664Y86511D02*X78598Y85790D01*
X76916Y87363D02*X77664Y86511D01*
X76368Y88279D02*X76916Y87363D01*
G54D13*X77839Y88069D02*X79139Y86669D01*
X81539Y86069D01*
X84739Y86969D01*
G54D12*X89530Y95050D02*X89945Y94025D01*
X90195Y92984D01*
X90243Y91926D01*
X90051Y90851D02*X90243Y91926D01*
X90051Y90852D02*X90243Y91926D01*
X87634Y90448D02*X87968Y91128D01*
X88123Y91850D01*
X88113Y92594D02*X88123Y91850D01*
X87951Y93353D02*X88113Y92594D01*
X87652Y94118D02*X87951Y93353D01*
X87209Y94843D02*X87652Y94118D01*
G54D13*X88339Y95069D02*X89039Y92869D01*
X88839Y90569D02*X89039Y92869D01*
G54D12*X78650Y88556D02*X79120Y88025D01*
X79682Y87606D01*
X80329Y87308D01*
G54D13*X81039Y95769D02*X85139Y87269D01*
G54D12*X76091Y92935D02*X76579Y94023D01*
X77297Y94988D01*
X78244Y95787D01*
G54D13*X78039Y93969D02*X79139Y94769D01*
X76939Y91969D02*X78039Y93969D01*
X76939Y89469D02*X77839Y88069D01*
G54D12*X217726Y105261D02*X219983Y104599D01*
X219497Y101569D02*X219636Y101442D01*
X219312Y101619D02*X219497Y101569D01*
X219123Y101587D02*X219312Y101619D01*
X218973Y101474D02*X219123Y101587D01*
X218902Y101371D02*X218973Y101474D01*
G54D13*X218239Y103969D02*X219439Y103469D01*
G54D12*X219983Y104599D02*X227101Y93487D01*
X227511Y92833D01*
X227927Y92293D01*
X228373Y91874D01*
X228869Y91578D01*
X225223Y92035D02*Y91996D01*
X219636Y101442D02*X225223Y92035D01*
G54D13*X219439Y103469D02*X225439Y93969D01*
X219239Y103569D02*X227839Y90269D01*
G54D12*X216266Y94742D02*X218902Y101371D01*
X214254Y95712D02*X216266Y94742D01*
G54D13*X217039Y100469D02*X217239Y99669D01*
X216239Y96869D02*X217239Y99669D01*
G54D12*X214254Y95712D02*X217726Y105261D01*
X219497Y101570D02*X219636Y101442D01*
X219312Y101619D02*X219497Y101570D01*
G54D13*X215439Y96169D02*X218239Y103969D01*
X217039Y100469D02*X219239Y103569D01*
G54D14*X179233Y94799D02*X181294Y96876D01*
X184943Y101455D02*X186514Y103939D01*
X183200Y99098D02*X184943Y101455D01*
G54D12*X234772Y126126D02*X234804Y125021D01*
X234837Y124860D01*
X234772Y126127D02*X234804Y125021D01*
X233241Y126094D02*X233280Y124982D01*
X233241Y126094D02*X234772Y126126D01*
X233241Y126094D02*X234772Y126127D01*
X219912Y131997D02*X220118Y129985D01*
X219912Y131997D02*X234251Y133701D01*
X219912Y131997D02*X234251Y133702D01*
G54D13*X233539Y132569D02*Y132069D01*
X220839Y131069D02*X233539Y132569D01*
X220839Y131069D02*X232639Y131969D01*
G54D12*X219218Y136858D02*X228766Y138594D01*
X218800Y138839D02*X219218Y136858D01*
X218800Y138839D02*X227275Y140678D01*
G54D13*X219839Y138069D02*X229639Y140069D01*
X219839Y138069D02*X228939Y140169D01*
G54D12*X234251Y133701D02*X234527Y131161D01*
X234251Y133702D02*X234527Y131161D01*
X240359Y134396D02*X240643Y131650D01*
X238386Y131476D02*X240643Y131650D01*
X238386Y131477D02*X240643Y131650D01*
G54D13*X239639Y133269D02*Y132469D01*
G54D12*X238102Y134112D02*X238386Y131476D01*
X238102Y134112D02*X240359Y134396D01*
X238102Y134112D02*X238386Y131477D01*
G54D13*X239139Y133369D02*X239639Y133269D01*
G54D12*X235222Y124603D02*X239427Y124674D01*
X239389Y122030D02*X239427Y124674D01*
X239389Y122031D02*X239427Y124674D01*
X235190Y122133D02*X239389Y122031D01*
G54D13*X237439Y123369D02*X238239Y123769D01*
X238439Y123169D01*
X222939Y123269D02*X237439Y123369D01*
X234039Y123169D02*X238439D01*
G54D12*X234837Y124860D02*X234930Y124724D01*
X235065Y124632D01*
X235222Y124603D01*
G54D13*X234039Y125269D02*Y123169D01*
G54D14*X189505Y138015D02*X190139Y136143D01*
X190682Y134230D01*
X191132Y132280D01*
X191486Y130295D01*
X191741Y128278D01*
X191897Y126231D01*
X191950Y124157D01*
X191830Y121027D02*X191950Y124157D01*
X191476Y117963D02*X191830Y121027D01*
X190898Y114973D02*X191476Y117963D01*
X190104Y112068D02*X190898Y114973D01*
X189102Y109254D02*X190104Y112068D01*
X187904Y106542D02*X189102Y109254D01*
X186514Y103939D02*X187904Y106542D01*
G54D12*X228869Y91578D02*X229519Y91404D01*
X230198Y91402D01*
X230882Y91549D01*
X231544Y91822D01*
X232165Y92208D01*
X232723Y92700D01*
X233187Y93292D01*
X233525Y93976D01*
X233687Y94602D01*
X233739Y95244D01*
X233187Y93292D02*X233525Y93977D01*
X233687Y94602D01*
X233680Y95889D02*X233739Y95244D01*
X233515Y96516D02*X233680Y95889D01*
X233241Y97110D02*X233515Y96516D01*
X232862Y97654D02*X233241Y97110D01*
X233680Y95889D02*X233739Y95245D01*
X232377Y98130D02*X232862Y97654D01*
X231789Y98522D02*X232377Y98130D01*
X231789Y98522D02*X232377Y98131D01*
X232862Y97654D01*
X230062Y88929D02*X231229Y89175D01*
X228914Y88958D02*X230062Y88929D01*
X227827Y89289D02*X228914Y88958D01*
X226322Y90394D02*X227012Y89776D01*
X225733Y91136D02*X226322Y90394D01*
X225223Y91996D02*X225733Y91136D01*
X230062Y88929D02*X231229Y89176D01*
G54D13*X227039Y91369D02*X229539Y90369D01*
X231939Y90969D01*
X229939Y89969D02*X232439Y90669D01*
X227839Y90269D02*X229939Y89969D01*
G54D12*X231789Y98522D02*X232515Y100921D01*
X233459Y100428D01*
X234275Y99762D01*
X234948Y98946D01*
X235466Y98001D01*
X234948Y98946D02*X235466Y98002D01*
Y98001D02*X235843Y96873D01*
X236014Y95706D01*
X235466Y98002D02*X235843Y96873D01*
X236014Y95707D01*
G54D13*X234439Y96669D02*X234639Y94769D01*
Y97969D02*X235139Y95169D01*
X232939Y98869D02*X234439Y96669D01*
X232939Y99569D02*X234639Y97969D01*
X232939Y99569D02*Y98869D01*
G54D12*X235972Y94551D02*X236014Y95706D01*
X233687Y94602D02*X233739Y95245D01*
X235972Y94552D02*X236014Y95707D01*
X234390Y91277D02*X235161Y92314D01*
X233445Y90382D02*X234390Y91277D01*
X232373Y89668D02*X233445Y90382D01*
X231229Y89175D02*X232373Y89668D01*
X231229Y89176D02*X232373Y89668D01*
G54D13*X232439Y90669D02*X234639Y92869D01*
G54D12*X235711Y93455D02*X235972Y94551D01*
X235161Y92314D02*X235711Y93455D01*
Y93456D02*X235972Y94552D01*
X235161Y92314D02*X235711Y93456D01*
G54D13*X231939Y90969D02*X233739Y92369D01*
X234639Y94769D01*
Y92869D02*X235139Y95169D01*
G54D12*X235190Y122133D02*X239389Y122030D01*
X235029Y122104D02*X235190Y122133D01*
X234893Y122013D02*X235029Y122104D01*
X234893Y122014D02*X235029Y122104D01*
X234801Y121879D02*X234893Y122013D01*
X234772Y121722D02*X234801Y121879D01*
X234701Y119703D02*X234772Y121722D01*
X234801Y121880D02*X234893Y122014D01*
X234772Y121722D02*X234801Y121880D01*
X233177Y119742D02*X234701Y119703D01*
X233177Y119742D02*X233241Y121722D01*
X233223Y121890D02*X233241Y121722D01*
X233136Y122037D02*X233223Y121890D01*
G54D13*X234039Y125269D02*Y120669D01*
G54D12*X232997Y122139D02*X233136Y122037D01*
X232830Y122172D02*X232997Y122139D01*
X224008Y122346D02*X232830Y122172D01*
X223764Y124429D02*X232862Y124564D01*
X220118Y129985D02*X234527Y131161D01*
X232862Y124564D02*X233022Y124597D01*
X233157Y124690D01*
X233248Y124825D01*
X233280Y124982D01*
X222451Y121372D02*X222543Y121656D01*
X222414Y121060D02*X222451Y121372D01*
X222414Y121060D02*X222445D01*
X222414Y120333D02*X222445Y121060D01*
X220291Y120397D02*X222414Y120333D01*
X220291Y120397D02*X220362Y121580D01*
X220394D01*
X220477Y122264D01*
X220291Y120397D02*X220362Y121581D01*
X220394D01*
X220477Y122264D01*
G54D13*X221339Y121469D02*X221539Y121369D01*
X221739Y122569D01*
G54D12*X220477Y122264D02*X220648Y122838D01*
X220908Y123312D01*
X221262Y123696D01*
X221722Y124003D01*
X222290Y124229D01*
X222969Y124373D01*
X223764Y124429D01*
G54D13*X221739Y122569D02*X222939Y123269D01*
G54D12*X223402Y122311D02*X224008Y122346D01*
X222895Y122101D02*X223402Y122311D01*
X222690Y121903D02*X222895Y122101D01*
X222543Y121656D02*X222690Y121903D01*
X222895Y122102D02*X223402Y122311D01*
X222690Y121903D02*X222895Y122102D01*
G54D14*X295457Y104589D02*X295732Y104923D01*
X257493Y96862D02*X293848Y103932D01*
X294308Y103978D01*
X294736Y104108D01*
X295122Y104315D01*
X295457Y104589D01*
X295732Y104923D02*X295940Y105308D01*
X296070Y105735D01*
X296116Y106194D01*
Y142175D02*Y106194D01*
X296069Y142625D02*X296116Y142175D01*
X295937Y143029D02*X296069Y142625D01*
X295726Y143385D02*X295937Y143029D01*
X295448Y143693D02*X295726Y143385D01*
X295112Y143954D02*X295448Y143693D01*
X294727Y144165D02*X295112Y143954D01*
X294302Y144329D02*X294727Y144165D01*
X293848Y144443D02*X294302Y144329D01*
X257439Y151513D02*X293848Y144443D01*
G54D12*X226439Y160572D02*X227480Y158315D01*
G54D13*X226039Y159269D02*X226339Y158669D01*
G54D12*X226336Y157833D02*X227480Y158315D01*
X226439Y157029D02*X227384Y156618D01*
X228218Y155951D01*
X226195Y157718D02*X226336Y157833D01*
X217269Y144742D02*X225468Y147417D01*
X216645Y146651D02*X217269Y144742D01*
X216645Y146651D02*X224773Y149564D01*
G54D13*X217539Y145869D02*X227439Y149869D01*
G54D12*X224773Y149564D02*X225505Y149910D01*
X226108Y150357D01*
X226583Y150888D02*X226926Y151482D01*
G54D13*X225039Y148469D02*X227739Y148669D01*
X217539Y145869D02*X225039Y148469D01*
G54D12*X226108Y150357D02*X226583Y150888D01*
X226926Y151482D02*X227137Y152124D01*
X227214Y152794D01*
X226926Y151482D02*X227137Y152125D01*
X227214Y152794D01*
X214254Y152554D02*X222201Y156026D01*
X213386Y154393D02*X214254Y152554D01*
X213386Y154393D02*X226439Y160572D01*
G54D13*X222839Y157369D02*X225339Y156969D01*
G54D12*X227155Y153475D02*X227214Y152794D01*
X226959Y154149D02*X227155Y153475D01*
X226639Y154786D02*X226959Y154149D01*
G54D13*X214639Y153869D02*X226039Y159269D01*
X225339Y156969D02*X226939Y155669D01*
G54D12*X226120Y157550D02*X226195Y157718D01*
X226118Y157367D02*X226120Y157550D01*
X226118Y157367D02*X226194Y157203D01*
X226233Y157171D01*
X226265Y157139D01*
X226439Y157029D01*
X226219Y155343D02*X226639Y154786D01*
X225709Y155797D02*X226219Y155343D01*
X225120Y156129D02*X225709Y155797D01*
X224455Y156325D02*X225120Y156129D01*
X223733Y156379D02*X224455Y156325D01*
X222976Y156282D02*X223733Y156379D01*
X222201Y156026D02*X222976Y156282D01*
G54D13*X222839Y157369D02*X226339Y158669D01*
G54D14*X177286Y155256D02*X178748Y153989D01*
X180147Y152654D01*
X181482Y151256D01*
X182748Y149793D01*
X183944Y148271D01*
X185068Y146690D01*
X186116Y145056D01*
X187086Y143368D01*
X187976Y141630D01*
X188783Y139845D01*
X189505Y138015D01*
G54D12*X228218Y155951D02*X228907Y155085D01*
X229422Y154078D01*
X229789Y152728D01*
X229819Y151472D01*
X229582Y150322D02*X229819Y151472D01*
G54D14*X245786Y179669D02*X257439Y151513D01*
G54D12*X229145Y149288D02*X229582Y150322D01*
X229114Y149142D02*X229145Y149288D01*
X229114Y149142D02*X229134Y148994D01*
X229205Y148864D01*
X229319Y148767D01*
X229882Y148460D01*
G54D13*X226939Y155669D02*X228439Y153469D01*
X228839Y151069D01*
X227739Y148669D02*X228839Y151069D01*
X227439Y149869D02*X228339Y152669D01*
G54D12*X229882Y148460D02*X230401Y148072D01*
X230875Y147613D01*
X231301Y147088D01*
X231677Y146506D01*
X232001Y145875D01*
X231301Y147088D02*X231677Y146507D01*
X232001Y145875D01*
X228939Y146715D02*X229408Y146196D01*
X228375Y147132D02*X228939Y146715D01*
G54D13*X228139Y148269D02*X229939Y147169D01*
G54D12*X227732Y147426D02*X228375Y147132D01*
X227025Y147585D02*X227732Y147426D01*
X226265Y147588D02*X227025Y147585D01*
X225468Y147417D02*X226265Y147588D01*
X232001Y145875D02*X232270Y145203D01*
X232483Y144497D01*
X232601Y143668D01*
X232564Y142767D02*X232601Y143668D01*
X232001Y145875D02*X232270Y145204D01*
X232483Y144497D01*
X232364Y141845D02*X232564Y142767D01*
X230102Y143539D02*X230123Y144222D01*
X230014Y144915D02*X230123Y144222D01*
X229772Y145590D02*X230014Y144915D01*
X229408Y146196D02*X229772Y145590D01*
G54D13*X229939Y147169D02*X231139Y144869D01*
X231339Y142569D01*
G54D12*X231994Y140954D02*X232364Y141845D01*
X231454Y140145D02*X231994Y140954D01*
X230741Y139455D02*X231454Y140145D01*
X229848Y138924D02*X230741Y139455D01*
X228766Y138594D02*X229848Y138924D01*
X227275Y140678D02*X228047Y140920D01*
X228708Y141276D01*
X229251Y141732D01*
X229666Y142272D01*
X229950Y142883D01*
X230102Y143539D01*
G54D13*X230639Y140869D02*X231339Y142569D01*
X229639Y140069D02*X230639Y140869D01*
X228939Y140169D02*X230539Y141969D01*
G54D12*X216716Y173246D02*X217350Y173136D01*
X217964Y172939D01*
X217541Y170988D02*X218069Y170558D01*
X216948Y171296D02*X217541Y170988D01*
X216948Y171297D02*X217541Y170988D01*
X216298Y171478D02*X216948Y171296D01*
X215607Y171517D02*X216298Y171478D01*
X216948Y171297D01*
G54D13*X215839Y172569D02*X217739Y171969D01*
G54D12*X221714Y168642D02*X221834Y167706D01*
X221783Y166751D02*X221834Y167706D01*
X221543Y165826D02*X221783Y166751D01*
X221714Y168642D02*X221834Y167707D01*
X221783Y166751D02*X221834Y167707D01*
X217379Y165015D02*X218015Y165518D01*
X218507Y166093D01*
X218858Y166722D01*
X219068Y167386D01*
X219137Y168067D01*
X219069Y168744D02*X219137Y168067D01*
X221093Y164958D02*X221543Y165826D01*
X220415Y164181D02*X221093Y164958D01*
X219494Y163524D02*X220415Y164181D01*
X219069Y168746D02*X219137Y168067D01*
G54D13*X220139Y165469D02*X220839Y167269D01*
X218339Y163869D02*X220139Y165469D01*
X218439Y164569D02*X219939Y166269D01*
X220039Y168169D01*
G54D12*X217964Y172939D02*X218558Y172661D01*
X219125Y172310D01*
X219662Y171888D01*
X217964Y172939D02*X218558Y172663D01*
X219125Y172310D01*
X219662Y171888D02*X220165Y171401D01*
X220632Y170858D01*
X221057Y170263D01*
X221444Y169510D01*
X219662Y171888D02*X220165Y171403D01*
X220632Y170858D01*
X221444Y169510D02*X221714Y168642D01*
X218865Y169401D02*X219069Y168744D01*
X218523Y170018D02*X218865Y169401D01*
X218069Y170558D02*X218523Y170018D01*
X218865Y169401D02*X219069Y168746D01*
G54D13*X217739Y171969D02*X220139Y169869D01*
X220839Y167269D01*
G54D12*X210119Y160296D02*X211019Y158804D01*
X210119Y160296D02*X217379Y165015D01*
X206505Y165536D02*X213489Y170713D01*
X205290Y167138D02*X206505Y165536D01*
X205290Y167138D02*X212061Y172519D01*
G54D13*X206539Y166869D02*X214639Y172369D01*
X206539Y166869D02*X214139Y173169D01*
G54D12*X214895Y171404D02*X215607Y171517D01*
X214183Y171138D02*X214895Y171404D01*
X213489Y170713D02*X214183Y171138D01*
X212061Y172519D02*X212648Y173090D01*
X211019Y158804D02*X219494Y163524D01*
G54D13*X211439Y160169D02*X218339Y163869D01*
X211439Y160169D02*X218439Y164569D01*
G54D12*X209843Y183528D02*X211611Y181753D01*
X210743Y180885D02*X211611Y181753D01*
X210664Y180757D02*X210743Y180885D01*
X210637Y180608D02*X210664Y180757D01*
X210637Y180608D02*X210664Y180460D01*
X210743Y180332D01*
X210782Y180293D01*
X210923Y180210D01*
X211090Y180190D01*
X211604Y180192D01*
X212132Y180107D01*
X212664Y179944D01*
X213190Y179714D01*
G54D13*X211339Y179469D02*X211839Y179369D01*
X211339Y179469D02*X214039Y178069D01*
G54D12*X213190Y179714D02*X213698Y179424D01*
X214179Y179082D01*
X214619Y178697D01*
X215012Y178281D01*
X214179Y179082D02*X214619Y178699D01*
X215012Y178281D01*
X212058Y178169D02*X212582Y177689D01*
X212058Y178171D02*X212582Y177689D01*
X211466Y178533D02*X212058Y178171D01*
X215012Y178281D02*X215809Y177118D01*
X216269Y175950D01*
X216440Y174801D01*
X211466Y178533D02*X212058Y178169D01*
X210825Y178769D02*X211466Y178533D01*
X210151Y178872D02*X210825Y178769D01*
X209465Y178828D02*X210151Y178872D01*
X208780Y178628D02*X209465Y178828D01*
X208114Y178272D02*X208780Y178628D01*
X207483Y177760D02*X208114Y178272D01*
X201233Y171754D02*X207483Y177760D01*
X199805Y173175D02*X201233Y171754D01*
X199805Y173175D02*X209843Y183528D01*
G54D13*X201139Y172969D02*X209939Y182169D01*
X210439Y181869D01*
X207939Y179269D02*X210439Y181869D01*
X207939Y179269D02*X210039Y179869D01*
G54D12*X216369Y173696D02*X216440Y174801D01*
X216369Y173696D02*X216382Y173543D01*
X216454Y173404D01*
X216569Y173299D01*
X216716Y173246D01*
G54D13*X215539Y175069D02*X215839Y172569D01*
G54D12*X212648Y173090D02*X213077Y173725D01*
X213351Y174403D01*
X213475Y175101D01*
X213455Y175801D02*X213475Y175101D01*
X213351Y174403D02*X213475Y175103D01*
X213455Y175803D02*X213475Y175103D01*
X213295Y176481D02*X213455Y175801D01*
X213002Y177117D02*X213295Y176481D01*
X212582Y177689D02*X213002Y177117D01*
X213295Y176481D02*X213455Y175803D01*
G54D13*X214039Y178069D02*X215539Y175069D01*
X214239Y176369D02*Y173669D01*
X214639Y172369D01*
G54D12*X195504Y194813D02*X197793Y193314D01*
X192900Y186235D02*X197793Y193314D01*
G54D13*X195839Y193569D02*X196539Y193069D01*
G54D12*X190501Y186479D02*X195504Y194813D01*
G54D13*X191139Y185269D02*X196539Y193069D01*
X191139Y185269D02*X195139Y192469D01*
X190539Y184169D02*X195139Y192469D01*
G54D12*X192487Y185547D02*X192900Y186235D01*
X192207Y184861D02*X192487Y185547D01*
Y185549D02*X192900Y186235D01*
X192207Y184861D02*X192487Y185549D01*
X192208Y182901D02*X192490Y182324D01*
X192897Y181799D01*
X193420Y181335D01*
X194008Y180972D01*
X194629Y180736D01*
X195269Y180636D01*
X192064Y184185D02*X192207Y184861D01*
X192064Y184185D02*Y183528D01*
X192208Y182901D01*
X198282Y182242D02*X203695Y189013D01*
X205605Y187450D01*
G54D13*X203839Y187669D02*X204239Y187369D01*
G54D12*X196262Y176442D02*X205605Y187450D01*
G54D13*X196039Y177769D02*X204239Y187369D01*
X196139Y179869D02*X198039Y180469D01*
X203839Y187669D01*
G54D12*X195269Y180636D02*X195915Y180679D01*
X196548Y180865D01*
X197159Y181192D01*
X197740Y181653D01*
X198282Y182242D01*
X194700Y177760D02*X196262Y176442D01*
X194700Y177760D02*X195465Y178699D01*
X195526Y178825D01*
X195540Y178965D01*
X195509Y179101D02*X195540Y178965D01*
X195433Y179219D02*X195509Y179101D01*
X195394Y179251D02*X195433Y179219D01*
X195219Y179356D02*X195394Y179251D01*
X195015Y179361D02*X195219Y179356D01*
X194032Y179192D02*X195015Y179361D01*
X193183Y179208D02*X194032Y179192D01*
X192375Y179446D02*X193183Y179208D01*
X191511Y179946D02*X192375Y179446D01*
X190876Y180475D02*X191511Y179946D01*
X190348Y181106D02*X190876Y180475D01*
X189945Y181828D02*X190348Y181106D01*
G54D13*X191039Y181769D02*X192339Y181169D01*
X192439Y180469D01*
X194439Y180069D01*
G54D12*X189689Y182633D02*X189945Y181828D01*
X189597Y183510D02*X189689Y182633D01*
X189597Y183510D02*X189689Y184450D01*
G54D13*X190539Y184169D02*X191039Y183069D01*
Y181769D01*
G54D12*X189689Y184450D02*X189983Y185443D01*
X190501Y186479D01*
X183036Y200644D02*X183832Y200621D01*
X184640Y200507D01*
X185444Y200296D01*
X181243Y200293D02*X181801Y200479D01*
X182400Y200596D01*
G54D13*X182239Y199269D02*X183939Y199669D01*
X186539Y198669D01*
G54D12*X182400Y200596D02*X183036Y200644D01*
X185444Y200296D02*X186232Y199982D01*
X187719Y199121D01*
X188939Y198108D01*
X187205Y196781D02*X187907Y195972D01*
X186364Y197489D02*X187205Y196781D01*
G54D13*X186539Y198669D02*X188439Y197169D01*
G54D12*X188939Y198108D02*X189889Y196990D01*
X190572Y195815D01*
X188489Y195089D02*X190572Y195815D01*
X187907Y195972D02*X188489Y195089D01*
G54D13*X188439Y197169D02*X188939Y196069D01*
X189239Y196169D01*
G54D12*X185364Y198072D02*X186364Y197489D01*
X184686Y198349D02*X185364Y198072D01*
X184061Y198510D02*X184686Y198349D01*
X183487Y198557D02*X184061Y198510D01*
X182965Y198490D02*X183487Y198557D01*
X182498Y198318D02*X182965Y198490D01*
X182100Y198056D02*X182498Y198318D01*
X181777Y197714D02*X182100Y198056D01*
X181544Y197307D02*X181777Y197714D01*
X181425Y196661D02*X181544Y197307D01*
X181425Y196661D02*X181615Y195957D01*
X182134Y195301D01*
X183004Y194703D01*
G54D14*X267129Y211544D02*X267170Y211981D01*
X267129Y212418D02*X267170Y211981D01*
X267002Y212842D02*X267129Y212418D01*
X266793Y213240D02*X267002Y212842D01*
X266500Y213600D02*X266793Y213240D01*
X239950Y239642D02*X240355Y239539D01*
X241093Y239061D02*X266500Y213600D01*
X245786Y179669D02*X266500Y210367D01*
X266793Y210724D01*
X267002Y211121D01*
X267129Y211544D01*
X240739Y239347D02*X241093Y239061D01*
X240355Y239539D02*X240739Y239347D01*
X239530Y239663D02*X239950Y239642D01*
X239102Y239610D02*X239530Y239663D01*
X238676Y239488D02*X239102Y239610D01*
X238257Y239301D02*X238676Y239488D01*
X237854Y239061D02*X238257Y239301D01*
X207162Y218347D02*X237854Y239061D01*
X179000Y230000D02*X207162Y218347D01*
G54D12*X183004Y194671D02*X183036D01*
X185222Y193424D01*
X181647Y193038D02*X183936Y191719D01*
G54D13*X181139Y194569D02*X185439Y192069D01*
G54D12*X185222Y193424D02*X186084Y192850D01*
X186725Y192231D01*
X187159Y191574D01*
X187408Y190883D01*
X187494Y190169D01*
X185216Y190318D02*X185248Y189921D01*
X185087Y190678D02*X185216Y190318D01*
X184602Y191261D02*X185087Y190678D01*
X183936Y191719D02*X184602Y191261D01*
G54D13*X185439Y192069D02*X186239Y190769D01*
G54D12*X187423Y189433D02*X187494Y190169D01*
X187207Y188683D02*X187423Y189433D01*
X186855Y187932D02*X187207Y188683D01*
X186301Y187124D02*X186855Y187932D01*
X185651Y186504D02*X186301Y187124D01*
G54D13*X184839Y187169D02*X186339Y188969D01*
X186239Y190769D02*X186339Y188969D01*
G54D12*X184909Y186069D02*X185651Y186504D01*
X184077Y185817D02*X184909Y186069D01*
X183157Y185742D02*X184077Y185817D01*
X182152Y185843D02*X183157Y185742D01*
X181077Y186122D02*X182152Y185843D01*
G54D13*X181739Y186969D02*X184839Y187169D01*
G54D12*X181670Y188131D02*X182268Y187958D01*
X182840Y187879D01*
X183383Y187900D01*
X183884Y188031D01*
X184332Y188275D01*
X183383Y187900D02*X183884Y188032D01*
X184332Y188276D01*
X185016Y189083D02*X185182Y189504D01*
X185248Y189921D01*
X181670Y188132D02*X182268Y187958D01*
X184332Y188275D02*X184714Y188628D01*
X185016Y189083D01*
X184332Y188276D02*X184714Y188628D01*
X179943Y186582D02*X181077Y186122D01*
X179230Y186954D02*X179943Y186582D01*
X178597Y187358D02*X179230Y186954D01*
X178032Y187803D02*X178597Y187358D01*
X177522Y188293D02*X178032Y187803D01*
X177054Y188836D02*X177522Y188293D01*
X176615Y189439D02*X177054Y188836D01*
X176193Y190108D02*X176615Y189439D01*
X175776Y190851D02*X176193Y190108D01*
X175776Y190851D02*X177654Y191751D01*
X178250Y190708D01*
X178972Y189818D01*
X179886Y189053D01*
X181055Y188389D01*
X181670Y188131D01*
X181055Y188389D02*X181670Y188132D01*
G54D13*X178739Y188569D02*X181739Y186969D01*
X177139Y190469D02*X178739Y188569D01*
G54D12*X183004Y194703D02*Y194671D01*
X181615Y193038D02*X181647D01*
X180875Y193499D02*X181615Y193038D01*
X180245Y194021D02*X180875Y193499D01*
X179737Y194599D02*X180245Y194021D01*
X179358Y195224D02*X179737Y194599D01*
G54D13*X180339Y196169D02*X181139Y194569D01*
G54D12*X179111Y195896D02*X179358Y195224D01*
X179011Y196615D02*X179111Y195896D01*
X179011Y196615D02*X179066Y197386D01*
X179287Y198214D01*
X179547Y198792D01*
X179879Y199285D01*
X180276Y199699D01*
X180732Y200033D01*
X181243Y200293D01*
X179547Y198792D02*X179879Y199286D01*
X180276Y199699D01*
G54D13*X180339Y197569D02*Y196169D01*
Y197569D02*X180939Y198769D01*
X182239Y199269D01*
G54D12*X93162Y179711D02*X93697Y179811D01*
X92630Y179499D02*X93162Y179711D01*
X92111Y179165D02*X92630Y179499D01*
X91614Y178699D02*X92111Y179165D01*
X91004Y177825D02*X91614Y178699D01*
X90710Y176949D02*X91004Y177825D01*
X90695Y176097D02*X90710Y176949D01*
X90695Y176097D02*X90919Y175297D01*
X93697Y179811D02*X94276Y179806D01*
X98364Y177140D02*X98948Y176522D01*
X97761Y177728D02*X98364Y177140D01*
X97333Y178128D02*X97761Y177728D01*
X96879Y178521D02*X97333Y178128D01*
X96402Y178892D02*X96879Y178521D01*
X95902Y179221D02*X96402Y178892D01*
X95380Y179493D02*X95902Y179221D01*
X94837Y179694D02*X95380Y179493D01*
X90398Y189147D02*X104216Y173940D01*
G54D13*X92839Y180369D02*X94639Y180669D01*
X99339Y187769D02*X100039Y187869D01*
X100239Y186969D01*
X100439Y187669D02*X102039Y186369D01*
X90439Y187869D02*X103139Y173969D01*
X89339Y186969D02*X102339Y174269D01*
X89439Y177969D02*X91039Y179669D01*
G54D12*X97793Y187521D02*X110364Y179117D01*
X99805Y189186D02*X108454Y182763D01*
X109006Y182833D02*X109109Y183008D01*
Y183213D02*Y183008D01*
X97793Y187521D02*X99805Y189186D01*
X108454Y182763D02*X108580Y182701D01*
X108720Y182688D01*
X108857Y182718D01*
X108975Y182794D01*
X109006Y182833D01*
G54D13*X100239Y186969D02*X110639Y180369D01*
G54D12*X94276Y179806D02*X94837Y179694D01*
X93532Y181439D02*X93557Y181551D01*
X93554Y181664D02*X93557Y181551D01*
X93452Y181856D02*X93520Y181768D01*
X93481Y181336D02*X93532Y181440D01*
X93557Y181551D01*
G54D13*X91039Y179669D02*X92839Y180369D01*
G54D12*X114183Y198419D02*X116543Y199532D01*
X109322Y190993D02*X117379Y183765D01*
X116461Y187714D02*X116472Y187900D01*
X109187Y191063D02*X109322Y190993D01*
X109036Y191079D02*X109187Y191063D01*
X108887Y191043D02*X109036Y191079D01*
X108762Y190954D02*X108887Y191043D01*
X108730Y190922D02*X108762Y190954D01*
X107656Y194703D02*X115777Y187482D01*
X115911Y187411D01*
X116064Y187396D01*
X116212Y187432D01*
X116337Y187521D01*
X116369Y187553D01*
X116461Y187714D01*
G54D13*X110339Y191269D02*X117439Y185069D01*
G54D12*X108630Y190743D02*X108730Y190922D01*
X108627Y190536D02*X108630Y190743D01*
X108627Y190536D02*X111887Y180229D01*
X110364Y179117D02*X111887Y180229D01*
G54D13*X107139Y193069D02*X110639Y180369D01*
G54D12*X106094Y193732D02*X109109Y183213D01*
X106094Y193732D02*X107656Y194703D01*
G54D13*X107139Y193069D02*X107239Y193469D01*
X110339Y191269D01*
G54D12*X116543Y199532D02*X119005Y184672D01*
X117379Y183765D02*X119005Y184672D01*
X114183Y198419D02*X116472Y187900D01*
G54D13*X115839Y198169D02*X117139Y189769D01*
X115439Y198069D02*X115839Y198169D01*
X115439Y198069D02*X116039Y194869D01*
X117439Y185069D02*X117839Y185269D01*
X117139Y189769D02*X117839Y185269D01*
G54D12*X90155Y180196D02*X91087Y180704D01*
X92116Y181024D01*
X93208Y181161D01*
X93317Y181189D01*
X93409Y181250D01*
X93481Y181336D01*
X93532Y181439D01*
X93520Y181768D02*X93554Y181664D01*
X88141Y186961D02*X93452Y181856D01*
X88141Y186961D02*X90398Y189147D01*
G54D13*X89339Y186969D02*X90439Y187869D01*
G54D12*X131323Y194108D02*X131402Y193424D01*
X131126Y194915D02*X131323Y194108D01*
X132026Y200400D02*X134425Y190710D01*
G54D13*X131239Y199369D02*X133139Y191269D01*
X131239Y199769D02*X133239Y191469D01*
G54D12*X139389Y200676D02*X140675Y191996D01*
X138662Y191649D02*X140675Y191996D01*
X136090Y205853D02*X138662Y191649D01*
G54D13*X137139Y204969D02*X139439Y192769D01*
X137139Y204969D02*X137839Y205069D01*
X138539Y200169D01*
X137739Y204969D02*X139439Y194369D01*
G54D12*X136090Y205853D02*X138591Y206271D01*
X138733Y205088D01*
X138766Y204946D01*
X138851Y204826D01*
X138971Y204742D01*
X139112Y204708D01*
X139183D01*
X139383Y204764D01*
X154034Y205367D02*X154390Y205364D01*
X153625Y205332D02*X154034Y205367D01*
X153002Y205186D02*X153625Y205332D01*
X152418Y204935D02*X153002Y205186D01*
X151884Y204582D02*X152418Y204935D01*
X151415Y204133D02*X151884Y204582D01*
X151026Y203593D02*X151415Y204133D01*
X150729Y202967D02*X151026Y203593D01*
G54D13*X150339Y204669D02*X152439Y206169D01*
G54D12*X149777Y205383D02*X150223Y205853D01*
X151218Y206599D01*
G54D14*X36200Y212042D02*X36255Y211615D01*
X36377Y211189D01*
X36562Y210769D01*
X36801Y210367D01*
X57515Y179669D01*
G54D12*X151218Y206599D02*X152297Y207096D01*
X153398Y207363D01*
X154461Y207415D01*
G54D13*X152439Y206169D02*X154539Y206369D01*
G54D12*X150539Y202258D02*X150729Y202967D01*
X150468Y201474D02*X150539Y202258D01*
X150468Y201474D02*X150497Y201317D01*
X150589Y201183D01*
X150725Y201092D01*
X150886Y201063D01*
X154461Y207415D02*X155047Y207360D01*
X155623Y207247D01*
X156184Y207082D01*
X156727Y206865D01*
X157248Y206600D01*
X155623Y207247D02*X156184Y207083D01*
X156727Y206867D01*
X157248Y206600D01*
X157740Y206286D01*
X158200Y205928D01*
X158623Y205525D01*
X159004Y205082D01*
G54D13*X154539Y206369D02*X156839Y205669D01*
X158739Y203769D01*
G54D12*X157720Y200992D02*X157795Y201104D01*
X157830Y201236D01*
X157791Y202115D02*X157830Y201236D01*
X157612Y202904D02*X157791Y202115D01*
X157308Y203597D02*X157612Y202904D01*
X156891Y204188D02*X157308Y203597D01*
X156375Y204667D02*X156891Y204188D01*
X155777Y205028D02*X156375Y204667D01*
X155111Y205263D02*X155777Y205028D01*
X154390Y205364D02*X155111Y205263D01*
X130290Y196265D02*X130361Y196304D01*
X130431D01*
X126889Y195160D02*X130290Y196265D01*
X125815Y196581D02*X129911Y197938D01*
G54D13*X127739Y196569D02*X131839Y197369D01*
G54D12*X130811Y195989D02*X131126Y194915D01*
X130761Y196111D02*X130811Y195989D01*
X130674Y196210D02*X130761Y196111D01*
X130561Y196276D02*X130674Y196210D01*
X130431Y196304D02*X130561Y196276D01*
X127062Y203557D02*X127525Y203572D01*
X127969Y203557D01*
X128693Y203499D01*
X129365Y203357D01*
X129981Y203126D01*
X130534Y202799D01*
X131021Y202368D01*
X131437Y201829D01*
X131774Y201175D01*
G54D13*X128539Y202469D02*X130239Y201469D01*
G54D12*X129911Y197938D02*X130034Y198015D01*
X130122Y198133D01*
X130166Y198275D01*
X130155Y198419D02*X130166Y198275D01*
X130122Y198133D02*X130166Y198274D01*
X130155Y198419D02*X130166Y198274D01*
X129465Y200500D02*X129705Y199950D01*
X130155Y198419D01*
X131774Y201175D02*X132026Y200400D01*
X129106Y200940D02*X129465Y200500D01*
X128646Y201258D02*X129106Y200940D01*
X128104Y201442D02*X128646Y201258D01*
G54D13*X130239Y201469D02*X131239Y199369D01*
X129839Y201969D02*X131239Y199769D01*
G54D12*X127502Y201500D02*X128104Y201442D01*
X126846Y201451D02*X127502Y201500D01*
X126133Y201303D02*X126846Y201451D01*
X125365Y201063D02*X126133Y201303D01*
X124337Y200617D02*X125365Y201063D01*
X122067Y201596D02*X122610Y202004D01*
X123211Y202369D01*
X123863Y202693D01*
X124561Y202972D01*
X125832Y203351D01*
X127062Y203557D01*
X124561Y202972D02*X125832Y203353D01*
X127062Y203557D01*
G54D13*X123539Y201469D02*X126139Y202369D01*
X128539Y202469D01*
G54D12*X123558Y200085D02*X124337Y200617D01*
X123175Y199589D02*X123558Y200085D01*
X122934Y199011D02*X123175Y199589D01*
X120606Y199564D02*X122934Y199011D01*
X120606Y199564D02*X120852Y200129D01*
X121182Y200657D01*
X121589Y201147D01*
X122067Y201596D01*
X120852Y200129D02*X121182Y200658D01*
X121589Y201147D01*
G54D13*X121839Y200169D02*X122239Y200069D01*
X121839Y200169D02*X123539Y201469D01*
G54D12*X126267Y194900D02*X126889Y195160D01*
X125748Y194600D02*X126267Y194900D01*
X125330Y194258D02*X125748Y194600D01*
X125018Y193874D02*X125330Y194258D01*
X124813Y193444D02*X125018Y193874D01*
X124725Y192990D02*X124813Y193444D01*
X124725Y192990D02*X124748Y192526D01*
X124876Y192067D01*
X125077Y191664D01*
X125358Y191301D01*
X125719Y191000D01*
X124876Y192067D02*X125077Y191665D01*
X125358Y191301D01*
X125719Y191000D02*X126162Y190781D01*
X126678Y190661D01*
X127266Y190646D01*
X127927Y190742D01*
X128664Y190954D01*
X129488Y191258D01*
X130161Y191556D01*
X130693Y191892D01*
X131094Y192311D01*
X131336Y192824D01*
X131402Y193424D01*
X132483Y190157D02*X134425Y190710D01*
X131615Y191301D02*X131679Y191340D01*
X131473Y191199D02*X131615Y191301D01*
X131402Y191057D02*X131473Y191199D01*
X132239Y191096D02*X132483Y190157D01*
X132151Y191239D02*X132239Y191096D01*
X132012Y191336D02*X132151Y191239D01*
X131846Y191374D02*X132012Y191336D01*
X131679Y191340D02*X131846Y191374D01*
X131286Y190668D02*X131402Y191057D01*
G54D13*X132239Y192069D02*X133139Y191269D01*
X131939Y192169D02*X132139Y192569D01*
G54D12*X131153Y190340D02*X131286Y190668D01*
X130989Y190058D02*X131153Y190340D01*
X130779Y189810D02*X130989Y190058D01*
X130495Y189578D02*X130779Y189810D01*
X130112Y189349D02*X130495Y189578D01*
X129610Y189115D02*X130112Y189349D01*
X128972Y188871D02*X129610Y189115D01*
X127888Y188568D02*X128972Y188871D01*
G54D13*X127139Y189669D02*X128939Y189969D01*
X130139Y190569D01*
X130639Y191069D01*
G54D12*X126917Y188460D02*X127888Y188568D01*
X126054Y188532D02*X126917Y188460D01*
X125294Y188768D02*X126054Y188532D01*
X124626Y189158D02*X125294Y188768D01*
X124046Y189694D02*X124626Y189158D01*
X123551Y190367D02*X124046Y189694D01*
X123140Y191167D02*X123551Y190367D01*
X122883Y191946D02*X123140Y191167D01*
X122781Y192732D02*X122883Y191946D01*
X122781Y192732D02*X122841Y193507D01*
X123069Y194253D01*
X123470Y194954D01*
X124053Y195588D01*
G54D13*X123839Y193169D02*X124539Y194869D01*
G54D12*X124053Y195588D02*X124831Y196136D01*
X125815Y196581D01*
G54D13*X124539Y194869D02*X127739Y196569D01*
X123839Y193169D02*X124239Y190969D01*
X125539Y189869D01*
X127139Y189669D01*
G54D12*X144005Y207100D02*X144582Y207017D01*
X145140Y206858D01*
X145669Y206649D01*
X146159Y206406D01*
X144423Y204188D02*X146159Y206406D01*
G54D13*X144139Y205369D02*X144939Y206069D01*
X143639Y206169D02*X144139Y205369D01*
X141139D02*X143639Y206169D01*
G54D12*X143915Y204418D02*X144423Y204188D01*
X143411Y204588D02*X143915Y204418D01*
X142901Y204676D02*X143411Y204588D01*
X142379Y204669D02*X142901Y204676D01*
X142036Y206825D02*X143137Y207068D01*
X143573Y207104D01*
X144005Y207100D01*
X141755Y204544D02*X142379Y204669D01*
X141157Y204315D02*X141755Y204544D01*
X140604Y203976D02*X141157Y204315D01*
X140122Y203525D02*X140604Y203976D01*
G54D13*X138839Y203269D02*X141139Y205369D01*
G54D12*X139732Y202963D02*X140122Y203525D01*
X139466Y202294D02*X139732Y202963D01*
X139344Y201531D02*X139466Y202294D01*
X139344Y201531D02*X139389Y200676D01*
X139383Y204764D02*X139530Y204914D01*
X140173Y205726D01*
X139530Y204914D02*X140173Y205728D01*
Y205726D02*X141029Y206371D01*
X142036Y206825D01*
X140173Y205728D02*X141029Y206371D01*
G54D14*X135965Y161290D02*X137795Y162013D01*
X139667Y162646D01*
X141579Y163189D01*
X143529Y163639D01*
X145514Y163993D01*
X147530Y164249D01*
X149576Y164404D01*
X151650Y164457D01*
X153723Y164404D01*
X155770Y164249D01*
X157787Y163993D01*
X159773Y163639D01*
X161722Y163189D01*
X163636Y162646D01*
X165508Y162013D01*
X167337Y161290D01*
X169123Y160483D01*
X170861Y159594D01*
X172548Y158624D01*
X174183Y157575D01*
X175764Y156451D01*
X177286Y155256D01*
G54D12*X150886Y201063D02*X157412Y200818D01*
X157589Y200868D01*
X157720Y200992D01*
X150950Y199358D02*X159875Y198908D01*
X150782Y199339D02*X150950Y199358D01*
X150634Y199249D02*X150782Y199339D01*
X150533Y199108D02*X150634Y199249D01*
X150500Y198940D02*X150533Y199108D01*
G54D13*X150739Y200369D02*X158939Y199969D01*
G54D12*X159004Y205082D02*X159339Y204599D01*
X159622Y204079D01*
X159851Y203524D01*
X160019Y202936D01*
X160123Y202317D01*
X160158Y201667D01*
X160119Y200992D02*X160158Y201667D01*
X159875Y198908D02*X160119Y200992D01*
G54D13*X158739Y203769D02*X158939Y199969D01*
G54D12*X150500Y198940D02*X150580Y198013D01*
X150780Y197190D01*
X151101Y196479D01*
X151541Y195886D01*
X152094Y195414D01*
X152743Y195065D01*
X153477Y194842D01*
X154287Y194742D01*
X155141Y194793D01*
X155970Y195015D01*
X156765Y195386D01*
X157515Y195886D01*
X158872Y194426D01*
X157773Y193596D02*X158872Y194426D01*
X156680Y193040D02*X157773Y193596D01*
X155527Y192743D02*X156680Y193040D01*
X154248Y192690D02*X155527Y192743D01*
G54D13*X156339Y194069D02*X157639Y194569D01*
X153039Y193769D02*X156339Y194069D01*
G54D12*X153139Y192799D02*X154248Y192690D01*
X152087Y193044D02*X153139Y192799D01*
X151118Y193469D02*X152087Y193044D01*
X150255Y194118D02*X151118Y193469D01*
X149872Y194540D02*X150255Y194118D01*
X149519Y195039D02*X149872Y194540D01*
X149204Y195621D02*X149519Y195039D01*
X148926Y196292D02*X149204Y195621D01*
X149519Y195040D02*X149872Y194540D01*
X149204Y195621D02*X149519Y195040D01*
G54D13*X151039Y194869D02*X153039Y193769D01*
X149739Y197069D02*X151039Y194869D01*
X149339Y198269D02*X150639Y194869D01*
G54D12*X148693Y197056D02*X148926Y196292D01*
X148504Y197922D02*X148693Y197056D01*
X148366Y198896D02*X148504Y197922D01*
X148282Y199982D02*X148366Y198896D01*
X148272Y201007D02*X148282Y199982D01*
G54D13*X149439Y201869D02*X149739Y197069D01*
X149339Y202469D02*Y198269D01*
G54D12*X148272Y201007D02*X148348Y201942D01*
X148504Y202789D01*
X148732Y203553D01*
X149023Y204236D01*
G54D13*X149439Y201869D02*X150339Y204669D01*
X149339Y202469D02*X150239Y204269D01*
G54D12*X149023Y204236D02*X149375Y204846D01*
X149777Y205383D01*
G54D14*X124557Y153989D02*X126019Y155256D01*
X127541Y156451D01*
X129121Y157575D01*
X130756Y158624D01*
X132443Y159594D01*
X134180Y160483D01*
X135965Y161290D01*
X171936Y266361D02*X179000Y230000D01*
X171890Y266819D02*X171936Y266361D01*
X171759Y267246D02*X171890Y266819D01*
X171551Y267631D02*X171759Y267246D01*
X171276Y267964D02*X171551Y267631D01*
X170940Y268240D02*X171276Y267964D01*
X170555Y268447D02*X170940Y268240D01*
X170127Y268578D02*X170555Y268447D01*
X169668Y268624D02*X170127Y268578D01*
X133687Y268624D02*X169668D01*
X124301Y230000D02*X131371Y266361D01*
X133234Y268578D02*X133687Y268624D01*
X132825Y268444D02*X133234Y268578D01*
X132461Y268235D02*X132825Y268444D01*
X132144Y267957D02*X132461Y268235D01*
X131875Y267621D02*X132144Y267957D01*
X131655Y267238D02*X131875Y267621D01*
X131487Y266814D02*X131655Y267238D01*
X131371Y266361D02*X131487Y266814D01*
G54D15*M02*
